<svg xmlns="http://www.w3.org/2000/svg" width="53" height="54" fill="none"><path fill="#000" d="M48.6 0H5C2.5 0 .5 2 .5 4.5v27.9c0 2.5 2 4.5 4.4 4.5h43.7c2.4 0 4.4-2 4.4-4.5V4.5C53 2 51 0 48.6 0Zm2.6 32.4c0 1.5-1.1 2.7-2.6 2.7H5a2.7 2.7 0 0 1-2.6-2.7V4.5c0-1.5 1.1-2.7 2.6-2.7h43.7c1.5 0 2.6 1.2 2.6 2.7v27.9Z"/><path fill="#000" d="M30 15.3h6.4V8.1c0-2.5-2-4.5-4.4-4.5H20.6c-2.4 0-4.3 2-4.3 4.5v4.5h-1.8c-2.4 0-4.4 2-4.4 4.5v4.5H8.4c-2.4 0-4.4 2-4.4 4.5v7.2h20.1v-7.2c0-.6 0-1.1-.3-1.6l.1-.2h6.3v-7.2c0-.6 0-1.1-.3-1.6l.2-.2Zm4.6-1.8h-3.5l3.5-5v5Zm-6-8.1-5.2 7.2h-4l5.2-7.2h4ZM18 8.1c0-1.5 1.2-2.7 2.6-2.7h1.8L18 11.6V8.1Zm.4 6.3h4l-5 7.2h-4l5-7.2ZM12 17.1c0-1.5 1.2-2.7 2.6-2.7h1.8l-4.4 6.2v-3.5Zm-6.1 9c0-1.5 1.1-2.7 2.6-2.7h1.8l-4.4 6.2v-3.5Zm.8 5.4 5.7-8.1h4l-5.7 8.1h-4Zm6.1 0 5.7-8.1h1.4c.7 0 1.4.4 2 1l-5.1 7.1h-4Zm9.7 0h-3.6l3.6-5v5Zm.4-9h-.4c-.8-.6-1.7-.9-2.6-.9h-.3l5-7.2H26c.7 0 1.5.4 2 1l-5.1 7.1Zm5.7 0H25l3.5-5v5Zm-2.6-9.9h-.3l5-7.2H32c.8 0 1.5.4 2 1l-5.2 7.3a4.3 4.3 0 0 0-3-1.1ZM41.2 29.7a5 5 0 0 0 4.8-5 4.8 4.8 0 0 0-4.8-4.9 4.9 4.9 0 0 0-4.8 5c0 2.7 2.1 4.9 4.8 4.9Zm0-8.1a3 3 0 0 1 3 3.2c0 1.7-1.3 3-3 3.1-1.7 0-3-1.4-3-3.1 0-1.8 1.3-3.2 3-3.2Z"/><path fill="#000" d="M32.9 24.3v.9a8 8 0 0 0 7.8 8.1h1a8 8 0 0 0 7.8-8.1v-9h-8.8a8 8 0 0 0-7.8 8.1ZM47.7 18v7.2c0 3.5-2.7 6.3-6 6.3h-1a6.2 6.2 0 0 1-6-6.3v-.9c0-3.5 2.7-6.3 6-6.3h7ZM6.4 10.7l.3.2c.8.6 2 .6 2.9 0l.2-.2a2.7 2.7 0 0 0 .7-3.8L8.8 5a.9.9 0 0 0-1.3 0l-1.8 2-.1.2c-.7 1.2-.4 2.8.8 3.6ZM7.1 8l1-1.2 1 1.2c.3.5.1 1-.2 1.2l-.3.2c-.3.2-.7.2-1 0l-.2-.2A1 1 0 0 1 7 8ZM48 9.2c-.3-.4-.7-.6-1.2-.8V8a4.4 4.4 0 0 0-4.7-4.5c-1 .1-1.7.5-2.4 1.2-1.9 1.9-1.7 3.4-1.4 4.6.1.3.5.6.8.6h2.5a4 4 0 0 0-.7 3.8c.1.3.5.6.9.6h6.7c.3 0 .7-.3.8-.6A4.5 4.5 0 0 0 48 9.2Zm-8.1-1c0-.8.4-1.6 1-2.1.4-.4.8-.6 1.3-.7.8 0 1.5.2 2 .7.6.5.9 1.2.9 2l-.4-.1-.9.2h-4Zm7.8 4.4h-5.2c0-.8.4-1.6 1-2.2.4-.3.9-.5 1.4-.6.7 0 1.4.2 2 .7.5.5.8 1.2.8 2v.1ZM52.1 43.7l-.3-3.6c0-.5-.5-.9-1-.8l-38 4.2v-3c0-.5-.4-.9-1-.9H6.7c-.4 0-.8.4-.8.9v3.1l-3.1-.3c-.5 0-1 .3-1 .8v.8h-.2a1 1 0 0 0-.2.7l.4 3.6a.9.9 0 0 0 1 .8l3-.3V53c0 .5.5.9 1 .9h5.2c.5 0 .9-.4.9-.9v-3.3l38 4.2c.5 0 1-.3 1-.8l.3-3.6c.1-.5-.2-1-.7-1l-18-2 18-2c.5 0 .8-.4.7-1ZM7.5 41.4H11v2.3l-2.4.2H7.5v-2.5ZM11 52.2H7.5v-2.7L11 49v3.1Zm39.3-1.9-.2 1.8L17 48.5l8.2-1 25.2 2.8Zm-25.2-4.6h-.4L3.4 48.2l-.2-1.8 47-5.1.1 1.8-25.2 2.7Z"/></svg>