<svg xmlns="http://www.w3.org/2000/svg" width="19" height="31" fill="none"><path stroke="#252525" stroke-linecap="round" stroke-width="1.6" d="M13.4 7v0c.4 0 .7-.2.7-.6V2.2c0-.3-.1-.6-.3-.8v0c-.2-.2-.6-.4-1-.4H7.2c-.3 0-.7.2-.9.4v0c-.2.2-.3.5-.3.8v4.2c0 .4.3.7.7.7v0m6.8 0v1.1c0 .8.7 1.4 1.4 1.6.6.2 1 .6 1.1 1l.1.4v4.3m-2.6-8.4H6.6m9.4 8.4H4m12 0v7.6m0 0v4.6c0 .5 0 1-.4 1.2-1.2 1-4.1 1.1-5.6 1.1s-4.4-.2-5.6-1c-.3-.4-.4-.8-.4-1.3v-4.6m12 0H4M6.6 7v1.1c0 .8-.7 1.4-1.4 1.6-.6.2-1 .6-1.1 1l-.1.4v4.3m0 0v7.6"/></svg>