<svg xmlns="http://www.w3.org/2000/svg" width="14" height="14" fill="none" viewBox="0 0 18 18"><path fill="#252525" d="M13 0H5a5 5 0 0 0-5 5v8a5 5 0 0 0 5 5h8a5 5 0 0 0 5-5V5a5 5 0 0 0-5-5Zm3.4 13c0 1.9-1.5 3.4-3.4 3.4H5A3.4 3.4 0 0 1 1.6 13V5C1.6 3 3.1 1.6 5 1.6h8c1.9 0 3.4 1.5 3.4 3.4v8Z"/><path fill="#252525" d="M9 4.4a4.6 4.6 0 1 0 0 9.2 4.6 4.6 0 0 0 0-9.2ZM9 12a3 3 0 1 1 0-6 3 3 0 0 1 0 6ZM13.8 3a1.2 1.2 0 0 0-1.1 1.2 1.2 1.2 0 0 0 1.1 1.2c.3 0 .6-.2.9-.4a1.2 1.2 0 0 0 0-1.6c-.3-.3-.6-.4-.9-.4Z"/></svg>
