<svg xmlns="http://www.w3.org/2000/svg" width="145" height="146" fill="none"><g fill-rule="evenodd" clip-path="url(#a)" clip-rule="evenodd"><path fill="#EC684A" d="M34.9 23.1c-1.1.5-2.4 2-3 4.4-.6 2.4-.6 5.7.4 10.2 1 4.5 3 10.1 4.1 14.5 1.1 4.4 1.4 7.6 1.3 10.1-.1 2.6-.7 4.5-1.1 6.3-.5 1.8-.8 3.3-1.1 5.1l-1 7.6a131 131 0 0 1-7.6 27.6c-1.1 2.7-1.5 3.2-2.9 3.3-1.4.1-3.8-.2-6-.2s-4.2.2-6.6.6c-2.4.4-5.1.9-6.8 1.6-1.7.7-2.3 1.6-2.3 2.8 0 1.2.6 2.8 1.7 4 1.1 1.2 2.8 2 4.7 2.8 2 .8 4.3 1.6 5.9 2.4 1.6.8 2.5 1.6 3.5 2.1s2.1.7 3.8 1.1c1.7.3 4.1.8 6.9 1 2.8.2 6 .2 9.1 0 3.1-.2 6-.6 9.1-.9l8.3-.9c2.2-.2 3.4-.2 5.5 0l8.7 1 10.5 1.6c3 .4 5 .5 7.3.4a33.3 33.3 0 0 0 15.1-3.4c2.2-1.2 3.7-2.8 5-4.7a62.1 62.1 0 0 0 6.1-13.6c.6-2.1 1-3.9.4-6.5s-2.1-6.1-6.2-7.1c-4.2-1-11 .6-20.6-2.9a97.3 97.3 0 0 1-28.8-18.7c-6.9-6.5-8.3-11-8.4-16.5-.1-5.5 1.2-12 .9-19.7A47 47 0 0 0 47 19.3c-1.9-2.6-4 1.1-5.6 2.9-1.6 1.8-2.7 1.7-3.7 1.3-.7-.3-1.7-.9-2.8-.4Z"/><path fill="#B94106" d="M3 118.5c.6 0 1.9.6 3.4.9 1.5.3 3.3.4 4.8.3 1.5 0 2.8-.2 3.7-.4a6 6 0 0 0 2.4-1.1c.7-.5 1.5-1.2 2.1-2.2.7-1 1.3-2.2 1.9-2.9.6-.7 1.3-.9 1.8-.9s.9.3 1.1.8c.1.5 0 1.2-.7 2.1-.6.9-1.8 2-3.2 3.6-1.5 1.6-3.3 3.7-4.6 4.8-1.4 1.1-2.3 1.1-3.5.8a25 25 0 0 1-8.9-4.5c-.9-.8-.9-1.4-.3-1.3ZM35.6 23c-1 .3-1.3 1.4-1.5 2.6-.2 1.3-.4 2.8-.4 4.2 0 1.5.2 2.9.8 4.4l2 4.7c.5 1.4.7 2.5.6 3.8-.1 1.3-.6 2.8-.5 5.4.1 2.6.8 6.2 1.3 9.6.4 3.4.6 6.6 1 8.3.4 1.7 1.1 2 1.8 1.3.8-.7 1.6-2.4 2.4-3.9.8-1.5 1.6-2.7 1.6-3.7s-.7-1.7-1.8-3.4a20 20 0 0 1-3.1-6.4c-.5-2.2 0-4.2.4-5.9.4-1.6.8-2.9.8-3.8 0-.9-.3-1.4-.7-2.3l-1.6-3.4a8 8 0 0 1-.6-3.8c.1-1.4.5-3 .9-4.3.3-1.3.5-2.2-.2-2.8-.6-.6-2.2-1-3.2-.6Zm-.2 55.9-3.7 20.6c.7 5.5 4.8 10.6 11.2 11.7l.5 1.4c2.3 6.1 8.2 9.5 13.5 7.7l1.5-.6 1.9-1.3c.3 1 .8 2 1.3 2.9 3 5 8.2 7.4 13.1 5.8a9.9 9.9 0 0 0 5.7-4.8c.5.4 1.1.7 1.6.9 2.7 1.3 5.9 1.7 8.9.7 2.8-.9 5.1-2.7 6.6-5l.8-1.5 1.4.1a12 12 0 0 0 11.3-8.7l.3-1.2 1-.7c4.4-3.1 7-9 6.5-15.6-.2-3.1-1.2-5.9-2.6-8.3-10 5-65.5-5.3-80.8-4.1Z"/><path fill="#fff" d="M80.7 119.3c-1.5.1-3 .9-4.2 1.5-1.2.5-2.2.8-3.4.6-1.2-.1-2.7-.5-4.3-1.3-1.5-.8-3-2-4.1-3.2-1.1-1.3-1.9-2.6-2.6-3.1-.7-.5-1.5-.2-2.6 0s-2.7.2-4.4-.1c-1.6-.3-3.4-1-4.9-2.7-1.5-1.7-2.9-4.5-4.3-6.1-1.4-1.7-2.8-2.3-4-3.6a16 16 0 0 1-3-5.1c-.6-1.9-.8-3.7-.7-5.3.1-1.6.6-2.8 1.7-4.9 1.1-2.1 2.8-4.9 2.9-7 .2-2.1-1.2-3.6-1.9-5.2a8.5 8.5 0 0 1-.4-5c.2-1.6.6-3.1 1.3-4.5.7-1.4 1.5-2.7 2.1-3.4.5-.7.7-.9.5-1.5-.2-.6-.8-1.7-1.7-2.8-.9-1.1-2-2.2-2.7-3.8-.7-1.6-.8-3.7-.4-5.8.4-2.1 1.5-4.1 2-5.4.5-1.2.5-1.6.2-2.2l-1.6-2.1c-.6-1-1.2-2.3-1.5-4-.3-1.7-.4-3.8-.1-5.6a16.4 16.4 0 0 1 5.2-7.6c1.1-.8 2.3-1.3 3.2-2.3.8-1 1.2-2.5 1.9-3.7a14.8 14.8 0 0 1 6.5-5.8c1.4-.5 2.8-.6 4-.7 1.2 0 2.3-.1 3.1-.3.8-.3 1.4-.7 2.4-1.5a23 23 0 0 1 3.8-2.6c1.4-.8 2.9-1.2 4.1-1.4 1.2-.2 2.3-.1 3.3.2 1 .3 1.9.9 2.7 1.1.8.2 1.5-.1 2.5-.4 1-.3 2.2-.7 3.6-.9 1.4-.2 3-.2 4.3 0 1.3.2 2.4.6 3.5 1.3 1.1.8 2.2 1.9 2.8 2.7.7.8.9 1.3 1.6 1.4h3.1c1.3 0 2.7.2 3.9.4 1.2.3 2.2.6 3.3 1.2 1.1.6 2.2 1.5 3.1 2.5a8.7 8.7 0 0 1 1.9 3.7c.4 1.4.4 2.8.7 3.9.3 1.1.9 1.7 1.8 2.8.9 1.1 2.1 2.8 2.7 4.3.6 1.5.7 2.9.7 4.2l-.5 3.7c-.3 1.2-.6 2.5-1 3.5-.4.9-.8 1.5-.7 2.1.1.6.7 1.3 1.3 2.3a11 11 0 0 1 1.4 3.3c.3 1.2.2 2.4.1 3.6-.1 1.2-.1 2.5-.4 3.5-.3 1-.9 1.8-1.6 2.7-.7.9-1.4 1.8-1.4 2.8 0 1 .7 2.1 1.4 4.2.8 2.1 1.6 5.1 1.4 7.5-.2 2.4-1.3 4.3-2 6.2-.7 2-.8 4.1-.6 5.6.2 1.6.6 2.6 1.1 4.6.5 2 1.1 4.9.9 7.7a17 17 0 0 1-5.9 11.7c-1 .9-1.7 1.3-2.1 2.1-.4.7-.6 1.7-.9 2.6-.4.8-.9 1.5-1.8 2-.8.6-1.9 1-3.1 1.5-1.1.5-2.3 1-3.4 1.3-1.1.2-2.1.2-3 .5-.9.3-1.6 1-2.3 1.6a9 9 0 0 1-2.6 1.6c-1.1.5-2.7 1-4 1.3a9 9 0 0 1-3.6.3c-1.4-.2-2.8-.8-4.3-.7Z"/><path fill="#C5C5C6" d="M117.2 94.3c.5-.7.7-.3.2 1.5-.5 1.8-1.8 5-3.1 6.9-1.4 2-2.8 2.8-3.8 3.7-.9.9-1.4 2-2.2 3.1a17 17 0 0 1-3 3c-1 .7-1.9 1.1-3.1 1.3-1.2.2-2.7.4-3.9 1-1.3.6-2.4 1.5-3.6 2.4-1.2.9-2.5 1.6-3.7 2.1-1.2.5-2.4.6-3.4.6s-1.9 0-2.9-.3-2-.9-2.8-1.1c-.8-.2-1.2 0-2.3.6-1 .6-2.7 1.7-4.1 2.2a6 6 0 0 1-4.2 0c-1.5-.4-3.3-1.3-4.7-2.3a11 11 0 0 1-2.8-3c-.7-.9-1.1-1.7-1.9-1.9-.8-.3-1.9-.1-3.4 0-1.4 0-3.1-.1-4.4-.4a7 7 0 0 1-3.1-1.9c-1-.9-2-2-2.7-3l-1.7-2.8c-.6-.8-1.5-1.5-2.8-2.9a31.1 31.1 0 0 1-4.1-5.3 10 10 0 0 1-1.1-5.3c.1-1.9.4-4.2.8-5.9.4-1.7.9-2.7 1.4-3.7.5-1 1-2 .6-4-.3-1.9-1.5-4.7-1.7-7-.3-2.3.3-4 1-5.6.7-1.6 1.5-3.1 2.3-4.3.8-1.1 1.7-2 1.6-2.7-.1-.7-1.1-1.3-1.9-2.1-.8-.8-1.3-1.8-1.7-3.9-.4-2.1-.7-5.3-.7-7.3 0-2.1.3-3 .7-3.8.4-.8.8-1.6.6-2.4-.2-.8-1.1-1.7-1.8-3a12.2 12.2 0 0 1-.6-10.3c.6-1.5 1.4-2.5 2.2-3.7.8-1.2 1.6-2.5 2.8-3.3 1.2-.8 2.9-1 3.4-.7.5.3 0 1.1-.6 2l-1.3 2.8-.7 2.8c-.1.9-.2 1.8-.1 2.7 0 .9.2 1.8.5 2.7.3.9.8 1.9 1.4 2.9l1.6 2.5c.3.5.3.5.1.8l-1.3 1.5c-.4.6-.8 1.2-1 2-.2.8-.3 1.7-.3 2.6 0 .9.1 1.7.4 2.4.2.7.6 1.3.9 1.8l.9 1.1c.2.2.2.2 0 .7-.2.5-.6 1.4-.8 2.5a11 11 0 0 0-.1 3.1c.1.9.3 1.6.7 2.1.3.5.7 1 1.2 1.1.4.1.9-.1 1.7-.3l3.1-.6h2.3l1.5.4 1 .6.2.1-.3-.1-1.2-.5a2 2 0 0 0-1.1 0l-1.1.2c-.4.1-.8.4-1.1.7l-.8.8c-.2.2-.2.2 0 .2l.9.1 1 .5 1.4.9a6.9 6.9 0 0 1 2.2 4.8c0 .6-.1 1.3-.4 1.9a7 7 0 0 1-2.9 3l-2 .8c-.7.3-1.4.7-1.3.9.1.3.9.4 1.1 2.5a55 55 0 0 1-.5 8.8l-.6 4.8c0 1.1.1 2 .4 2.9.3.9.8 1.7 1.3 2.4s1.2 1.3 1.7 1.8c.6.5 1.1.9 1.7 1.1.5.3 1 .4 1.2.4.2.1.2.1.3.6.1.6.2 1.7.5 2.8a9.9 9.9 0 0 0 7.5 7c1.1.2 2.1.2 3 0a5 5 0 0 0 1.8-.5c.3-.1.3-.1.4.1l.9.9c.5.4 1.3 1 2.2 1.4.9.5 2 .9 3 1.1 1 .2 2 .2 3-.1 1-.2 2.1-.7 2.9-1.2.9-.5 1.5-1.1 1.9-1.4.3-.3.4-.3.6-.1l1.6 1c.9.5 2.1 1.1 3.1 1.4a7 7 0 0 0 4.3.1l1.8-.7c.4-.2.4-.2.9 0l2.7.5c1 .1 1.8-.1 2.6-.4a6.7 6.7 0 0 0 3.6-3.6l.9-2.7c.1-.6.1-.6.5-.7l1.8-.9c.8-.5 1.8-1.4 2.6-2.3.8-.9 1.4-1.7 2.2-3 .7-.5 1.5-2.3 2.1-3Zm-53.3-51c-1 .6-2.1.9-3.3.9-4 0-7.3-3.7-7.3-8.4 0-1.2.2-2.3.6-3.3a8.8 8.8 0 0 0-1.6 5.1c0 4.3 3.1 7.9 6.9 7.9 1.8 0 3.5-.8 4.7-2.2Zm-3-13.9c-.9.4-1.9.5-2.9.4-3.5-.5-5.9-4-5.3-8 .1-1 .4-2 .9-2.8a7.9 7.9 0 0 0-2 4.2c-.5 3.8 1.8 7.1 5 7.6 1.5.1 3.1-.4 4.3-1.4Zm12.3 19.9c5 5 9.4 5.2 13.3-1-1.2.8-2.5 1.6-3.6 2.1-1.2.4-2.2.5-3.1.5H78l-.9.1-1.4-.4-2.5-1.3Zm25.4-2.2c5.2 5.1 9.9 5.4 14-1.2-1.1.7-2.1 1.4-3.4 2-1.3.6-2.8 1-3.8 1.3-1.1.2-1.7.2-2.2.1l-1.5-.6-1.5-.8-1.3-.6-.3-.2Z"/><path fill="#1A1A18" d="M88.9 52.2c.2.4.6 1 1.1 1.5.5.5 1.1.9 1.7 1.1a4 4 0 0 0 1.8.4l1.7-.2c.5-.2 1.1-.4 1.6-.8a10 10 0 0 0 1.5-1.4l.8-1.3v-.9c-.1-.2-.2-.4-.5-.5-.2-.1-.5-.2-.7-.1-.2 0-.4.1-.6.4l-.7 1-1 1c-.4.3-.9.5-1.3.6h-1.2l-1.2-.6-1-1c-.3-.3-.4-.5-.7-.5a1 1 0 0 0-.8.1c-.3.1-.4.3-.5.5-.1 0-.2.3 0 .7ZM83.5 49.3c1.4-1.8 2.3-4.7 2.3-7.9 0-5.6-2.7-10.1-6.1-10.1-3.4 0-6.1 4.5-6.1 10.1 0 3.6 1.1 6.7 2.8 8.5a10 10 0 0 1-4-1.4 8.9 8.9 0 0 0 7.1 3.4 9.4 9.4 0 0 0 7.9-5 8.1 8.1 0 0 1-3.9 2.4Zm-1.3-12.7c1.1 0 2 2.4 2 5.4 0 3-.9 5.4-2 5.4s-2-2.4-2-5.4c-.1-3 .9-5.4 2-5.4ZM109 47.5c1.4-1.8 2.3-4.6 2.3-7.7 0-5.4-2.7-9.8-5.9-9.8-3.3 0-5.9 4.4-5.9 9.8 0 3.5 1.1 6.6 2.7 8.3-1.5-.2-2.8-.7-3.9-1.3a9 9 0 0 0 6.9 3.4 9 9 0 0 0 7.7-4.9c-.9.8-2.2 1.6-3.9 2.2ZM107.8 35c1.1 0 2 2.3 2 5.2 0 2.9-.9 5.2-2 5.2s-2-2.3-2-5.2c0-2.9.9-5.2 2-5.2Z"/><path fill="#C5C5C6" d="m74.5 103.2-2.7-.8c-.5-.1-.5-.1.1-.3l2.7-.7c1.1-.4 2.2-.8 3-1.3.9-.5 1.6-1.1 2-1.7l.9-1.4.1-.3-.2.5c-.2.5-.5 1.6-1 2.4l-1.3 1.8c-.3.3-.3.3-.1.4l1.2.4 2.4.5c.8.1 1.6 0 2.4-.2.8-.2 1.6-.5 2.3-.9.7-.4 1.2-.9 1.5-1.2.3-.3.3-.3.1 0a6.3 6.3 0 0 1-4.8 3.6c-1 .2-2.2.2-3.8 0-1.6 0-3.4-.5-4.8-.8Z"/><path fill="#EC6B35" d="M44.5 57.9v2.8c-1.2.1-2.3.3-3.5.3l-3.7-.3v-2.8c1.2.2 2.5.3 3.7.3 1.2 0 2.3-.2 3.5-.3ZM41 99.8l.3 2.9-4.7-.7a45 45 0 0 1-4.8-1.6l-.3-2.9c1.6.6 3.2 1.2 4.8 1.6 1.6.4 3.2.5 4.7.7ZM37.9 90v2.8l-.8-.2-3.4-1.1.6-2.6 2.4.7 1.2.4Z"/><path fill="#F9C188" d="m65.3 117-2-2.9-2.7-.2c-3.2-.2-6.5-.4-10.6-1.1a225.1 225.1 0 0 1-21.8-5.1l-.9 2.7c2.6.7 5.1 1.5 8.9 2.4 3.8.9 8.8 2 12.9 2.7 4.1.7 7.3.9 10.6 1.1l5.6.4ZM97.2 114.8l-1.3 3.1 4.4-.9c4.1-.9 9-2.3 12.8-3.4L112 111a197.5 197.5 0 0 1-14.8 3.8ZM23.7 115.1l-2.3 2.7-2.5.3c-1.7.2-3.4.6-4.7.9a16 16 0 0 0-3.5 1.2l-3.2 1.5-.5.3-2.1-1.4 2.1-1.4c.9-.5 2.1-1.1 3.2-1.5 1.1-.5 2.2-.8 3.5-1.2 1.4-.3 3-.7 4.7-.9l5.3-.5ZM107.7 123.9l2.7-2.6a142.5 142.5 0 0 1-31.2 2.8 274.2 274.2 0 0 1-45.5-2.3c-5.6-.8-9.3-1.5-13-2.3l-2.7 2.6a238.6 238.6 0 0 0 34.1 4.2 409 409 0 0 0 42.4-.4c5-.5 9.1-1.2 13.2-2Z"/><path fill="#EC6B35" d="m19.9 115.4 3.8-.4-2.3 2.7-2.5.3-1.8.3.3-.2c.7-.5 1.5-1.2 2.1-2.2l.4-.5Zm-13.4 4c1.5.3 3.2.3 4.7.3h.5l-1.2.5-3.2 1.5-.5.3-2.1-1.4 1.8-1.2ZM36.9 44h.6c1.2 0 2.4-.1 3.5-.3V41c-1.2.1-2.3.3-3.5.3h-.4v1.5l-.2 1.2ZM34 32.7c-.2-1-.3-1.8-.3-2.8h.7c1.2 0 2.4-.1 3.5-.3v2.8c-1.2.1-2.3.3-3.5.3H34Zm10.3 82 4.8.9c4.1.7 7.3.9 10.6 1.1l5.6.3-2-2.9-2.7-.2c-3.2-.2-6.5-.4-10.6-1.1l-7.1-1.4.4 1.2 1 2.1Zm65.5-3c-3.3 1-7.2 2-10.5 2.8l-2 .4L96 118l4.4-.9 5.5-1.4c1.6-1 2.9-2.4 3.9-4Zm-18.4 12.1-7.1.3c2.1.6 4.4.6 6.6-.1l.5-.2Zm-16 2.9c1.4-.6 2.6-1.5 3.6-2.6l-15.3-.1c1.2 1.2 2.5 2.1 4 2.7h7.7Z"/><path fill="#1A1A18" d="M15.6 121.8a7.4 7.4 0 0 0-1.4 1.6l-.1.5c0 .1 0 .1-.2 0l-1.1-.5-2.5-.8c-1-.3-2-.7-2.7-1.1-.8-.3-1.3-.7-1.8-1.1L4.3 119c-.4-.5-.7-.8-.8-1.2v-.9l.6-.6 1.3-.6 2.2-.7 3.3-.7a39.6 39.6 0 0 1 8.7-.7l3.3-.1c.6 0 .6 0 .2.5-.4.5-1.2 1.5-2.7 3l-4.8 4.8Zm104.9-74.1 15.8-29.6c3.2-5.9 3.2-5.9 3.7-6l2.4-.6c.9-.3 1.8-.7 2.3-1.2.5-.5.8-1.1.7-1.9a6 6 0 0 0-2.5-4.4c-.7-.5-1.6-.9-2.4-.9-.8 0-1.6.3-2 .5-.4.2-.4.2-.5 0l-.7-.7a1 1 0 0 0-1.1-.1c-.3.2-.6.5-.6 1.1l.3 2.1.7 2.2c.2.5.2.5-2.8 6.1L119 42.6a9.2 9.2 0 0 0-2.4-3.1c1.6-2.4 2.8-5.6 2.8-8.9 0-5-2.2-9.4-5.5-11.9.3-3.8-1.4-7.5-5.2-9.9a18 18 0 0 0-11.5-2.5 13 13 0 0 0-10.9-6c-2.7 0-5.1.8-7.2 2.3-1.8-1.3-4-2-6.3-2-4.1 0-7.8 2.3-10 5.9-5.2-1.2-11.1 1.4-14.4 6.7-.8 1.3-1.5 2.7-1.9 4.1-2.7 1-5.1 3-6.9 5.6l-1.7-.5a47 47 0 0 1-2.2-1c-.7-.3-1.1-.3-1.5-.3-.4.1-.7.3-.9.6l-.5.9-.8 1.2-1 1.6-.8 1.6c-.2.5-.4.8-.5 1.5-.2.6-.3 1.6-.3 3a25.2 25.2 0 0 0 1.7 8.3l1.9 5.3a77 77 0 0 1 2.5 9.8 43.9 43.9 0 0 1 .3 7.7l-.3 1.2-.2.2-.9.6c-.3.3-.5.7-.7 2.3l-.5 6.4c-.1 1.8-.2 2.6-.1 3.2.1.6.3 1.1.5 1.4.1.3.1.4-.1 1.6-.2 1.2-.4 3.5-1 6.9-.6 3.4-1.4 8-2.6 12.3a93.2 93.2 0 0 1-3.8 10.3c-.8 2-.8 2-1.3 2l-2.9-.1a70.3 70.3 0 0 0-17.5 2.4c-1.4.5-2.3 1-3 1.6-.7.7-1.1 1.4-1.1 2.3v.2c0 .9.3 1.8.8 2.7a12.1 12.1 0 0 0 4.9 4.2c1.1.6 2.4 1 3.4 1.3l2.6.8c.7.2 1.2.4 1.6.9.5.4.9 1 1.7 1.6.8.6 2.2 1 3.6 1.4a55.8 55.8 0 0 0 12.5 1.5c3.8.1 9.3 0 13-.2 3.7-.2 5.6-.6 7.4-.9l5-.7c1.4-.2 2.6-.3 3.9-.2 1.3 0 2.9.2 4.5.6l5 1.2 3.4.5c.6.1.6.1.4 1.6l-.7 6.5c-.2 1.8-.2 2.3 0 2.8s.6 1 1.1 1.4l1.7 1.1c.6.3 1.3.4 1.8.4s1-.2 1.3-.5c.3-.2.5-.6.6-.9a2 2 0 0 0 0-1.1 2 2 0 0 0-.6-1c-.3-.3-.5-.6-.9-.8-.3-.2-.6-.4-1.1-.5l-1.2-.3c-.3-.1-.3-.1-.2-.3l.3-1.4.2-2.2.1-2.2.1-1.8c0-.4 0-.4.3-.3l1.6.2 2.7.2 1.8.1 1.1-.1c.2 0 .2 0 .2.3l-.2 1.6-.3 1.7-.4 1.7-.4 1.5c-.1.4-.2.6-.1.9 0 .3.1.7.4 1a12.4 12.4 0 0 0 4.9 2.5h1.3c.4-.1.8-.3 1-.6l.5-.8c0-.3 0-.6-.2-1-.1-.4-.3-.8-.7-1.1-.3-.3-.8-.6-1.5-.9l-1.8-.4-.7-.1c-.1 0-.1 0 0-.4l.4-1.8.3-2.3.2-1.4c0-.3 0-.3.6-.3a34.4 34.4 0 0 0 5.4-.6l2.8-.5 3.2-.8c1-.3 1.9-.7 2.8-1.2l2.6-1.6 2.4-1.9c.8-.7 1.5-1.3 2.3-2.4l2.5-4c.7-1.3 1.1-2.5 1.4-3.6a29.8 29.8 0 0 0 2-7.8l.5-3.4.3-2.3a20 20 0 0 0 3.3-11.3 25 25 0 0 0-1.8-8.7l.4-.2c1-.4 1.2-.9 1.5-2.1l1-5.1c.2-1.8.2-3.5.2-4.7 0-.9 0-2-.7-2.7v-.6a13 13 0 0 0-4.1-9.8c2.7-1.9 4.5-5.4 4.5-9.5.5-.2.5-.4.5-.6Zm-33.7 73.7a13.5 13.5 0 0 0 11.2-5.2 13.1 13.1 0 0 0 13.2-8.6c.6-.3 1.1-.7 1.7-1.2l-1.7 6.5c-.5 2.1-1.1 4-1.9 5.8-.9 1.8-2.1 3.4-3.3 4.7a15.2 15.2 0 0 1-3.8 3 38.3 38.3 0 0 1-9.8 3.3c-1.5.3-2.5.3-3.3.4l-1.4.1c-.2 0-.2 0-.2-.3V126l-.2-2.1-.5-2.5Zm-2.9-.4.5 2.8c.2.9.3 1.7.3 2.8v3.1c0 .7 0 .7-.7.7l-3.3-.1-3.2-.3c-.6-.1-.6-.1-.7-.6l-.3-2.5-.4-3-.2-1.3c1.8-.5 3.5-1.6 4.8-2.9l3.2 1.3ZM38.2 50.1l-2.8-6.7c-.9-2.3-1.8-4.8-2.3-6.9-.5-2.1-.8-3.8-.8-5.3s.2-2.7.7-3.9c.5-1.2 1.2-2.2 1.5-2.8.3-.5.3-.5.6-.4l1.2.7c.6.2 1.2.3 1.9.3-2.5 5.5-1.3 11.7 2.9 15.1-1.9 2-3.1 4.9-3.1 8.2l.2 1.7Zm1.9 14.8-.4-9.4c.3.5.6 1.1 1 1.5a7 7 0 0 0 3.7 2.4c-2.2 1-3.6 3-4.3 5.5Zm.4 17.5L38 81.3l-1.6-.8c-.3-.2-.3-.2-.4.9l-.6 5.5a78 78 0 0 1-5.6 20A43.8 43.8 0 0 1 19.1 122c-1.3 1.3-2 1.9-2.2 2.5-.2.6-.1 1.3 1 2 1.1.6 3.1 1.2 5.5 1.6a93.7 93.7 0 0 0 18.9.6c3.6-.2 7.2-.7 10-1 2.8-.3 4.7-.6 6.8-.6 2.1-.1 4.2 0 6.6.4 2.4.4 4.9 1.2 6.3 1.6l2 .4c.2 0 .2 0 0-1.1l-.9-5.4c-4.6.1-9-2.9-11.3-7.6l-1.7.6c-6.2 1.5-12.4-2.8-14.5-9.8-3.7-1.5-8-6.5-8.6-12-.3-4.5 1-8.8 3.5-11.8Zm14.4 4.9a111.5 111.5 0 0 0 60.3-3.4 17 17 0 0 1 1.7 7.6c0 5.9-2.8 11-6.9 13.4l-1 .5-.3 1.1a10.9 10.9 0 0 1-7.7 6.7c-1 .2-2 .3-3 .2l-1.2-.2-.8 1.3a10.8 10.8 0 0 1-15.5 1.7l-1.1 1.3A9.2 9.2 0 0 1 75 120c-4.5 1.1-9-1.4-11.2-6.1-.4-.8-.7-1.7-.9-2.6-.5.4-1.1.8-1.8 1l-1.4.5c-4.9 1.2-9.9-2.2-11.5-7.8l-.3-1.3c-9.5-2.5-10.5-14.5-5.7-20.9 2.2 1 4.6 1.9 7.1 2.7a44.7 44.7 0 0 0 7 7.5c1.2 1.1 2.5 2.1 3.5 2.8l1.8 1.2c.3.2.3.2.4.5l.9 1.5c.5.7 1.1 1.5 1.8 2s1.4.7 2.1.8c.7 0 1.4-.1 1.9-.3a3 3 0 0 0 1.2-1c.3-.4.4-.9.5-1.3.1-.4 0-.9-.1-1.3l-.6-1.2c-.3-.3-.6-.6-.9-.7l-.7-.3-.2-.2-.2-.9-.6-.9c-.3-.2-.5-.4-.9-.5h-1.3l-1 .3-.5.3-.1.1-.2.1-.8-.6-3.6-2.9c-1.5-1-2.6-2.1-3.8-3.2Zm-3.5-14.9.4-.8 1.1-1.6 1.2-1.4a9 9 0 0 0 1-1.1l.3-1-.2-.9c-.1-.2-.3-.5-.6-.6l-.8-.2c-.3 0-.5.1-1 .4l-1.6 1.3a11.5 11.5 0 0 0-2.3 3.2l-.7 1.5c-2.2-.9-4.2-2-5.9-3.1.5-3.8 2.9-7.2 5.8-8.8-4.1-1-7.2-5.4-7.2-10.7 0-3.7 1.5-7 3.9-9l-1-.5-.9-.6c-4-3.2-4.7-9.3-1.4-14.3 1.5-2.3 3.6-4 5.9-4.9l1.3-.4.3-1.3c.3-1.2.8-2.3 1.5-3.4 2.8-4.4 7.6-6.4 11.9-5.5.6.1 1.1.3 1.7.6l.8-1.5a9.4 9.4 0 0 1 13.5-3.3l1.1.9 1.2-1c1.7-1.2 3.8-1.9 6-1.9 3.7 0 7.1 2 9 5l.5.8 1.3-.2c3.6-.3 7.1.4 9.8 2.2a9.2 9.2 0 0 1 4.4 8.4l-.1 1.1 1.5.9a12 12 0 0 1 4.5 9.6 12.9 12.9 0 0 1-3.4 8.7c2.4 2 4 5.2 4 9 0 4-1.8 7.5-4.5 9.4 2.5 2.1 4.2 5.7 4.2 9.8v.3c-8.2 5.4-22.1 9-37.8 9a79.5 79.5 0 0 1-28.7-4.1Z"/></g><defs><clipPath id="a"><path fill="#fff" d="M0 0h145v146H0z"/></clipPath></defs></svg>
