<svg xmlns="http://www.w3.org/2000/svg" width="173" height="65" fill="none"><path fill="#878786" fill-rule="evenodd" d="M2.7 52.6c-1.4.4-1.2 1-.6 1.7.7.7 1.7 1.5 2.9 2A19 19 0 0 0 9 58c1.6.4 3.4.5 5.3.8 2 .2 4 .5 6.8 1.3 2.8.7 6.2 2 8.6 2.9 2.4.8 3.8 1.1 5 1.3 1.1.2 2.1.3 3.2.2l3.3-.6a9.9 9.9 0 0 0 4.3-2.8c.4-.6.4-1.3.4-2-.1-.8-.4-1.5-1-2.1a5.1 5.1 0 0 0-2.8-1.4c-1.2-.2-2.6-.2-4.6-.2-1.9 0-4.3-.3-6.6-.4l-6-.4-4.5-.7c-2.2-.3-6.1-.8-9.6-1.1-3.6-.4-6.7-.4-8.2 0Z" clip-rule="evenodd"/><path fill="#ED694A" fill-rule="evenodd" d="M15.2 10.1c-.5.2-1 .9-1.4 2-.3 1-.2 2.4.2 4.4.4 2 1.3 4.5 1.8 6.4.5 2 .7 3.3.6 4.4 0 1.2-.3 2-.5 2.8l-.5 2.3-.4 3.3a57.4 57.4 0 0 1-3.4 12c-.4 1.3-.6 1.5-1.2 1.5H7.7a20.7 20.7 0 0 0-5.9 1c-.7.2-1 .6-1 1.2 0 .5.3 1.2.8 1.7s1.2.9 2 1.2l2.6 1 1.6 1 1.7.5 3 .5a27.8 27.8 0 0 0 8-.5l3.6-.4h2.4c1 0 2.3.3 3.8.5l4.6.6a26.7 26.7 0 0 0 6.6 0c1.1-.3 2.4-.7 3.3-1.2 1-.5 1.6-1.2 2.2-2l1.6-3 1.1-3c.3-1 .5-1.7.2-2.9-.2-1.1-.9-2.7-2.7-3-1.9-.5-4.9.2-9-1.3a43.3 43.3 0 0 1-12.7-8.2c-3-3-3.7-4.9-3.7-7.3 0-2.4.5-5.3.4-8.6-.1-3.4-.8-7.3-1.7-8.5-.8-1.2-1.7.5-2.4 1.3-.8.7-1.2.7-1.7.5-.3-.2-.7-.4-1.2-.2Z" clip-rule="evenodd"/><path fill="#B94107" fill-rule="evenodd" d="m1.2 52 1.5.4 2 .1c.8 0 1.3 0 1.7-.2.5 0 .8-.3 1-.5.4-.2.7-.5 1-1l.8-1.2c.3-.3.6-.4.8-.4.2 0 .4.2.5.4 0 .2 0 .5-.3.9L8.8 52l-2 2.2c-.6.4-1 .4-1.6.3a12.1 12.1 0 0 1-3.9-2c-.4-.3-.4-.5-.1-.5Zm14.3-42c-.4.2-.6.6-.7 1.2A7.9 7.9 0 0 0 15 15l.9 2 .3 1.7c0 .6-.3 1.3-.2 2.4 0 1.1.4 2.7.6 4.2.2 1.5.2 3 .4 3.6.2.8.5 1 .8.6.4-.3.8-1 1-1.7.4-.6.8-1.2.8-1.6 0-.4-.3-.8-.8-1.5a10 10 0 0 1-1.4-2.8c-.2-1 0-1.8.2-2.5l.4-1.7c0-.4 0-.6-.3-1l-.7-1.5c-.2-.6-.3-1-.3-1.7 0-.6.3-1.4.4-1.9.1-.6.2-1 0-1.3-.4-.2-1.2-.4-1.6-.2Zm0 24.6-1.7 9a6 6 0 0 0 4.9 5.2l.2.6c1 2.7 3.6 4.2 6 3.4l.6-.3.8-.6c.1.5.3 1 .6 1.3 1.3 2.2 3.5 3.2 5.7 2.6a4.7 4.7 0 0 0 2.5-2.2l.8.5c1.2.5 2.6.7 3.9.3a5.2 5.2 0 0 0 3.2-2.9h.6c.5 0 1 0 1.4-.2 1.8-.5 3-2 3.6-3.6l.1-.5.5-.3c2-1.4 3-4 2.8-6.9a8.4 8.4 0 0 0-1.1-3.7c-4.4 2.3-28.8-2.2-35.5-1.7Z" clip-rule="evenodd"/><path fill="#fff" fill-rule="evenodd" d="M35.3 52.4c-.6 0-1.3.4-1.8.6l-1.5.3c-.5 0-1.2-.2-1.9-.6-.7-.3-1.3-.9-1.8-1.4L27 50c-.3-.3-.6-.1-1.2 0H24c-.7-.2-1.5-.5-2.2-1.3-.6-.8-1.2-2-1.8-2.7-.7-.7-1.3-1-1.8-1.6-.6-.6-1-1.4-1.3-2.3-.3-.8-.4-1.6-.3-2.3 0-.7.3-1.2.7-2.2.5-.9 1.2-2.1 1.3-3 .1-1-.5-1.6-.8-2.3-.3-.7-.3-1.5-.2-2.2 0-.7.3-1.4.6-2 .3-.6.6-1.2.9-1.5.2-.3.3-.4.2-.7 0-.2-.3-.7-.7-1.2-.4-.5-1-1-1.2-1.7a5 5 0 0 1-.2-2.5c.2-1 .6-1.8.9-2.4.2-.5.2-.7 0-1 0-.2-.4-.5-.7-.9a7 7 0 0 1-.7-4.2c.2-.7.6-1.3 1-1.9L19 8.7l1.4-1c.4-.5.6-1.1.9-1.7l1-1.4a6 6 0 0 1 1.8-1c.6-.3 1.3-.3 1.8-.4l1.4-.1 1-.7c.4-.3 1-.8 1.7-1.1.6-.4 1.2-.6 1.7-.6h1.5l1.2.6c.3 0 .7 0 1.1-.2l1.6-.4H39c.6.1 1 .3 1.5.6s1 .8 1.2 1.2c.3.4.4.6.8.6h1.4l1.7.2 1.5.6c.4.2 1 .6 1.3 1 .4.6.7 1 .8 1.7l.3 1.7.8 1.2a9 9 0 0 1 1.2 1.9c.3.7.3 1.3.3 1.8l-.2 1.6-.5 1.6-.3.9c0 .3.3.6.6 1s.5 1 .6 1.5c.1.5.1 1 0 1.6l-.1 1.5c-.1.4-.4.8-.7 1.2-.3.4-.6.8-.6 1.2 0 .5.3 1 .6 1.9.4.9.7 2.2.6 3.2 0 1.1-.5 2-.8 2.8-.3.9-.4 1.8-.3 2.5 0 .6.2 1 .5 2a8 8 0 0 1-.6 6.7c-.6.8-1.2 1.4-1.7 1.8-.4.4-.7.6-.9 1-.2.2-.2.7-.4 1-.2.4-.4.7-.8.9l-1.3.7c-.5.2-1 .5-1.5.5-.5.1-1 .1-1.3.3-.4.1-.7.4-1 .7l-1.2.7-1.7.6c-.6.1-1 .2-1.6 0-.6 0-1.3-.3-1.9-.2Z" clip-rule="evenodd"/><path fill="#C5C6C6" fill-rule="evenodd" d="M51.4 41.4c.2-.3.3-.1 0 .7-.2.8-.7 2.2-1.3 3-.6.9-1.2 1.2-1.6 1.7-.5.4-.6.8-1 1.3-.3.5-.9 1-1.3 1.3a3 3 0 0 1-1.4.6l-1.7.4c-.6.3-1 .7-1.5 1.1l-1.6 1-1.5.2-1.3-.1L36 52c-.3-.1-.5 0-1 .2-.4.3-1.1.8-1.8 1-.6.2-1.2.2-1.9 0s-1.4-.6-2-1L27.9 51l-.8-.9h-1.4c-.7 0-1.4 0-2-.2-.6-.1-1-.4-1.3-.8l-1.2-1.3c-.4-.4-.5-.9-.8-1.3L19 45.2 17.3 43c-.4-.8-.4-1.5-.4-2.4 0-.8.1-1.8.3-2.6l.6-1.6c.2-.4.5-1 .3-1.8-.1-.8-.6-2-.8-3-.1-1 .2-1.8.5-2.5l1-1.9c.3-.5.7-.9.7-1.2 0-.2-.5-.5-.8-.9-.4-.3-.6-.7-.8-1.7-.2-.9-.3-2.3-.3-3.2 0-1 .1-1.3.3-1.7.1-.4.4-.7.3-1-.1-.4-.5-.8-.9-1.4a5 5 0 0 1-.6-2.2c0-.8.1-1.7.4-2.3.2-.7.6-1.1 1-1.6.3-.6.6-1.2 1.1-1.5.6-.3 1.3-.4 1.5-.3.3.2 0 .5-.2.9-.3.4-.4.8-.5 1.2l-.3 1.3a5 5 0 0 0 .2 2.4 7.7 7.7 0 0 0 1.3 2.4c.1.3.1.3 0 .4l-.6.6a3 3 0 0 0-.4 1 4.5 4.5 0 0 0 0 2.1c0 .3.2.6.4.8.1.3.3.4.4.5v.3l-.4 1.1v1.3c0 .4.1.7.3 1l.5.5.8-.1 1.3-.3h1l.7.2.5.3-.6-.2h-.5l-.4.1c-.2 0-.4.2-.5.3l-.4.3v.1h.4a3 3 0 0 1 1 .7l.5.5.4.8.1.8-.1.8a2 2 0 0 1-.6.8 3 3 0 0 1-.7.6l-1 .3-.5.4s.4.2.5 1c0 1-.1 2.8-.3 4l-.2 2c0 .6 0 1 .2 1.3.1.4.3.8.6 1.1l.8.8.7.5.5.1.2.3c0 .3 0 .8.2 1.2.1.5.3 1 .7 1.4.3.4.6.8 1.1 1.1l1.5.6h1.3l.8-.2h.2c0 .1.1.3.4.5a5.6 5.6 0 0 0 2.3 1c.4.2.8.1 1.3 0a6 6 0 0 0 1.3-.4l.8-.6c.1-.2.1-.2.2 0l.7.4 1.4.6 1 .2c.3 0 .6 0 .8-.2l.8-.2h.5l1.2.2 1.1-.1 1-.6c.2-.3.5-.6.6-1l.4-1.3c0-.2 0-.2.2-.2l.8-.4 1.1-1c.4-.4.7-.8 1-1.4.2-.5.6-1.3.9-1.6ZM27.9 19a3 3 0 0 1-1.4.4c-1.8 0-3.2-1.7-3.2-3.7 0-.5 0-1 .2-1.4-.4.5-.7 1.4-.7 2.2 0 2 1.4 3.5 3 3.5.9 0 1.6-.4 2.1-1Zm-1.3-6.1c-.4.1-.8.2-1.3.1-1.5-.1-2.5-1.7-2.3-3.5 0-.4.1-.9.3-1.2-.4.4-.7 1-.8 1.8-.2 1.6.7 3.1 2.2 3.3.7.1 1.3-.1 2-.5Zm5.4 8.7c2.2 2.2 4.2 2.3 5.9-.4-.5.3-1 .7-1.6.9-.5.2-1 .2-1.4.2H33.1c-.2-.3-.7-.5-1-.7Zm11.1-1c2.4 2.3 4.4 2.4 6.2-.5l-1.5.9-1.7.6h-1l-.6-.3-.7-.3-.6-.3Z" clip-rule="evenodd"/><path fill="#000" fill-rule="evenodd" d="m39 22.9.4.6.8.5.7.1h.8l.7-.4.7-.6.3-.6v-.4s0-.2-.2-.2H43l-.3.1-.3.5-.5.4-.5.2a1 1 0 0 1-.6 0l-.5-.2-.4-.4-.3-.3H39l-.3.3.1.4ZM36.5 21.6c.7-.8 1-2 1-3.5 0-2.4-1.2-4.4-2.6-4.4-1.5 0-2.7 2-2.7 4.4 0 1.6.5 3 1.3 3.8-.7-.1-1.3-.3-1.8-.6.8 1 2 1.6 3.2 1.5 1.5 0 2.7-1 3.4-2.2-.4.4-1 .8-1.8 1ZM36 16c.5 0 1 1 1 2.4 0 1.3-.5 2.3-1 2.3-.4 0-.8-1-.8-2.3 0-1.3.4-2.4.8-2.4ZM47.8 20.8c.6-.8 1-2 1-3.4 0-2.4-1.2-4.3-2.6-4.3-1.5 0-2.6 2-2.6 4.3 0 1.5.5 2.9 1.2 3.7-.7-.1-1.3-.3-1.7-.6.7 1 1.8 1.5 3 1.4 1.5 0 2.8-.8 3.4-2l-1.7.9Zm-.6-5.5c.5 0 .9 1 .9 2.3 0 1.3-.4 2.4-.9 2.4s-.9-1-.9-2.4c0-1.3.4-2.3 1-2.3Z" clip-rule="evenodd"/><path fill="#C5C6C6" fill-rule="evenodd" d="m32.6 45.3-1.2-.4c-.2 0-.2 0 0 0l1.2-.4c.5-.1 1-.3 1.4-.6a5 5 0 0 0 .9-.7l.4-.6v-.2.3l-.5 1-.6.8c-.1.1-.1.1 0 .2l.5.2 1 .2h1.1l1-.5c.3-.1.6-.3.7-.5l-.3.6-.8.7c-.2.2-.5.3-1 .3-.4 0-1 .1-1.6 0-.8 0-1.6-.3-2.2-.4Z" clip-rule="evenodd"/><path fill="#ED6C35" fill-rule="evenodd" d="M19.4 25.4v1.2l-1.6.1-1.6-.1v-1.2l1.6.1 1.6-.1ZM17.9 43.8 18 45c-.7 0-1.3-.1-2-.3l-2.2-.7-.1-1.2 2.1.6 2 .4ZM16.5 39.5v1.2h-.4l-1.5-.5.3-1.2 1 .4h.6Z" clip-rule="evenodd"/><path fill="#FAC18A" fill-rule="evenodd" d="m28.6 51.4-1-1.3h-1.1c-1.4-.1-2.9-.2-4.7-.5a99 99 0 0 1-9.6-2.2l-.4 1.2 4 1 5.7 1.2c1.7.3 3.2.4 4.6.5h2.5ZM42.6 50.4l-.6 1.4a45.4 45.4 0 0 0 7.5-2l-.5-1-5.6 1.4-.8.2ZM10.3 50.5l-1 1.2-1.1.1a18 18 0 0 0-3.7 1l-1.4.6-.2.2-1-.6a9.4 9.4 0 0 1 2.3-1.3l1.6-.5a18 18 0 0 1 2.1-.4c.7-.2 1.6-.2 2.4-.3ZM47.2 54.4l1.2-1.2-5.8 1a162.9 162.9 0 0 1-28-.7c-2.4-.3-4-.7-5.7-1l-1.1 1.1a81.7 81.7 0 0 0 15 1.9c3.5.2 7.4.2 10.7.2a81.5 81.5 0 0 0 13.7-1.3Z" clip-rule="evenodd"/><path fill="#ED6C35" fill-rule="evenodd" d="m8.6 50.7 1.7-.2-1 1.2a66.9 66.9 0 0 0-2 .2h.2l1-1 .1-.2Zm-5.9 1.7c.7.2 1.4.2 2 .2H5l-.5.2-1.4.6-.2.2-1-.6.8-.6Zm13.4-33.1h.3c.5 0 1 0 1.5-.2V18l-1.5.2h-.2v.6l-.1.6Zm-1.3-5-.1-1.2h.3c.5 0 1 0 1.5-.2v1.3l-1.5.1h-.2Zm4.5 36 2.2.4c1.7.3 3.2.4 4.6.5l2.5.2-1-1.3h-1.1c-1.4-.1-2.9-.2-4.7-.5l-3-.6.1.5.4.8ZM48.1 49c-1.5.4-3.2 1-4.7 1.2l-.8.2-.6 1.4 2-.4 2.3-.6c.8-.5 1.4-1 1.8-1.8Zm-8 5.3a62.4 62.4 0 0 1-.3 0h.3ZM33 55.6c.6-.2 1.1-.7 1.6-1.1h-6.7a6 6 0 0 0 1.7 1.1H33Z" clip-rule="evenodd"/><path fill="#000" fill-rule="evenodd" d="m6.7 53.5-.6.7v.3h-.2l-.4-.3-1.2-.4-1.2-.5-.8-.4-.6-.7-.4-.5v-.4s.1-.2.3-.2l.6-.3a6 6 0 0 1 1-.3l1.4-.3a16 16 0 0 1 1.8-.3h2l1.5-.1c.2 0 .2 0 .1.2l-1.2 1.4-2 2Zm46.1-32.6 7-13c1.4-2.6 1.4-2.6 1.6-2.6l1-.3 1-.5c.3-.2.4-.5.4-.9 0-.3-.2-.7-.4-1-.2-.4-.4-.7-.8-1a2 2 0 0 0-1-.3l-1 .1c0 .1 0 .1-.2 0l-.2-.2a.6.6 0 0 0-.5 0c-.2 0-.3.2-.3.4l.1 1 .3.9-1.2 2.7-6.5 12.4-1-1.4a7 7 0 0 0 1.2-3.9c0-2.1-1-4-2.4-5.2.1-1.7-.7-3.3-2.3-4.3a8.2 8.2 0 0 0-5-1.1 5.6 5.6 0 0 0-8-1.7 5 5 0 0 0-2.8-.9c-1.8 0-3.4 1-4.4 2.6a6 6 0 0 0-6.3 3c-.4.5-.7 1.2-.9 1.7a6.7 6.7 0 0 0-3 2.5c-.2 0-.4 0-.7-.2l-1-.5h-.7c-.2 0-.3 0-.4.2l-.1.4-.4.5-.5.7-.3.7-.2.6-.2 1.3c0 .7.2 1.5.3 2 .1.7.3 1 .5 1.7l.8 2.3.8 2.6.3 1.7.1 1.8v1.6l-.1.5h-.1l-.4.3c-.2.2-.3.3-.3 1l-.2 2.9v1.4l.1.6v.7a54.3 54.3 0 0 1-1.6 8.5c-.5 1.9-1.3 3.6-1.6 4.5-.4.9-.4.9-.6.9H9.4a26.3 26.3 0 0 0-7.6 1c-.6.2-1 .4-1.3.7-.3.3-.5.6-.5 1 0 .5.1.9.3 1.2l1 1 1.2 1L4 55l1.2.3.7.4.8.7 1.6.6 2 .4 3.5.3a74 74 0 0 0 11.1-.8h1.8c.6 0 1.2 0 2 .2l2.2.5 1.5.2c.3 0 .2 0 .2.8a47.3 47.3 0 0 0-.3 4c0 .2.2.5.5.6l.7.5.9.2.5-.2c.2-.1.2-.3.3-.4v-.5l-.3-.4c0-.2-.2-.3-.4-.4l-.4-.2-.6-.1v-.8l.2-1v-1.8l.2-.1h.7l1.2.2H37c.1 0 .1 0 0 .1v.7l-.2.8-.1.7-.2.6v.8l.7.5a4.9 4.9 0 0 0 1.6.6h.5l.5-.2.2-.4v-.5l-.4-.4a2 2 0 0 0-.6-.4l-.8-.2H38v-.2l.2-.8.1-1 .1-.6.3-.2h1.1l1.2-.2 1.2-.3c.5 0 1-.1 1.4-.3l1.3-.5L46 56a8.9 8.9 0 0 0 3.7-5.3l.5-1.5.4-1.9.2-1.5.1-1c1-1.4 1.5-3.1 1.5-5a10 10 0 0 0-.8-3.8h.1c.5-.2.6-.4.7-1L53 33v-2c0-.5 0-1-.2-1.2v-.3c0-1.8-.8-3.4-1.9-4.3a5 5 0 0 0 2-4.2s0 .2 0 0ZM38 53.3l1.6-.1c1.3-.3 2.5-1.1 3.3-2.2h1.7c2-.5 3.5-2 4.2-3.7l.7-.6a241.8 241.8 0 0 1-1.6 5.4c-.4.8-1 1.5-1.5 2.1-.5.6-1 1-1.7 1.3l-2 1a16.2 16.2 0 0 1-3.7.6h-.7v-1.8l-.1-.9-.2-1.1Zm-1.3-.2.3 1.3.1 1.2V57c0 .3 0 .3-.3.3h-1.4L34 57c-.3 0-.3 0-.3-.3l-.1-1-.2-1.4-.1-.6c.8-.2 1.5-.6 2.1-1.3.4.3.8.5 1.3.6Zm-20-31.2-1.3-3a32 32 0 0 1-1-3l-.3-2.3c0-.6 0-1.2.3-1.7l.7-1.2c.1-.2.1-.2.2-.1l.5.3.9.2c-1 2.4-.6 5.1 1.2 6.6-.8.9-1.3 2.2-1.3 3.7v.5Zm.7 6.6-.1-4.2.4.7c.5.5 1 .9 1.7 1-1 .5-1.6 1.3-2 2.5Zm.2 7.6-1-.4-.8-.4-.1.4a58.9 58.9 0 0 1-1 6.1A39 39 0 0 1 13 47a18.3 18.3 0 0 1-4.7 6.6c-.6.6-.9.8-1 1.1 0 .3 0 .6.5.9a7 7 0 0 0 2.4.6l3.7.4h4.7L23 56l3-.3c.9 0 1.8 0 2.8.2l2.8.7 1 .2v-.5c-.2-.4-.3-1.4-.5-2.3-2 0-4-1.3-4.9-3.4l-.7.3c-2.7.7-5.5-1.2-6.4-4.3a6.8 6.8 0 0 1-3.8-5.3c-.4-2 .2-3.9 1.3-5.2Zm6.4 2.2a47.5 47.5 0 0 0 26.5-1.5c.5 1 .8 2.1.8 3.4 0 2.5-1.3 4.8-3 5.8l-.5.3-.2.5a4.7 4.7 0 0 1-4.6 3h-.6a4.7 4.7 0 0 1-6.6 1.7l-.6-.4-.5.6a4 4 0 0 1-1.9 1c-2 .5-3.9-.6-5-2.6l-.4-1.2-.7.5-.6.2c-2.2.5-4.4-1-5-3.5l-.2-.5c-4.2-1.1-4.6-6.4-2.5-9.2l3.1 1.1a26.6 26.6 0 0 0 4.6 4.6l.8.5.2.2.4.7.8.9.9.3.8-.1.5-.5.3-.6V43l-.4-.5c0-.2-.2-.3-.3-.4l-.4-.1v-.1l-.2-.4-.3-.4a.6.6 0 0 0-.4-.2h-.6l-.4.2-.3.1-.1.1-.3-.2-1.6-1.3-1.5-1.5Zm-1.5-6.6.1-.3.5-.7.5-.6.5-.5v-.8l-.3-.3a1 1 0 0 0-.4 0H23l-.7.6-.7.8-.3.6-.4.6-2.6-1.3a5.4 5.4 0 0 1 2.6-3.9c-1.8-.4-3.2-2.4-3.2-4.7 0-1.6.7-3 1.7-4-.1 0-.3 0-.4-.2-.2 0-.3-.2-.4-.3-1.7-1.4-2-4-.6-6.3.7-1 1.6-1.7 2.6-2l.6-.3.1-.6L22 6a5 5 0 0 1 5.2-2.4l.7.3.4-.7A4.3 4.3 0 0 1 31.9 1c.8 0 1.6.2 2.3.7.2 0 .3.2.4.4l.6-.5c.7-.5 1.6-.8 2.6-.8 1.6 0 3 .9 4 2.2 0 .1 0 .3.2.4h.5c1.6-.2 3.2.1 4.4 1a4 4 0 0 1 1.9 3.7v.4l.6.5c1.2.9 2 2.4 2 4.2 0 1.2-.3 2.3-1 3.2-.1.2-.2.5-.5.7a5 5 0 0 1 1.8 4 5 5 0 0 1-2 4.1c1 1 1.8 2.5 1.8 4.3v.2a39.1 39.1 0 0 1-29 2ZM75.1 39.4c0 .7.6 1.4 1.4 1.4.8 0 1.5-.6 1.5-1.4v-5c0-1.2 1-2.2 2.1-2.2 1.2 0 2.1 1 2.1 2.2v5c0 .7.6 1.4 1.5 1.4.7 0 1.4-.6 1.4-1.4v-5a5 5 0 0 0-8.5-3.5 5 5 0 0 0-5.7-1c-.3-.4-.8-.7-1.3-.7-1 0-1.6.7-1.6 1.6 0 .6.2 1 .7 1.3-.3.7-.5 1.5-.5 2.2v5c0 .8.6 1.4 1.4 1.4.8 0 1.5-.6 1.5-1.4v-5c0-1.2.9-2.1 2-2.1 1.3 0 2.2 1 2.2 2.1v5h-.2ZM86 35c0 3.1 2.6 5.7 5.7 5.7a5.7 5.7 0 0 0 0-11.5 5.7 5.7 0 0 0-5.7 5.8Zm2.8 0a2.8 2.8 0 1 1 5.6 0 2.8 2.8 0 1 1-5.6 0Zm9.5-4.3c0 .6.4 1.2 1 1.4-.5.9-.8 1.8-.8 2.9v4.3c0 .7.7 1.4 1.5 1.4.7 0 1.4-.6 1.4-1.4V35a2.8 2.8 0 1 1 5.6 0v4.3c0 .7.6 1.4 1.4 1.4.8 0 1.5-.6 1.5-1.4V35c0-3.2-2.6-5.8-5.7-5.8-1 0-2 .4-2.8.8-.3-.6-.8-1-1.4-1-1 .1-1.7.8-1.7 1.7Zm12.4 4.3c0 3.1 2.5 5.7 5.7 5.7a5.7 5.7 0 0 0 0-11.5 5.7 5.7 0 0 0-5.7 5.8Zm2.8 0a2.8 2.8 0 1 1 5.6 0c0 1.6-1.2 2.8-2.8 2.8-1.6 0-2.8-1.2-2.8-2.8Zm10.8 2.9c-.8 0-1.5.6-1.5 1.4 0 .8.7 1.5 1.5 1.5h4.9c2 0 3.6-1.6 3.6-3.6s-1.6-3.6-3.6-3.6h-2.8c-.4 0-.7-.3-.7-.7 0-.4.3-.7.7-.7h4.2c.8 0 1.5-.6 1.5-1.4 0-.8-.7-1.5-1.5-1.5h-4.2c-2 0-3.6 1.6-3.6 3.6s1.6 3.6 3.6 3.6h2.8c.4 0 .7.3.7.7 0 .4-.3.7-.7.7h-5Zm20.6-7.2c0-.8-.6-1.5-1.4-1.5-.8 0-1.5.7-1.5 1.5v4.3a2.8 2.8 0 1 1-5.6 0v-4.3c0-.8-.6-1.5-1.4-1.5-.7 0-1.4.7-1.4 1.5v4.3c0 3.1 2.5 5.7 5.6 5.7 1 0 2-.2 2.8-.7.3.5.9.9 1.5.9.9 0 1.5-.7 1.5-1.6 0-.6-.3-1.2-.9-1.4.4-1 .8-1.8.8-2.9v-4.3Zm2.8 7.2c-.7 0-1.4.6-1.4 1.4 0 .8.6 1.5 1.4 1.5h5c1.9 0 3.5-1.6 3.5-3.6s-1.6-3.6-3.6-3.6h-2.8c-.4 0-.6-.3-.6-.7 0-.4.3-.7.6-.7h4.3c.7 0 1.4-.6 1.4-1.4 0-.8-.6-1.5-1.4-1.5h-4.3c-1.9 0-3.5 1.6-3.5 3.6s1.5 3.6 3.5 3.6h2.8c.5 0 .7.3.7.7 0 .4-.3.7-.7.7h-4.9Zm21-3c0-3-2.5-5.7-5.6-5.7-1.1 0-2 .3-2.8.8v-3.7c0-.7-.7-1.4-1.5-1.4-.7 0-1.4.6-1.4 1.4v12.9c0 .8.6 1.4 1.4 1.4.8 0 1.5-.6 1.5-1.4V35a2.8 2.8 0 1 1 5.6 0v4.3c0 .8.6 1.4 1.4 1.4.8 0 1.4-.6 1.4-1.4v-4.2Zm4.3-4.2c0-.8-.6-1.5-1.5-1.5-.7 0-1.4.7-1.4 1.5v8.6c0 .7.6 1.4 1.4 1.4.8 0 1.5-.6 1.5-1.4v-8.6Zm-3-3.7c0 .9.7 1.6 1.5 1.6 1 0 1.6-.7 1.6-1.6 0-.9-.7-1.6-1.6-1.6-.8 0-1.5.7-1.5 1.6Z" clip-rule="evenodd"/></svg>
