<svg xmlns="http://www.w3.org/2000/svg" width="31" height="30" fill="none"><path fill="#252525" d="M21.5 12.4c-3 0-5.5 1-6.8 2.5-1.3-1.5-3.9-2.5-6.9-2.5-4.4 0-7.8 2.1-7.8 4.9V25C0 28 3.4 30 7.8 30c3 0 5.6-1 6.9-2.5C16 29 18.5 30 21.5 30c4.4 0 7.8-2.1 7.8-4.9v-7.8c0-2.8-3.4-5-7.8-5ZM13.7 25c0 1.4-2.4 3-5.9 3C4.4 28 2 26.4 2 25v-4.6c1.4 1 3.5 1.7 5.8 1.7 2.4 0 4.5-.6 5.9-1.7v4.6Zm-5.9-4.9c-3.4 0-5.8-1.5-5.8-3 0-1.3 2.4-2.9 5.8-2.9 3.5 0 5.9 1.6 5.9 3s-2.4 3-5.9 3Zm19.6 5c0 1.3-2.4 2.8-5.9 2.8-3.4 0-5.8-1.5-5.8-2.9v-4.6c1.4 1 3.5 1.7 5.8 1.7 2.4 0 4.5-.6 5.9-1.7v4.6Zm-5.9-5c-3.4 0-5.8-1.5-5.8-3 0-1.3 2.4-2.9 5.8-2.9 3.5 0 5.9 1.6 5.9 3s-2.4 3-5.9 3Z"/><path fill="#252525" d="M8.8 16.3h-2a1 1 0 0 0 0 2h2a1 1 0 0 0 0-2ZM22.5 16.3h-2a1 1 0 0 0 0 2h2a1 1 0 0 0 0-2ZM30 .8a1 1 0 0 0-1.2-.8L.8 5.2a1 1 0 1 0 .4 2l28-5.3c.5 0 .9-.6.8-1.1ZM30 6.7c0-.5-.6-.9-1-.8L.8 9a1 1 0 1 0 .2 2l28-3.3c.6 0 1-.5.9-1Z"/></svg>