<svg xmlns="http://www.w3.org/2000/svg" width="43" height="25" fill="none"><path fill="#252525" d="M5.2 17.7c0 .3.3.6.6.6 1 0 1.7.7 1.7 1.7 0 .3.3.6.6.6h7.6a9.6 9.6 0 0 0 11.6 0h7.6c.3 0 .6-.3.6-.6 0-1 .7-1.7 1.7-1.7.3 0 .6-.3.6-.6v-4.2a.6.6 0 1 0-1.2 0v3.6a3 3 0 0 0-2.3 2.3h-5.7a9.6 9.6 0 0 0 0-13h5.7a3 3 0 0 0 2.3 2.2v2.5a.6.6 0 1 0 1.2 0v-3c0-.3-.3-.6-.6-.6-1 0-1.7-.8-1.7-1.7 0-.3-.3-.6-.6-.6h-7.6a9.6 9.6 0 0 0-11.6 0H8.1c-.3 0-.6.3-.6.6 0 1-.7 1.7-1.7 1.7-.3 0-.6.3-.6.6v9.6Zm1.2-9a3 3 0 0 0 2.3-2.3h5.7a9.6 9.6 0 0 0-2.2 8.9.6.6 0 1 0 1.2-.3 8.4 8.4 0 0 1 8.1-10.5A8.4 8.4 0 1 1 14.2 17a.6.6 0 1 0-1 .6c.3.6.7 1.2 1.2 1.7H8.7A3 3 0 0 0 6.4 17V8.6Z"/><path stroke="#252525" stroke-width=".4" d="M5.2 17.7c0 .3.3.6.6.6 1 0 1.7.7 1.7 1.7 0 .3.3.6.6.6h7.6a9.6 9.6 0 0 0 11.6 0h7.6c.3 0 .6-.3.6-.6 0-1 .7-1.7 1.7-1.7.3 0 .6-.3.6-.6v-4.2a.6.6 0 1 0-1.2 0v3.6a3 3 0 0 0-2.3 2.3h-5.7a9.6 9.6 0 0 0 0-13h5.7a3 3 0 0 0 2.3 2.2v2.5a.6.6 0 1 0 1.2 0v-3c0-.3-.3-.6-.6-.6-1 0-1.7-.8-1.7-1.7 0-.3-.3-.6-.6-.6h-7.6a9.6 9.6 0 0 0-11.6 0H8.1c-.3 0-.6.3-.6.6 0 1-.7 1.7-1.7 1.7-.3 0-.6.3-.6.6v9.6Zm1.2-9a3 3 0 0 0 2.3-2.3h5.7a9.6 9.6 0 0 0-2.2 8.9.6.6 0 1 0 1.2-.3 8.4 8.4 0 0 1 8.1-10.5A8.4 8.4 0 1 1 14.2 17a.6.6 0 1 0-1 .6c.3.6.7 1.2 1.2 1.7H8.7A3 3 0 0 0 6.4 17V8.6Z"/><path fill="#252525" d="M18.7 17.3c.8.6 1.4.7 2.1.8v.7a.6.6 0 1 0 1.2 0V18a3.2 3.2 0 0 0 2.6-2.6c.2-1.4-.5-2.6-2-3.1L22 12V8.8l1 .5a.6.6 0 0 0 .7-1s-.6-.5-1.7-.7V7a.6.6 0 1 0-1.2 0v.8a2.6 2.6 0 0 0-2.1 2.1c-.2.9.1 1.8.8 2.3.3.2.7.5 1.3.7v4c-.5 0-.9 0-1.5-.5a.6.6 0 1 0-.6 1Zm1.5-6.2c-.3-.2-.4-.6-.3-1 0-.5.4-1 1-1.2v2.6l-.7-.4Zm2 2.3c1.3.4 1.2 1.5 1.2 1.8a2 2 0 0 1-1.4 1.6v-3.5l.3.1Z"/><path fill="#252525" d="M40.1 1h-33a.6.6 0 1 0 0 1.2h33c.4 0 .7.3.7.7v20c0 .4-.3.7-.7.7H3a.7.7 0 0 1-.7-.7v-20c0-.4.3-.7.7-.7h1.7a.6.6 0 1 0 0-1.2H3C1.9 1 1 1.8 1 2.9v20c0 1 .8 1.9 1.9 1.9H40c1 0 1.9-.9 1.9-2v-20c0-1-.8-1.8-1.9-1.8Z"/><path stroke="#252525" stroke-width=".4" d="M40.1 1h-33a.6.6 0 1 0 0 1.2h33c.4 0 .7.3.7.7v20c0 .4-.3.7-.7.7H3a.7.7 0 0 1-.7-.7v-20c0-.4.3-.7.7-.7h1.7a.6.6 0 1 0 0-1.2H3C1.9 1 1 1.8 1 2.9v20c0 1 .8 1.9 1.9 1.9H40c1 0 1.9-.9 1.9-2v-20c0-1-.8-1.8-1.9-1.8Z"/></svg>