<svg xmlns="http://www.w3.org/2000/svg" width="49" height="54" fill="none"><path fill="#000" d="M16.5 7.7 12 5 9.6.5C9.2-.2 8-.2 7.7.5L5.3 5.1.8 7.7a1 1 0 0 0-.6 1c0 .3.2.7.6.9L5.3 12l2.4 4.6c.2.4.6.6 1 .6a1 1 0 0 0 .9-.6l2.4-4.6 4.5-2.5c.4-.2.6-.6.6-1a1 1 0 0 0-.6-1Zm-5.7 2.7a1 1 0 0 0-.5.4L8.7 14 7 10.8a1 1 0 0 0-.4-.4L3.5 8.6l3-1.7.5-.4 1.7-3.2 1.6 3.2.5.4 3 1.7-3 1.8ZM31.3 37l-4.5-2.6-2.5-4.6c-.3-.7-1.5-.7-1.8 0L20 34.4 15.5 37a1 1 0 0 0-.5 1c0 .4.2.8.5 1l4.5 2.5 2.5 4.6c.2.3.5.6.9.6a1 1 0 0 0 1-.6l2.4-4.6 4.5-2.6c.3-.1.5-.5.5-1a1 1 0 0 0-.5-.9Zm-5.8 2.6a1 1 0 0 0-.4.5l-1.7 3.1-1.7-3.1a1 1 0 0 0-.4-.5l-3-1.7 3-1.7.4-.5 1.7-3.1 1.7 3.1c0 .2.2.4.4.5l3 1.7-3 1.7ZM48 46.6 45 45l-1.7-3.2c-.4-.7-1.5-.7-1.9 0L39.8 45l-3.1 1.7a1 1 0 0 0-.6 1c0 .4.2.8.6 1l3 1.7 1.7 3.1c.2.4.6.6 1 .6a1 1 0 0 0 .9-.6l1.7-3.1 3-1.8c.4-.1.6-.5.6-1a1 1 0 0 0-.6-.9Zm-4.3 2a1 1 0 0 0-.4.4l-1 1.7-.8-1.7a1 1 0 0 0-.5-.5l-1.6-1 1.6-.8.5-.5.9-1.7.9 1.7c0 .2.2.4.4.5l1.6.9-1.6 1ZM33 19.7c0-.6-.5-1-1-1h-.7l.4-.6c.5-.4.5-1.1 0-1.6-.4-.4-1-.4-1.5 0l-.5.5v-.7c0-.6-.5-1-1-1a1 1 0 0 0-1.1 1v.7l-.4-.5a1 1 0 0 0-1.4 0c-.4.4-.4 1.2 0 1.6l.4.5h-.6a1 1 0 0 0-1 1c0 .7.4 1.2 1 1.2h.6l-.4.4a1 1 0 0 0 0 1.5c.2.2.5.3.7.3.3 0 .5-.1.7-.4l.4-.4v.6c0 .6.5 1.1 1 1.1.6 0 1.1-.5 1.1-1v-.7l.5.4c.2.3.5.4.8.4.2 0 .5-.1.7-.4.4-.4.5-1 0-1.4l-.4-.4h.6c.6 0 1-.5 1-1.1ZM6.7 40.3H5.5V39c0-.6-.5-1.1-1-1.1a1 1 0 0 0-1.1 1v1.3h-1a1 1 0 0 0-1 1c0 .7.5 1.1 1 1.1h1v1c0 .6.5 1.1 1 1.1.6 0 1-.5 1-1v-1h1.3c.5 0 1-.5 1-1.1 0-.6-.5-1.1-1-1.1ZM41.3 3.9l.9-.9c.4-.4.4-1.1 0-1.5a1 1 0 0 0-1.5 0l-.9.8-.8-.8a1 1 0 0 0-1.5 0c-.4.4-.4 1 0 1.5l.8.9-.8.8c-.4.4-.4 1.1 0 1.6a1 1 0 0 0 1.5 0l.8-1 .9 1a1 1 0 0 0 1.5 0c.4-.5.4-1.2 0-1.6l-.9-.8Z"/></svg>
