<svg xmlns="http://www.w3.org/2000/svg" width="48" height="54" fill="none"><path fill="#000" d="M5 30.2c-.5 0-1 .4-1 1v3.6c0 .5.5.9 1 .9s.9-.4.9-1v-3.6c0-.5-.4-.9-1-.9ZM8.5 32c-.5 0-.9.4-.9 1v3.6c0 .5.4 1 1 1 .4 0 .8-.5.8-1V33c0-.5-.4-.9-.9-.9ZM41 37a.9.9 0 0 0-1.3.2 1 1 0 0 0 .3 1.3c2.4 1.7 3 5 1.4 7.6a5.2 5.2 0 0 1-7.4 1.5 5.6 5.6 0 0 1-1.4-7.7c1-1.5 2.6-2.4 4.4-2.4.5 0 .9-.4.9-.9s-.4-1-1-1c-3.8 0-7 3.4-7 7.4s3.2 7.3 7 7.3c4 0 7.2-3.2 7.2-7.3 0-2.4-1.2-4.7-3.1-6Z"/><path fill="#000" d="M47.2 40c-.8-3.1-3-5.6-5.8-7V12.8a1 1 0 0 0-.4-.8L21.4.1a.9.9 0 0 0-.9 0L1 12.1H.8l-.2.2-.2.4V36.6c0 .3.2.6.5.8l19.5 11.9h.9l5.3-3.2c1.7 5.8 7.6 9.1 13.2 7.5A11 11 0 0 0 47.2 40ZM21 2l4.6 2.8L18.7 9a1 1 0 0 0-.3 1.2c.3.4.8.6 1.2.3L27.3 6 32 8.7 14.2 19.5l-4.7-2.8 7.5-4.5c.4-.3.5-.9.3-1.3a.9.9 0 0 0-1.2-.3l-8.3 5-4.6-2.8L21 2Zm-7.7 19v6.2l-4.6-2.8v-6.1l4.6 2.8Zm13.4 19.2a11.2 11.2 0 0 0-.3 4l-4.5 2.7v-3c0-.5-.4-.9-1-.9-.4 0-.8.4-.8 1v2.9L2.3 36.1V14.4l4.6 2.8V25c0 .3.2.6.4.8l6.4 3.9.5.1c.4 0 .8-.4.8-.9v-6.6l5 3v15c0 .6.5 1 1 1s.9-.4.9-1v-15l16-9.8c.5-.2.6-.8.4-1.2a.9.9 0 0 0-1.2-.3L21 23.6l-5-3L33.6 9.7l6 3.6v19.1c-5.7-1.5-11.5 2-13 7.8Zm10.3 12a9 9 0 0 1-9-9.2c0-5 4-9.1 9-9.1a9 9 0 0 1 8.9 9.1c0 5-4 9.2-9 9.2Z"/><path fill="#000" d="M40.3 40.5a.9.9 0 0 0-1.3 0L35.6 44l-.7-.7a.9.9 0 0 0-1.2 0 1 1 0 0 0 0 1.3l1.3 1.3c.4.4 1 .4 1.3 0l4-4c.3-.4.3-1 0-1.4Z"/></svg>
