<svg xmlns="http://www.w3.org/2000/svg" width="54" height="34" fill="none">
<path fill="#000" d="M15.2 19.6c-.5 0-.8.4-.8.8v1.4c0 .4.3.8.8.8.4 0 .7-.4.7-.8v-1.4c0-.4-.3-.8-.7-.8ZM29.5 19.6c-.4 0-.7.4-.7.8v1.4c0 .4.3.8.7.8.5 0 .8-.4.8-.8v-1.4c0-.4-.3-.8-.8-.8ZM25 21.2a.8.8 0 0 0-1 0 2 2 0 0 1-1.6.8 2 2 0 0 1-1.6-.8.8.8 0 0 0-1.1 0c-.3.3-.4.8-.1 1 .7.9 1.7 1.3 2.8 1.3 1 0 2-.4 2.7-1.2.3-.3.3-.8 0-1.1Z"/>
<path fill="#000" d="M52.8 13.6a7.1 7.1 0 0 0-4.7-3.9 7.3 7.3 0 0 0-4.5.2c-.9-2.4-2.7-4.4-5.3-5.9a25.7 25.7 0 0 0-9.1-2.6 54.8 54.8 0 0 0-13.7 0c-3.6.5-6.7 1.4-9 2.6-5 2.7-6 6.7-6 9.5 0 .6.2 1.1.6 1.5l1.4.7c-.7 1.4-1 3-1 4.7 0 3.7 1.4 6.6 4.2 8.7.3.2.8.2 1-.2.3-.4.2-.8-.1-1.1A8.7 8.7 0 0 1 3 20.4c0-1.7.4-3.2 1.1-4.5l2-.1c2.9-.2 5.7-.7 8.4-1a68.2 68.2 0 0 1 15.7 0l7.6 1H40a8.3 8.3 0 0 0 1.7 4.8c0 4-2 6.8-5.9 8.6a32.8 32.8 0 0 1-13.4 2.2c-5.6 0-10-.7-13.2-2a.8.8 0 0 0-1 .3c-.2.4 0 .9.4 1A35 35 0 0 0 22.4 33c5.9 0 10.6-.8 14-2.4 4-1.8 6.2-4.7 6.7-8.5l1.2.6c.7.3 1.5 0 2-.6.9-1.4 1.2-3.4.8-5.4 2 .3 3.8 0 5.2-1.1.6-.5.8-1.3.5-2Zm-50.6.2-.1-.3c0-2.9 1.1-5.2 3.4-7-.6 2.6-.5 5.2.2 7.7-1.9.2-3.1 0-3.5-.4Zm12-10.6c-.9 2-1.4 4.2-1.4 6.4 0 1.3.2 2.5.6 3.7l-5.1.7-1 .1a14.2 14.2 0 0 1 .1-8.8 23 23 0 0 1 6.8-2.1Zm7.2 9.5a57.8 57.8 0 0 0-6.4.5c-1-2.8-.7-5.9.3-8.5l.8-1.8c1.7-.2 3.5-.3 5.5-.3v10l-.2.1Zm8.8-1-.4 1.4a73.1 73.1 0 0 0-6.7-.4V2.6c2 0 3.8.1 5.5.3.6 1 2.4 4.7 1.6 8.7Zm7.2 2.4H37l-5-.7h-.7c1.4-4.2.1-8.2-.8-10.2 2.7.4 5 1.2 6.8 2.1.5 1.3.7 2.7.8 4a14 14 0 0 1-.7 4.8Zm4.1-2.8c-.7.8-1.2 1.8-1.4 3H39a15.6 15.6 0 0 0 .3-7.7 8.6 8.6 0 0 1 3 4l-.8.7Zm10 3a5.4 5.4 0 0 1-5.3.6c-.6-.3-1.2.4-1 1l.3.5c.5 1.8.3 3.6-.6 4.8-2.7-1-4-4.8-3-7.5.9-2.4 3.6-3 5.8-2.4 1.7.4 3.1 1.5 3.7 3Z"/>
<path stroke="#000" stroke-width=".6" d="M52.8 13.6a7.1 7.1 0 0 0-4.7-3.9 7.3 7.3 0 0 0-4.5.2c-.9-2.4-2.7-4.4-5.3-5.9a25.7 25.7 0 0 0-9.1-2.6 54.8 54.8 0 0 0-13.7 0c-3.6.5-6.7 1.4-9 2.6-5 2.7-6 6.7-6 9.5 0 .6.2 1.1.6 1.5l1.4.7c-.7 1.4-1 3-1 4.7 0 3.7 1.4 6.6 4.2 8.7.3.2.8.2 1-.2.3-.4.2-.8-.1-1.1A8.7 8.7 0 0 1 3 20.4c0-1.7.4-3.2 1.1-4.5l2-.1c2.9-.2 5.7-.7 8.4-1a68.2 68.2 0 0 1 15.7 0l7.6 1H40a8.3 8.3 0 0 0 1.7 4.8c0 4-2 6.8-5.9 8.6a32.8 32.8 0 0 1-13.4 2.2c-5.6 0-10-.7-13.2-2a.8.8 0 0 0-1 .3c-.2.4 0 .9.4 1A35 35 0 0 0 22.4 33c5.9 0 10.6-.8 14-2.4 4-1.8 6.2-4.7 6.7-8.5l1.2.6c.7.3 1.5 0 2-.6.9-1.4 1.2-3.4.8-5.4 2 .3 3.8 0 5.2-1.1.6-.5.8-1.3.5-2Zm-50.6.2-.1-.3c0-2.9 1.1-5.2 3.4-7-.6 2.6-.5 5.2.2 7.7-1.9.2-3.1 0-3.5-.4Zm12-10.6c-.9 2-1.4 4.2-1.4 6.4 0 1.3.2 2.5.6 3.7l-5.1.7-1 .1a14.2 14.2 0 0 1 .1-8.8 23 23 0 0 1 6.8-2.1Zm7.2 9.5a57.8 57.8 0 0 0-6.4.5c-1-2.8-.7-5.9.3-8.5l.8-1.8c1.7-.2 3.5-.3 5.5-.3v10l-.2.1Zm8.8-1-.4 1.4a73.1 73.1 0 0 0-6.7-.4V2.6c2 0 3.8.1 5.5.3.6 1 2.4 4.7 1.6 8.7Zm7.2 2.4H37l-5-.7h-.7c1.4-4.2.1-8.2-.8-10.2 2.7.4 5 1.2 6.8 2.1.5 1.3.7 2.7.8 4a14 14 0 0 1-.7 4.8Zm4.1-2.8c-.7.8-1.2 1.8-1.4 3H39a15.6 15.6 0 0 0 .3-7.7 8.6 8.6 0 0 1 3 4l-.8.7Zm10 3a5.4 5.4 0 0 1-5.3.6c-.6-.3-1.2.4-1 1l.3.5c.5 1.8.3 3.6-.6 4.8-2.7-1-4-4.8-3-7.5.9-2.4 3.6-3 5.8-2.4 1.7.4 3.1 1.5 3.7 3Z"/>
</svg>
