<svg xmlns="http://www.w3.org/2000/svg" width="38" height="38" fill="none"><g clip-path="url(#a)"><path fill="#252525" d="M21.6 25.4h-1.8v-1.9a.8.8 0 1 0-1.6 0v2h-1.8a.8.8 0 0 0 0 1.5h1.8v1.8a.8.8 0 0 0 1.6 0V27h1.8a.8.8 0 1 0 0-1.6Z"/><path fill="#252525" d="M34.1 11.1h-2.4l-7.3-7.3a2 2 0 0 0-2.7 2.7l4.6 4.6H11.7l4.6-4.6c.8-.8.8-2 0-2.7a2 2 0 0 0-2.7 0L6.3 11H3.9A3.9 3.9 0 0 0 0 15v.3c0 2 1.4 3.6 3.3 3.8l1.9 12.4c.3 2 1.9 3.3 3.8 3.3h20c2 0 3.5-1.4 3.8-3.3l1.9-12.4a3.9 3.9 0 0 0 3.3-3.8V15a3.8 3.8 0 0 0-3.9-3.9ZM22.8 5.4l-.2-.3s0-.2.2-.2c.1-.2.4-.2.5 0l6.3 6.2h-1.1l-5.7-5.7Zm-8.1-.5a.4.4 0 0 1 .7.2c0 .1 0 .2-.2.3l-5.7 5.7h-1L14.6 5Zm16.6 26.4c-.2 1.1-1.1 2-2.3 2H9c-1.2 0-2.1-.9-2.3-2L4.9 19.2h28.2l-1.8 12.1Zm5.2-16c0 1.3-1 2.3-2.4 2.3H4c-1.3 0-2.4-1-2.4-2.3V15c0-1.3 1-2.3 2.4-2.3H34c1.3 0 2.4 1 2.4 2.3v.3Z"/><path stroke="#252525" stroke-width=".4" d="M34.1 11.1h-2.4l-7.3-7.3a2 2 0 0 0-2.7 2.7l4.6 4.6H11.7l4.6-4.6c.8-.8.8-2 0-2.7a2 2 0 0 0-2.7 0L6.3 11H3.9A3.9 3.9 0 0 0 0 15v.3c0 2 1.4 3.6 3.3 3.8l1.9 12.4c.3 2 1.9 3.3 3.8 3.3h20c2 0 3.5-1.4 3.8-3.3l1.9-12.4a3.9 3.9 0 0 0 3.3-3.8V15a3.8 3.8 0 0 0-3.9-3.9ZM22.8 5.4l-.2-.3s0-.2.2-.2c.1-.2.4-.2.5 0l6.3 6.2h-1.1l-5.7-5.7Zm-8.1-.5a.4.4 0 0 1 .7.2c0 .1 0 .2-.2.3l-5.7 5.7h-1L14.6 5Zm16.6 26.4c-.2 1.1-1.1 2-2.3 2H9c-1.2 0-2.1-.9-2.3-2L4.9 19.2h28.2l-1.8 12.1Zm5.2-16c0 1.3-1 2.3-2.4 2.3H4c-1.3 0-2.4-1-2.4-2.3V15c0-1.3 1-2.3 2.4-2.3H34c1.3 0 2.4 1 2.4 2.3v.3Z"/></g><defs><clipPath id="a"><path fill="#fff" d="M0 0h38v38H0z"/></clipPath></defs></svg>