<svg xmlns="http://www.w3.org/2000/svg" width="277" height="180" fill="none"><path fill="#868685" fill-rule="evenodd" d="M154.7 165.7c-67 0-121.4 3.2-121.4 7.1 0 4 54.4 7.2 121.4 7.2s121.4-3.2 121.4-7.2-54.3-7.1-121.4-7.1Z" clip-rule="evenodd"/><path fill="#1A1A18" fill-rule="evenodd" d="m157.4 55.8-.1-.4c-.1-.4 0-.8.3-1 .3 0 .6.1.7.5l.2.4c1 3.4 3.7 7.5 7.3 11.1 4 4 8.2 6.6 11.6 7.3.7-.7 2-1 3.6-.9 2 .3 3.7 1.6 3.5 2.9-.1 1.3-2 2-4 1.8-2-.3-3.5-1.4-3.6-2.6-3.4-.5-7.9-3.2-12-7.3a29.5 29.5 0 0 1-7.5-11.8Z" clip-rule="evenodd"/><path fill="#010202" d="M100.8 175.5a22.5 22.5 0 0 0 22.1-22.9c0-12.6-9.9-22.9-22-22.9a22.5 22.5 0 0 0-22.2 23c0 12.6 9.9 22.8 22.1 22.8Z"/><path fill="#FBCB98" d="M100.8 169.6c9 0 16.4-7.6 16.4-17 0-9.3-7.3-17-16.4-17-9 0-16.4 7.7-16.4 17 0 9.4 7.4 17 16.4 17Z"/><path fill="#010202" d="M100.8 158.3c3 0 5.5-2.5 5.5-5.7 0-3.1-2.4-5.7-5.5-5.7-3 0-5.5 2.6-5.5 5.7 0 3.2 2.5 5.7 5.5 5.7ZM223.3 175.5a22.5 22.5 0 0 0 22.2-22.9c0-12.6-10-22.9-22.2-22.9a22.5 22.5 0 0 0-22 23c0 12.6 9.8 22.8 22 22.8Z"/><path fill="#FBCB98" d="M223.3 169.6c9 0 16.4-7.6 16.4-17 0-9.3-7.3-17-16.4-17-9 0-16.3 7.7-16.3 17 0 9.4 7.3 17 16.3 17Z"/><path fill="#010202" d="M223.3 158.3c3 0 5.5-2.5 5.5-5.7 0-3.1-2.4-5.7-5.5-5.7-3 0-5.5 2.6-5.5 5.7 0 3.2 2.5 5.7 5.5 5.7Z"/><path fill="#FBCB98" fill-rule="evenodd" d="M182.4 74c4.3-1.8 8.4-2 9-.5.7 1.6-2.3 4.4-6.7 6.3-4.3 1.9-8.3 2.1-9 .5-.6-1.5 2.4-4.4 6.7-6.2Z" clip-rule="evenodd"/><path fill="#EEAB69" fill-rule="evenodd" d="M185 73.6c-.5 0-1 .3-1.1 1-.2.7 0 1.8 0 2.7V79c-.3.4-.8.6-1.5.8l-2.4.2c-1 0-2 0-2.8-.2-.8 0-1.4-.2-1.7-.3-.3 0-.4 0-.2.3l.9 1c1.6 1.6 9.4-.7 9.8-2 .2-.5 1.4-1.6 1.5-2.4.1-.7-.3-1.2-.8-1.7s-1.2-1.1-1.7-1.2Z" clip-rule="evenodd"/><path fill="#010202" fill-rule="evenodd" d="M102.5 104.3c-1.3 1-2.1 2.2-2.6 2.7l-.6 1-1 1.4a14 14 0 0 1-2.2 1.7c-.8.6-1.6 1-2.2 1.6-.7.6-1.2 1.2-1.4 1.7-.2.4-.2.7-.1 1l.6 1.2c.1.3.1.3-1 1.1A81.8 81.8 0 0 0 79.2 129a23 23 0 0 0-3.9 5.3 9.4 9.4 0 0 0-1 4c0 1.1.3 2 1 2.6.8.7 1.9 1.2 4.3 1.6 2.4.3 6 .6 9.7.6 3.7 0 7.4 0 13.4-.2l18.6-.6c4.2-.2 4.2-.2 4.5 0 .3 0 .8.4 1.3.8s1 1 1.3 2l.8 3.6c.1.8.1.8.5 1l3 .5a550.6 550.6 0 0 0 34.8 0c7.7-.4 13.2-1 17-1.6a26.4 26.4 0 0 0 11-4.2c.7-.5.7-.5.8-.1l.6 1.6c.4.5.9.9 2 .8 1 0 2.4-.4 6.3-2.7 3.8-2.3 9.8-6.6 13.5-9 3.7-2.3 5-2.8 6.6-3.2 1.7-.3 3.7-.5 6.5-.5l8.9-.1c2.4-.1 3.6-.3 4.2-.4.6-.2.6-.2.5-.6 0-.5-.2-1.5-.7-2.7-.5-1.1-1.5-2.5-2.7-3.7a17.7 17.7 0 0 0-4.9-3.2 32.1 32.1 0 0 0-19.7-3.5c-.7 0-.7 0-2.3-2.4l-6.7-10.9a626 626 0 0 0-9.3-14.5l-4.7-6.8c-1-1.4-1-1.4-.3-1.4.8 0 2.2 0 3.3-.3 1.2-.1 2.2-.4 2.8-.9.6-.4 1-1 1.2-2.1.2-1.1.3-2.7.3-3.8l.4-2.6.9-2.2.4-1.2v-1.3c0-.4-.2-.7-.6-1-.4-.3-1-.6-1.8-.7-.7-.1-1.6 0-3.5.4-1.8.5-4.6 1.4-6.9 2.5-2.3 1.2-4 2.5-5 3.7-1 1-1.3 2-1.3 3.2 0 1.1.2 2.5 1 4.9.9 2.3 2.4 5.7 4.5 10.2 2.1 4.6 4.8 10.3 6.4 14.3 1.6 4 2 6.1 1.9 9.5-.2 3.4-1.1 8-2.3 11.7a38 38 0 0 1-4.3 9.1c-1.5 2.4-3 4-4.4 5-1.5 1.2-3 1.9-4.8 2.5-1.7.5-3.8 1-8.2 1a124 124 0 0 1-15.7-.8c-4.5-.6-6.7-1.5-8.6-2.5-1.8-1-3.2-2-4.3-3a8.7 8.7 0 0 1-2.7-6.5c0-1.2.3-2.6.9-4a20 20 0 0 1 2.5-4.2c1-1.5 2.5-3.2 3.7-4.7l3-4c.9-1.3 1.5-2.5 2-3.6.4-1 .5-2 .5-2.8 0-.8-.3-1.4-.5-1.9l-1.4-1.8c-.7-.8-2-2.1-8-2.5-6.1-.4-17.2.2-24.4.5-7.1.4-10.4.5-13 1a13 13 0 0 0-5.5 2.2Z" clip-rule="evenodd"/><path fill="#A3CCEE" fill-rule="evenodd" d="M152.9 102.8c.7.4.7.4.2 1-.5.7-1.7 2-4 3.2a50 50 0 0 1-20.8 5.3c-5.2.3-12.8.4-17.5.4-4.8 0-6.7-.2-8.2-.9-1.6-.6-2.8-1.6-3.4-2.2-.5-.6-.4-.8-.2-1l.8-1.4c.4-.5.9-1 2.2-2 1.3-1 3.5-2.2 9.1-2.6 5.7-.3 14.7.2 20 .4 5.2.2 6.6 0 8.4-.4l5.6-1.2c1.7-.3 2.9-.3 4.2 0 1.4.3 2.8 1 3.6 1.4Zm-19 17c1.7 1.3 2.7 3.9 3.4 6.3a30.3 30.3 0 0 1 .5 11.1 5.8 5.8 0 0 1-2.4 3 19 19 0 0 1-7.7 2.6c-.9 0-1.2-.2-2-.7-.7-.5-1.9-1.4-3.5-3-1.7-1.7-3.8-4.2-3-7.7.9-3.6 4.6-8 7.6-10.4 3-2.3 5.4-2.4 7-1.2Z" clip-rule="evenodd"/><path fill="#FBCB98" fill-rule="evenodd" d="M84.9 118.2c4.4 0 8 2.8 8 6.3s-3.6 6.4-8 6.4c-4.5 0-8-2.9-8-6.4 0-3.5 3.5-6.3 8-6.3Z" clip-rule="evenodd"/><path fill="#010202" fill-rule="evenodd" d="M125.8 142.1h-4.5l-18.6.7c-6 .1-9.7.3-13.4.2a79 79 0 0 1-9.7-.6c-2.4-.4-3.5-1-4.3-1.6a3.3 3.3 0 0 1-1-2.6c0-1 .3-2.4 1-4 .8-1.5 2-3.2 3.9-5.3 1.8-2 4.5-4.4 6.9-6.4l5.9-4.8 1-.8a228.8 228.8 0 0 1 9.8-4.9 60.4 60.4 0 0 1 13.3-3.4 23.7 23.7 0 0 1 11 1.5c1.6.6 3 1.2 4.2 2.4 1.3 1.2 2.5 3 3.4 5.2 1 2.1 1.8 4.7 2.3 7.4.4 2.6.6 5.4.4 7.6-.1 2.2-.5 3.8-1 4.9-.7 1.1-1.4 1.8-3.2 2.5l-6 1.7-1.4.3Z" clip-rule="evenodd"/><path fill="#A3CCEE" fill-rule="evenodd" d="M79.8 135.5a42.7 42.7 0 0 1 31-22c3.2-.4 6.6-.6 9.6-.4 3 .1 5.7.8 7.9 1.7 2.1 1 3.7 2.2 4.9 3.7 1.1 1.5 1.8 3.1 1.2 4-.6.8-2.5.8-5.8.8-3.2 0-8 0-13.2.3-5.2.4-11 1.3-15.5 2.3a36.7 36.7 0 0 0-16.6 8.7c-1.7 1.6-3.2 3-3.9 3.3-.7.2-.6-.6.4-2.4ZM186.7 148.1a22.1 22.1 0 0 0 8.8-3.8c.7-.5.7-.5.8-.1.1.3.3 1 .7 1.6.3.5.8.9 1.8.8 1 0 2.6-.4 6.4-2.7 3.8-2.3 9.9-6.5 13.5-9 3.7-2.3 5-2.8 6.6-3.1 1.7-.4 3.7-.6 6.5-.6l8.9-.1c2.4-.1 3.6-.3 4.2-.4.6-.1.6-.1.5-.6 0-.5-.2-1.5-.7-2.7-.5-1.1-1.5-2.5-2.7-3.6a17.7 17.7 0 0 0-4.9-3.3 32.1 32.1 0 0 0-19.7-3.5c-.7 0-.7 0-2.3-2.4l-6.7-10.9-4.8-7.5-4.5-7c-3.5-5.4-5.4-12.2-6.6-5.3-.2 1 0 2.3.6 4 .6 1.9 1.7 4.1 2.7 6.6a89 89 0 0 1 5.2 19.9c.5 3.3.4 5.7 0 8.2a33.4 33.4 0 0 1-9.7 20.8 76 76 0 0 1-4.6 4.7Z" clip-rule="evenodd"/><path fill="#92C3DD" fill-rule="evenodd" d="M208 112c-.6.5-1.1 1.6-1 2.8 0 1.1.6 2.2 1.4 3 .7.6 1.6.9 2.6 1 1 .2 2 .2 3 .2.9 0 1.7-.3 2.1-.7.4-.4.5-1 0-1.7-.3-.7-1-1.5-2-2.2-1-.8-2.4-1.6-3.5-2-1.1-.5-2-.8-2.6-.3Z" clip-rule="evenodd"/><path fill="#010202" fill-rule="evenodd" d="M212.4 107.8c3 0 5.5 2.4 5.5 5.4 0 3-2.5 5.4-5.5 5.4s-5.6-2.4-5.6-5.4c0-3 2.5-5.4 5.6-5.4Z" clip-rule="evenodd"/><path fill="#FBCB98" fill-rule="evenodd" d="M212.6 107.8c1.1-.9 3.1 0 4.5 2s1.5 4.2.4 5c-1.1 1-3.2 0-4.5-2-1.4-2-1.6-4.2-.4-5Z" clip-rule="evenodd"/><path fill="#010202" fill-rule="evenodd" d="M94.5 94.3c.2 2.5 2 7.7 3 10.3 1 2.7 1.1 2.8 4.6 2.7l16.2-.5c6-.2 11.5-.1 16.1-.2 4.7-.1 8.6-.4 11.7-.9 3-.5 5.2-1.2 6.9-2a6.4 6.4 0 0 0 3.4-3.8c.8-2 1.2-4.9 1.4-6.3.3-1.5.3-1.5-.8-1.2-1.2.2-3.4.8-6.5 1.3-3.2.5-7.1 1-12.7 1-5.5.1-12.6-.2-19.8-.7l-18.4-1.8c-4.2-.4-5.4-.5-5.1 2Z" clip-rule="evenodd"/><path fill="#FBCB98" fill-rule="evenodd" d="M201.3 78.2v-.5c.3-1 .4-2.7.5-3.8 0-1.1.1-1.8.3-2.6l.9-2.1.4-1.3v-1.3c0-.4-.2-.7-.6-1-.4-.3-1-.6-1.8-.7h-1.8l-.1 2.6-.3 3.8v3.5c0 1 .2 1.6.4 2l.9.9 1.2.5Z" clip-rule="evenodd"/><path fill="#010202" fill-rule="evenodd" d="m157.6 93.9-.3 2.7a23.3 23.3 0 0 1-1 3.5c0 .2 0 .2-.5-.2a14.5 14.5 0 0 0-5.4-3.4 4 4 0 0 0-2.2-.3c-.8.1-1.8.5-2.8.6h-2.6c-.5-.1-.5-.1-1.3.2-.8.4-2.4 1.1-4 1.6-1.7.4-3.3.5-4.9.2-1.6-.3-3-1-3.8-1.3-.7-.4-.7-.4-1.3-.2a11.9 11.9 0 0 1-7.4.7 9.1 9.1 0 0 1-3.5-1.4c-1-.6-1.5-1.4-5-2-3.7-.7-10.4-1.2-13.7-1.5-3.4-.3-3.4-.2-3.3-.3 0 0 0-.2.3-.3.2-.2.5-.3 1-.4h1.6l3.3.3c1.3 0 2.9.2 4.7.4l5.9.6c2 .2 4 .4 8.6.1 4.7-.2 12-.9 17.5-1 5.4-.2 9 .1 11.7.1 2.7 0 4.6-.2 5.8-.3 1.2-.1 1.6 0 1.9.2.3.3.6.7.7 1.4Z" clip-rule="evenodd"/><path fill="#fff" fill-rule="evenodd" d="M166.6 41.4c0-1.1-.6-2.6-.9-3.7-.3-1.1-.4-1.9 0-2.7.4-.9 1.3-1.8 1.9-3 .6-1.2.7-2.6.7-4.2 0-1.7-.3-3.7-1-5-.6-1.4-1.5-2.2-1.9-3.2-.3-1-.1-2.2-.4-3.4a8.9 8.9 0 0 0-4.9-6.1c-1.2-.6-2.5-1.1-3.7-1.4-1.1-.2-2-.3-2.6-.7-.6-.5-1-1.3-1.5-2-.4-.7-1-1.3-1.8-1.9a7.9 7.9 0 0 0-2.7-1.4c-1-.2-2-.2-3.2-.1-1.2 0-2.3.3-3.2.3-.9 0-1.5-.1-2.2-.4-.7-.3-1.4-.7-2.5-1-1-.2-2.3-.2-3.5 0-1.2.2-2.2.6-3.1 1.2-1 .5-1.7 1.2-2.6 1.5-1 .2-2 0-3.3 0-1.2 0-2.7.2-4 .6-1.3.4-2.3 1-3.4 2-1 1.2-2.2 3-3.2 4s-2.1 1.3-2.9 1.6c-.8.3-1.3.5-1.3 1 0 .3.4.8 1.3 1.5l3.6 2 4 1.8c1 .4 1.7.7 1.6 1.4-.2.6-1.1 1.7-2 3a37.8 37.8 0 0 0-4.6 8.7 72.2 72.2 0 0 0-3.2 10.5L109 48a140 140 0 0 1-4.3 14.7 55.2 55.2 0 0 1-3.4 7.6c-1.1 2-2.1 3.3-2.4 4.2-.2 1 .3 1.5.9 2.1l2 1.8 1.5 1.6.8 2.3c.2.8.6 1.6 1.2 2.3a19 19 0 0 0 2.5 2.3c.9.7 1.6 1.3 2.6 1.5.9.3 2 .1 2.7 0 .7 0 1 0 1.4.4.4.4.7 1.4 1.2 2.3a13 13 0 0 0 1.9 2.4c.6.8 1.3 1.4 2.2 1.7 1 .4 2 .6 2.9.6.9 0 1.5-.2 2.3-.4l2.6-.8c.8-.2 1.3-.5 1.9-.4.5 0 1 .4 1.6.8l2.1.7c.8.2 1.8.3 3 0a14 14 0 0 0 3.7-1l2.4-1.3c.8-.3 1.5-.3 2.3-.3.9-.1 2-.2 3.2-.8a20 20 0 0 0 3.8-2.6c1-.8 1.3-1.4 2-2l2.7-2.3c1-.9 2-2 2.7-3.2.5-1.2.6-2.4 1-4 .2-1.5.8-3.3.9-4.8 0-1.5-.2-2.8 0-4.6.3-1.7 1.1-4 1.8-5.7l1.3-4.4c.2-1.3.3-2.5.2-3.5 0-1-.3-1.8-.6-2.7-.4-.8-.8-1.7-.8-2.4s.7-1.3 1.3-2.2l1.7-3.4c.5-1 1-2 .8-3.2Z" clip-rule="evenodd"/><path fill="#C6C5C6" fill-rule="evenodd" d="M126.8 91.4c-1 1-2.3 1.4-3.6 1.3-2.8-.3-4.9-3-4.6-6.2.2-1.5.8-2.7 1.6-3.7-.3.8-.6 1.6-.7 2.4-.3 3.4 1.9 6.4 4.8 6.6 1 .1 1.7 0 2.5-.4Zm21.5-9.4c.9.6 1.4 1.6 1.5 2.7.2 2.3-1.8 4.3-4.4 4.5-1.1 0-2.2-.2-3-.8.5.2 1.2.3 2 .2 2.7-.2 4.7-2.3 4.6-4.7a4 4 0 0 0-.7-2Zm-15.5-29.4c-1 1-2.3 1.4-3.7 1.3-2.8-.3-4.8-3-4.5-6.2.1-1.4.7-2.7 1.6-3.6-.4.7-.6 1.5-.7 2.3-.3 3.4 1.9 6.4 4.8 6.6.9.1 1.7 0 2.5-.4Zm-1.2-16.5c-1 .9-2.3 1.4-3.6 1.2-2.8-.2-4.8-3-4.5-6.2.1-1.4.7-2.7 1.5-3.6-.3.7-.6 1.5-.6 2.4-.4 3.4 1.8 6.3 4.8 6.6.8 0 1.7 0 2.4-.4Zm19.2-22.4c1-.9 2.3-1.4 3.7-1.2 2.8.2 4.8 3 4.5 6.2a6.3 6.3 0 0 1-1.6 3.6c.4-.7.6-1.5.7-2.4.3-3.4-1.8-6.3-4.8-6.6a5 5 0 0 0-2.5.4Zm-29.7 5.5-4-.2h-3.5c-.7 0-.6 0-2 2.5-1.2 2.4-3.8 7.3-7.3 15a125 125 0 0 0-9.3 25c-1.2 6.8 1 9.9 2.5 12 1.5 2.1 2.6 3.3 3.4 4.2l2 2c.3.4.3.4.2.7-.1.3-.3.9 0 1.6a27 27 0 0 0 4.7 4.8 7.3 7.3 0 0 0 5.5 1.7c.6 0 .6 0 .8.2l.8 1c.2.3.2.3.1-.5l-.3-3c-.1-.8-.1-.8-1-1-1 0-2.7-.2-4-.6-1.3-.5-2-1.2-2.7-2.3a13 13 0 0 1-1.6-6.1c0-.5 0-.5-.3-.6l-1.6-.5c-.4-.1-.4-.1 0-1.2.3-1 1-3.3 2.2-4.8a6.6 6.6 0 0 1 5-2.6c2-.2 4.4.5 7.6 1.3a135.2 135.2 0 0 0 28 5c4.7.3 8 0 10.2-.6 2.2-.5 3.5-1.5 3.7-2.3.1-1-1-1.8-1.8-2.8a16 16 0 0 1-2.5-4c-.8-1.8-1.7-4-2-5.2-.5-1.2-.5-1.2-.6-.4 0 .9-.2 2.6 0 3.7.3 1 .8 1.5.9 2.6 0 1-.5 2.6-6 3-5.4.2-16-.8-23-2.4-7-1.6-10.3-3.8-12.2-5.7a7 7 0 0 1-2.3-5.6 77.4 77.4 0 0 1 3.6-18.3c1.2-3.6 2.9-6.8 4.2-9.4l2.8-5.2c.6-1 .6-1-.2-1Z" clip-rule="evenodd"/><path fill="#1A1A18" fill-rule="evenodd" d="m152.3 90.1-2 1.2c3 .6 5.8 1.6 8.5 3 9.4 4.9 15.4 13.1 16 21-.3.7-.3 1.4 0 1.9.9 1.2 3.6.8 6.1-1 2.5-1.6 4-4 3-5.2-.8-1.3-3.5-.9-6 .8l-1.4 1.2c-1-7.6-7-15.3-15.9-19.9a33.6 33.6 0 0 0-8.3-3ZM153.5 57v-.3c-.2-.4 0-.8.3-1 .3 0 .6.2.7.6v.3c1 3.6 3.1 7.8 6.4 11.8 3.7 4.3 7.7 7.2 11 8.1.8-.6 2.2-.8 3.7-.5 2 .5 3.5 1.9 3.3 3.2-.3 1.2-2.2 1.9-4.3 1.4-1.9-.4-3.3-1.7-3.3-2.9-3.3-.8-7.6-3.7-11.3-8.2a29.7 29.7 0 0 1-6.5-12.4Z" clip-rule="evenodd"/><path fill="#EC684A" fill-rule="evenodd" d="M105.2 11.2c.8 0 2.1 1 4 2.2l6.4 3.4c2 1 3.6 2 3.9 2.8.3.8-.6 1.6-1.5 2.8-.9 1.1-1.9 2.6-2.8 4.6-1 2-1.8 4.7-2.8 8.1l-3 11.1c-.8 3.4-1.3 5.7-2 8l-1.8 6c-.6 1.7-1.1 3-2.5 5.6-1.3 2.5-3.5 6.2-5.1 8.7a32.4 32.4 0 0 1-4.7 6 145.2 145.2 0 0 1-31 23.8c-4 2.2-8.3 3.9-12.8 5.4a117.9 117.9 0 0 1-26 5.4c-3.4.4-5.6.5-8 .6-2.6.2-5.3.5-7.7.5-2.5 0-4.5-.2-5.5-.6-1-.4-1-1-.8-2 .1-1.2.3-3 .7-5.1.3-2.2 1-5 1.2-8.1.3-3.2.3-6.8.4-9.8 0-3 .1-5.4.3-6.8.1-1.4.3-1.8 1.5-2a56 56 0 0 1 8.9-.6l18.6-.3a69.8 69.8 0 0 0 31.2-6.7 100.7 100.7 0 0 0 24.2-18c1.4-1.6 2.9-3.5 4-5.3 1.2-1.8 2.2-3.6 3-5.3 1-1.6 1.8-3.1 2.7-5.6a137.9 137.9 0 0 0 5.6-20c.3-2.1.4-4.7.5-6.4.2-1.7.2-2.5 1-2.4Z" clip-rule="evenodd"/><path fill="#B94217" fill-rule="evenodd" d="m104.2 15.8.5-3.8c0-.7 0-.7.3.4.3 1 1 3 .9 6A69.1 69.1 0 0 1 99 44.5l-1.6 3.8c-.3 1-.7 2.2-.5 3.2.3 1 1.1 1.9 2.8 3.1l5 3.7c1.2.8 1.2.8 1 1.4-.2.6-.6 1.8-1.5 2.1-1 .3-2.5-.4-4-1.2-1.3-.9-2.7-1.8-4-2.4-1.3-.7-2.5-1-3.9-.3s-2.9 2.6-5.2 4.8a82.5 82.5 0 0 1-8.6 6.9c-3.2 2.3-6.6 4.4-9.2 6-2.6 1.7-4.3 3-5.1 4.6-.8 1.6-.6 3.5.1 5.3.8 1.8 2 3.6 3.2 5.1l3 3.9c1 1.1 1.8 2.2 1.4 3.4-.4 1.3-2 2.8-4 4.1-2 1.4-4.2 2.7-6.8 3.8-2.6 1.2-5.4 2-7.4 3-2 .8-3 1.5-4.6 1.6-1.6 0-3.8-.6-5.9-2.1a33.1 33.1 0 0 1-6.1-6c-2-2.3-3.7-4.6-7-6.6-3.4-2-8.4-4-12.9-4.4-4.5-.5-8.5.3-10.6 2.3-2 2-2.3 5.2-2.4 6.3-.2 1-.4-.2-.5-2v-7.6l.2-8c0-1.6 0-1.6 1.6-1.4 1.7.2 4.9.6 9.6.7a265.8 265.8 0 0 0 29.5-1.4c4-.4 8.1-1 12.2-2.4a112.4 112.4 0 0 0 23.6-14.5 65 65 0 0 0 9-8.8 47 47 0 0 0 6-9.6 109.5 109.5 0 0 0 7.7-21.8c.6-3 .9-5.4 1-7.3Z" clip-rule="evenodd"/><path fill="#F9C188" fill-rule="evenodd" d="m102.4 27.7-.7 2.2c3 2.3 6.2 4.6 9.8 6.7l.8-2.1c-3.6-2.2-6.9-4.5-9.9-6.8ZM104.3 16.6l-.5 2.4c3.6 2.6 7.5 5 11.7 7.3l1.1-2c-4.5-2.4-8.6-5-12.3-7.7ZM99 38.1l-.8 2.2c3.2 2.6 6.9 5.2 10.8 7.6l.7-2.2c-3.9-2.4-7.5-5-10.6-7.6ZM87.6 57.5 85.8 59c4.3 4 9.5 7.9 15.4 11.5l1-2a96 96 0 0 1-14.6-10.9ZM79.7 64.7 78 66.1c4.4 4.6 10 9.2 16.5 13.4l1.1-1.9a97 97 0 0 1-16-12.9ZM69 72l-2.2 1.3c4.8 5.6 10.8 11.1 17.8 16.2l1.8-1.9A110 110 0 0 1 69 72.1Z" clip-rule="evenodd"/><path fill="#ED6A38" fill-rule="evenodd" d="m51.6 79.3-2.5.4a106.8 106.8 0 0 0 20.7 20l2.4-1a118.2 118.2 0 0 1-20.6-19.4ZM34.5 80.8l-2.2.5a109.9 109.9 0 0 0 19.4 28l2.2-.9a111.8 111.8 0 0 1-19.4-27.6Z" clip-rule="evenodd"/><path fill="#F9C188" fill-rule="evenodd" d="m29.4 114.8-2.2.5a109 109 0 0 1-12.4-33.6h2.3a111.8 111.8 0 0 0 12.3 33Z" clip-rule="evenodd"/><path fill="#ED6A38" fill-rule="evenodd" d="m105.7 20.3.2-2v-.6l-1.6-1.1-.5 2.4 1.9 1.3Zm-1.5 8.8c-.1.9-.4 1.5-.6 2.3l-2-1.5.8-2.2 1.8 1.4Zm-4.1 12.7.9-2.1-2-1.6-.8 2.2 1.9 1.5ZM88.5 61.3l1.6-1.6a86 86 0 0 1-2.5-2.2L85.8 59l2.7 2.4Zm-8.2 7L82 67l-2.3-2.3-1.7 1.4 2.3 2.3ZM69 75.9l.2-.1 2-1.3-2.3-2.3-2.2 1.2 2.3 2.5ZM17 91.3c-1-3.2-1.7-6.5-2.3-9.6H17a110 110 0 0 0 2.5 10l-2.5-.4Z" clip-rule="evenodd"/><path fill="#1A1A18" fill-rule="evenodd" d="m149 91.7-2.3 1.1c3.1 1.2 6.2 2.7 9.1 4.8 9.9 7 15.5 17.2 14.9 26.2-.4.8-.6 1.6-.3 2.2.8 1.5 4 1.5 7 0 3.2-1.6 5.1-4 4.4-5.6-.8-1.5-4-1.5-7 0l-1.8 1c0-8.6-5.5-18.3-14.9-25-2.9-2-6-3.6-9-4.7Z" clip-rule="evenodd"/><path fill="#1A1A18" fill-rule="evenodd" d="M107.3 51.5a37.2 37.2 0 0 1-9.9-7 76.3 76.3 0 0 0 7.5-25l.7-7c.9.7 1.9 1.4 3 2 2.6 1.7 5.6 3 8.4 4.4l2 1a35 35 0 0 0-5.2 8A70.7 70.7 0 0 0 109 43c-.6 2.8-1 5.6-1.7 8.4h-.1Zm-14.4.8a61.6 61.6 0 0 0 11.9 8c-2.4 6.6-6 12.7-10.5 18-6 7-14 13.4-21.5 18.7-7.5 5-15.2 9.4-23.7 12.3-8.3 2.9-17.2 4.6-25.9 5.4-6.5.6-13 .6-19.6.5H2.1c.7-3.2 1.3-6.2 1.7-9.4.5-4.3.8-8.9 1-13.3l-.1-4.2v-5.8H6l17.5-.1c9.5-.1 19.7-.3 29-2.5 8.7-2 16.4-6.1 23.7-11.2 5.9-4.2 11.3-9 15.6-14.8l1.1-1.6Zm3.1-9.1-.5-.5c-.2-.2-.5-.3-1.3.9-1 1.2-2.4 3.8-3.2 5-.3.7 0 1.4.6 2.3A57.4 57.4 0 0 1 75.1 67a66.6 66.6 0 0 1-23 11c-9.3 2.2-20.2 2.3-28.6 2.4L6 80.7c-3 0-3 0-3 1.5l-.2 6.1v4.1c0 2.9-.3 8.6-.9 13.2-.5 4.6-1.3 8-1.7 9.6-.4 1.7-.4 1.7 3.4 1.8 3.7.1 11.3.3 19.8-.5 8.4-.7 17.8-2.5 26.3-5.4 8.4-3 16.1-7.2 24-12.6 8-5.5 16.2-12.2 22-19 1-1 1.9-2.3 2.7-3.4a11 11 0 0 0 3.8 4.2c.8 5.7 5.2 9.9 10.3 9.4l1.3-.3c1.5 4.7 5.4 7.8 9.9 7.3 1.6-.1 3.1-.7 4.4-1.7a10.5 10.5 0 0 0 14-.6c1 .2 2 .3 3 .2 3.7-.3 6.7-2.4 8.4-5.5a15 15 0 0 0 8.5-11.7c.4-2.6.1-5.3-.6-7.6a3 3 0 0 0 1.2-.7c1-1.1 1.5-4.8 1.3-6.4v-.4a10.4 10.4 0 0 0-.7-12 9.2 9.2 0 0 0 4.6-7c.5-2.8-.3-5.5-2-7.3 1.6-1.8 3-4.1 3.3-6.7.6-4-.6-7.7-3-10 .7-3-.1-6.1-2.8-8.5-2.3-2-5.5-3.1-8.8-3.3a10.4 10.4 0 0 0-7.9-6 10 10 0 0 0-6 .9A9 9 0 0 0 136 .1c-3.3-.5-6.4 1-8.5 3.5-4-1.5-9-.2-12.3 3.6-.7 1-1.4 2-1.9 3a12 12 0 0 0-4.6 2.2c-2-1.3-3.3-2.5-4-3-.7-.8-.7-.8-.8.8a87.2 87.2 0 0 1-7.8 33Zm10.5 18a60 60 0 0 1-7 13.4 8.4 8.4 0 0 0 4.5 4.2l.1 1c.7 4.6 4.2 8 8.2 7.6a6.3 6.3 0 0 0 2.6-.9l.5 2.2c1.3 4 4.5 6.5 8.1 6.1a7.4 7.4 0 0 0 4.8-2.4l1 1a8.6 8.6 0 0 0 11.5-.6l.7-.9 1 .3c.7.2 1.6.2 2.4.2 3-.2 5.5-2 6.8-4.4l.5-.9.8-.2c3.5-1.5 6.3-5.2 7-9.8.3-2.5 0-4.9-.7-6.9-8.7 1-30.4-2.2-33.8-3-6.4-1.6-13-3.3-19-6Zm2.6-9c5.6 2.4 12 4 17.4 5.4 15 3.7 28.6 5 35.7 3.8.5-1 .9-2.1 1-3.2.6-3.2-.3-6.3-2-8.3a9.3 9.3 0 0 0 4.6-6.9c.5-3-.4-5.7-2-7.5l1.2-1.1c1.2-1.4 2-3.3 2.4-5.4.5-3.2-.5-6.2-2.4-8.1a7 7 0 0 0-1.1-1l.3-.8c.6-2.5-.2-5.2-2.5-7.2-2-1.7-4.7-2.6-7.6-2.8h-1c0-.3-.1-.5-.3-.7a8.5 8.5 0 0 0-6.5-5 8.3 8.3 0 0 0-6 1.3l-.8-.8c-1-1-2.3-1.7-3.9-1.9-2.6-.4-5.2.8-7 2.9l-.8 1.1a6 6 0 0 0-1.3-.6 9 9 0 0 0-10 2.9c-.7.8-1.2 1.6-1.6 2.5l-.4 1a9.5 9.5 0 0 0-4.3 1.5c2.4 1.5 5.5 3 7.6 3.9l3.8 1.8c.5.2.5.2-.7 1.5-1.2 1.4-3.5 4-5.4 8.1-2 4-3.4 9.5-4.6 14.8l-1.8 8.9Z" clip-rule="evenodd"/><path fill="#020203" fill-rule="evenodd" d="M160.6 33.1c.4-1.4-1-2.3-2.2-1.4l-.8.8c-1.4 1.2-4 .8-5.1-1-.3-.4-.7-2-1.2-2-1.8-.4-2.3 1.1-1.4 3 .8 2 2.3 2.8 4.4 3.3 3 .8 6-1.4 6.3-2.7Z" clip-rule="evenodd"/><path fill="#F9C188" fill-rule="evenodd" d="M147.8 39.4c-.7 3.3-5 2.1-4.3-.8.5-2.1 3-2 4-.7.2.4.4 1 .3 1.5Z" clip-rule="evenodd"/><path fill="#020203" fill-rule="evenodd" d="M160.3 39c3 .1 4 3.2 2 4.2.4.6.8 1 .8 1.8-.2 2.4-4.2 2.8-4.1 1.7 0-1.3 2.2 0 2.4-1.8 0-1.4-2.2-.7-2.2-1.8 0-.2.3-.4.5-.5.4-.2.3 0 .9-.1 1.3-.2 1.4-1.8.1-2.1 0 0-2-.3-1-1.2l.6-.2Z" clip-rule="evenodd"/><path fill="#A3CCEE" fill-rule="evenodd" d="M110.5 137.6c0 .8.7 1.5 1.6 1.5.8 0 1.5-.7 1.5-1.5V132a2.4 2.4 0 1 1 4.7 0v5.6c0 .8.8 1.5 1.6 1.5.9 0 1.6-.7 1.6-1.5V132a5.5 5.5 0 0 0-9.4-3.8 5.5 5.5 0 0 0-6.5-1c-.3-.5-.8-.9-1.4-.9-1 0-1.8.8-1.8 1.8 0 .6.3 1.2.8 1.5-.4.8-.6 1.6-.6 2.5v5.5c0 .8.7 1.6 1.6 1.6.8 0 1.6-.8 1.6-1.6V132a2.4 2.4 0 1 1 4.7 0v5.5Z" clip-rule="evenodd"/></svg>