<svg xmlns="http://www.w3.org/2000/svg" width="101" height="92" fill="none"><path fill="#fff" fill-rule="evenodd" d="M61.2 84.8c1.2 1.4 2.7 2 3.3 1.2.7-.8.3-2.6-.8-4l-1-1.1c2.1-.8 4.5-3.3 6-6.7l.9-3.3c1-.5 1.9-1.2 2.5-2.2a7.7 7.7 0 0 0 7.9-5.1c3-1.7 4.9-5.4 4.9-9.5 0-3.1-.9-5.8-2.6-7.8.6-.6 1-1.4 1.3-2.3 4-.4 5-3.8 3.6-7.2-.2-.7-.6-1.3-1.1-1.8a7.7 7.7 0 0 0-2.6-2 7 7 0 0 0 1.8-4.5L97 7.2l.2-.1h1.4a6 6 0 0 0 1-.6c.2-.3.5-.5.5-.8l.2-.8c0-.2 0-.6-.2-.9l-.6-1a3 3 0 0 0-.7-.7L98 2H97c-.3 0-.5.1-.8.3-.2.1-.3.4-.5.8l-.3 1.2-.2 1.2-10.5 20c-.3-1-.9-1.8-1.6-2.5 1-1.4 1.5-3.2 1.5-5 0-3-1.2-5.6-3.2-7.1.1-2.3-.9-4.4-3.1-5.8a10.7 10.7 0 0 0-6.9-1.5A7.9 7.9 0 0 0 65 0c-1.6 0-3 .5-4.3 1.3A7 7 0 0 0 57 .2a7.2 7.2 0 0 0-6 3.4c-3-.7-6.6.8-8.5 4-.5.8-1 1.6-1.1 2.4a8.5 8.5 0 0 0-4.2 3.5c-2.3 3.5-1.9 8 1 10.2l-.4.5a8.5 8.5 0 0 0-1.2 6.8l-2 .8c-.9.3-1.8.9-2.8 1.4a35.3 35.3 0 0 0-6 4.6l-3.3 3-4.5 4a36 36 0 0 1-4 3L11 49.5l-2 1-2 .7c-.6.2-1.2.2-1.9.2l-1.9-.1L2 51l-.5-.3-.4-.1H.4l-.4.8c0 .4 0 .8.2 1.4a12.7 12.7 0 0 0 5.6 6.7L9 61c1 .4 2.2.6 3.2.8 1 .1 1.9.3 3 .3s2.4 0 3.9-.2c1.5-.1 3.2-.4 5.6-1l7.2-2.3 3.3-1.3 1-.4a8.5 8.5 0 0 0 4.8 5.6c1.2 4.1 4.9 6.7 8.5 5.8.4-.1.8-.2 1-.4 1.1 2.2 2.9 3.8 4.8 4.3.2 2-.2 4.3-1.2 6.6-1 2.8-2.7 5-4.5 6.5-1.6 1.3-.8 3 .3 4.6 1.2 1.5 2.7 2 3.4 1.3.6-.8.1-2.6-1-4-.5-.5-.9-.9-1.3-1.1 1.7-1.4 3.4-3.7 4.5-6.5 1-2.7 1.4-5.2 1.1-7.2.6 0 1.3 0 2-.2 1.2-.3 2.2-1 3-1.8a8 8 0 0 0 5.8 1l.2-.1-.5 1.6c-1.5 3.4-3.8 6-6.1 6.8-1.9 1-.8 3.6.3 5Z" clip-rule="evenodd"/><path fill="#C5C6C6" fill-rule="evenodd" d="m58.3 61 3 .6c1 .2 1.7.1 2.3 0a3.4 3.4 0 0 0 2.4-1.4l.5-.8c0-.1 0-.1 0 0l-1 .7c-.3.3-.9.4-1.4.6h-1.5c-.5 0-1 0-1.4-.3-.4 0-.6-.2-.7-.2-.1 0-.1 0 0-.2.2-.2.6-.6.8-1.1.4-.5.5-1.2.7-1.5V57v.1l-.6.9-1.2 1c-.6.3-1.2.6-2 .8l-1.6.5c-.3 0-.3 0 0 .1l1.7.5Zm-7.7-43.4a3 3 0 0 1-2.5.8c-2-.2-3.3-2.2-3-4.4.2-1 .6-1.8 1.3-2.5-.3.5-.5 1-.6 1.7-.3 2.3 1.1 4.4 3.2 4.7.5 0 1 0 1.6-.3Zm1.5 8c-.8.8-1.8 1.3-2.8 1.3-2.2 0-4-2-4-4.6 0-1 .3-2.2.9-3-.2.7-.3 1.3-.3 2 0 2.7 1.9 4.9 4.3 4.9.7 0 1.3-.2 1.9-.6Zm5.7 3.4c3 3 5.5 3.1 7.8-.5-.7.5-1.4 1-2.1 1.2l-1.8.3H60l-.8-.2-1.4-.8Zm15.1-.8c3.1 3 5.9 3.1 8.3-.7l-2 1.1c-.7.4-1.7.7-2.2.8h-1.4c-.3 0-.5-.2-.9-.4l-.8-.4-.8-.4h-.2Zm-29.9 2c.4-.3-.1-.7-.5-1-.4-.5-.7-1-.8-1.5l-.3-1.7.3-1.5c.1-.4.4-.9.7-1.2l.6-.7c.2 0 .2 0 0-.3l-.9-1-1-2.2-.4-1.8.3-2.2 1-2.4c.3-.6.5-1.1.5-1.4.1-.3 0-.5-.3-.5s-.8.2-1.6.6a9 9 0 0 0-2.7 2.4c-.7 1-1 2.2-1.1 3.5-.1 1.2.2 2.4.5 3.5l1.1 2.5a3 3 0 0 1 0 2c-.2.8-.7 1.7-1 2.6-.2.7-.2 1.5-.2 2 .1.6.3 1 .7 1.2h2.3c1.2-.2 2.4-.6 2.8-.9Zm29.1 14.4c.3.2.5.5.5.8l-.3.7-.8.1c-.3 0-.6-.2-1-.5s-1-.7-1.2-1l-.7-.7-.4-.5-.5.2a17291.8 17291.8 0 0 1-3.7 2.4c-.4.1-.5.1-.8 0-.2 0-.4-.3-.7-.7l-.8-1.5a13 13 0 0 1-.5-2.5l-.3-1.9c0-.3 0-.3-.5-.4l-2.5-.1h-3.7l-3.8.5a17.6 17.6 0 0 0-6.3 2.6c-.5.4-.5.4-.5 1.7 0 1.3 0 4 .3 5.7.2 1.6.7 2.3 1 2.7.2.3.2.3.2.7 0 .3 0 1 .2 1.6.2.7.5 1.2 1 1.8.4.5 1 1 1.5 1.3l1.2.5c.2 0 .2 0 .2.2v1a6.7 6.7 0 0 0 2 3.5c.5.6 1.3 1 2 1.3.8.2 1.5.4 2.1.3.7 0 1.2-.2 1.5-.3.3-.1.3-.1.4 0 .2.3.4.7 1 1a6 6 0 0 0 2.6 1c1 .1 1.8 0 2.5-.2a5.4 5.4 0 0 0 2.2-1.5h.3c.1.2.5.6 1 .9.5.3 1 .4 1.6.6a6 6 0 0 0 1.7.2c.5 0 1 0 1.4-.2l.7-.4h.4l1.4.2h1.5c.5 0 1-.2 1.4-.5.4-.3.7-.8 1-1.4l.5-1.9c0-.3 0-.3.2-.3A13.3 13.3 0 0 0 81 60c.6-.5 1.1-1 1.7-2l1.3-2.4-.2.6c-.5 1.2-1.4 3.5-2.5 5.4a14.4 14.4 0 0 1-7.3 6c-.8.3-1.2.3-1.6.3-.4.1-.9.4-1.8 1-.8.5-2.2 1.3-3.4 1.6-1.1.4-2 .1-2.8-.1-1-.2-1.6-.5-2.3-.3-.8 0-1.5.4-2.2.8a6.4 6.4 0 0 1-5.5-.2 9.7 9.7 0 0 1-2.3-2c-.5-.8-.8-1.4-1-1.5-.5-.2-1 0-1.7.1a5 5 0 0 1-3-.3 7.9 7.9 0 0 1-3-2.4c-.8-1-1-2.1-1.7-2.8-.6-.7-1.5-1.1-2.2-1.7a6.6 6.6 0 0 1-1.9-2.3c-.4-.9-.5-1.8-.6-2.8 0-1.1 0-2.4.2-3.5.3-1.2 1-2.2 1.5-2.9.4-.7 1-1 1.2-1.3l.7-.7c0-.2-.2-.4-.5-.8l-1.3-2c-.4-.7-.8-1.5-.8-2 0-.6.4-1 1.4-1.5l3.9-1.5c1.4-.5 2.7-1.2 4.2-1.6 1.5-.3 3.4-.6 6-.4 2.6.1 6 .6 8 1 1.8.4 2.3.7 2.5 1.3.1.7-.1 1.6-.2 2.6 0 1 0 1.9.2 2.3 0 .6.1.7.4.7.3 0 .8-.2 1.5-.6.7-.4 1.6-1 2.2-1.2.6-.4 1.1-.4 1.5-.2l1.2.9 1.3 1Z" clip-rule="evenodd"/><path fill="#ED694A" fill-rule="evenodd" d="M86 36.9a10 10 0 0 0-3.2-2.9 9.2 9.2 0 0 0-4-1.2c-1.4 0-2.6.1-3.7.4l-3 1h-2.3c-.6 0-1 0-1.6.2-.4.2-1 .5-1.5.3-.8 0-1.6-.6-2.6-1.2-1-.5-2-1-3.9-1.6a49.1 49.1 0 0 0-15.6-1.4c-2.8.3-5.7 1-8.2 2-2.4.9-4.4 2-6.5 3.6l-6.5 5.6a88.4 88.4 0 0 1-12.7 8.9 16 16 0 0 1-5 1.6c-1.3.3-2.3.1-3 0-.7-.2-1.2-.4-1.5-.2-.1.2 0 .8.3 1.4.2.7.7 1.3 1 2 .5.7 1 1.4 1.7 2 .7.6 1.5 1.2 3 1.8A23.8 23.8 0 0 0 20.5 61a52 52 0 0 0 14.6-4.2c1.2-.5 1.5-.9 1.7-1.5.1-.5 0-1.4.2-2.4s.5-2.2.9-3.1A4 4 0 0 1 39 48c.6-.5 1.4-1.1 1.5-1.6.2-.5-.4-.9-1-1.4a12 12 0 0 1-1.2-1.8c-.3-.5-.5-1-.4-1.5.2-.3.6-.7 1.6-1.3a34.1 34.1 0 0 1 10-3c2-.3 4.6-.5 7-.4 2.3 0 4.5.5 5.7.9 1.3.4 1.4.7 1.5 1.2v2.6c0 1 0 2.6.2 3.2.4.6 1.2.3 1.8 0a9 9 0 0 0 1.4-1c.5-.4 1.2-1 1.8-1.2.5-.2 1 0 1.5.3l1.3 1.6c.3.4.5.4.7 0 .3-.4.6-1.1.7-2.1 0-1 0-2.3-.2-3.1-.2-.8-.3-1.2 0-1.4.3-.2 1.2-.3 2.4 0 1.2.4 2.8.9 4.1 1.6a14 14 0 0 1 3 2.3c.6.6.9.9 1.4 1a2 2 0 0 0 1.9-.7c.5-.5.8-1.6 1-2.7.2-.7-.2-1.6-.9-2.6Z" clip-rule="evenodd"/><path fill="#B94107" fill-rule="evenodd" d="M80.1 40c1 .6 1.7 1.4 2.3 2l1.3 1.2c.3.2.6 0 .7-.1.2-.2.1-.3.1-.6l-.3-.8-.9-1.1-1.5-1.4c-.5-.4-1.1-.8-1.7-1-.7-.4-1.3-.8-2.1-1l-2.5-.7-1-.3-.1-.1-.1-.7-.3-1c-.2-.2-.3-.4-.7-.4-.4 0-1 .3-1.2.7-.3.4-.3.9-.2 1.3 0 .3.2.5 0 .5l-.5-.2-.6-.2-.7-.1h-1.4c-.1-.3-.5-.6-1-.9H66c-.3.1-.2.3-.3.5l-.3.5-.8.2h-1.3c-.4-.2-1-.2-1.6-.3-.6 0-1.1 0-1.8-.2h-1.8c-.6 0-1.2 0-2 .2-1 0-2.1.3-5 1-3 .8-7.6 2.1-10.3 3.2-2.7 1-3.4 1.8-5.6 3.4-2 1.5-5.6 3.7-7.6 5-2.2 1.1-2.9 1.1-3.3 1.2-.4 0-.6.2-.6.5 0 .1.1.3.4.5.2.3.6.4.8.6l-.3.5c-.5.4-1.3 1.3-2.3 2a15.2 15.2 0 0 1-5.5 3c-.8.3-1.5.5-2.4.6-.9.2-1.8.3-2.8.3H9c-.8 0-1.6-.1-2.1-.3-.6 0-1-.2-1.5-.4-.5-.1-1-.4-1.2-.1-.2.1.1.7 1 1.4.7.7 2 1.5 3.4 2.1 1.4.7 3.1 1 5.3 1 2.3.1 5.2-.1 8.3-.7 3-.7 6.4-1.7 8.9-2.5 2.4-.8 4-1.2 4.8-2 .8-.7.8-1.8.9-2.6 0-1 .1-1.8.5-2.6.3-1 .9-1.9 1.5-2.6.7-.7 1.3-1 1.5-1.5.1-.4-.3-.7-.6-1.2-.4-.4-.8-1-1-1.6-.3-.6-.5-1.2-.5-1.7 0-.4.2-.8.8-1.2l2.2-.9 2.8-1 2.3-.7a30.5 30.5 0 0 1 13.6-.9c1.6.3 2.7.7 3.5.6 1-.1 1.9-.8 2.4-1.2.6-.4 1-.6 1.3-.6.3 0 .6.3 1 1l.8 3a7 7 0 0 0 1 2.4c.5.6 1.2 1.2 1.8 1.3.5.3.8.2.8 0V44l-.4-.4-.7-.8-.5-.9c-.2-.3-.3-.5-.3-.9v-2.3c-.1-.3-.2-.5-.1-.7l.9-.1a28.9 28.9 0 0 1 5.9 1c1 .4 2 .6 3 1.2Z" clip-rule="evenodd"/><path fill="#FAC18A" fill-rule="evenodd" d="m84.6 35.4 1.3 1.5-.3 1.5a7.7 7.7 0 0 1-2.3 3.5l-1.1-1c1-.7 1.7-2 2-3.3.2-.7.4-1.5.4-2.2ZM79.6 39.2l-1.4-.5a7.2 7.2 0 0 0 .4-6l1.5.2c.2.6.4 1.4.4 2.2.1 1.6-.3 3-1 4.1ZM74.4 33.4l-1.4.5.2.7c.4 1.1.5 2.3.4 3.4H75c.2-1 .1-2.3-.3-3.6l-.4-1ZM61.3 37.6l-1.4-.3a7 7 0 0 0 .3-4.9l1.5.3.3 1c0 1.5-.2 2.8-.7 4ZM54.7 31 53 31a8 8 0 0 1 0 5.8h1.5c.5-1 .7-2.3.6-3.7 0-.7-.3-1.4-.5-2ZM46 37.8l-1.5.2c.6-1.3.6-3.1-.1-5-.3-.7-.8-1.4-1.4-2l1.5-.4c.6.6 1 1.4 1.4 2.1.8 1.9.8 3.8.1 5.1ZM68.8 37.3l-.2-.4a9 9 0 0 0 .6-2.5l1.5.4c0 .9-.2 1.7-.5 2.4l-1.4.1Z" clip-rule="evenodd"/><path fill="#ED6A38" fill-rule="evenodd" d="M73 34.2c.2.1.2.3.2.4.4 1.1.5 2.3.4 3.4H75v-1.7c-.4 0-.5 0-.7-.2l-.1-.1-.1-.7-.3-1c-.2-.2-.3-.4-.7-.4l-.1.3ZM78.7 37.4l1.4.7-.6 1.1-1.3-.5.5-1.3ZM83 40.2l.3.4c.3.2.5.5.6.8l-.6.5-1.1-1 .7-.7ZM68.9 36.1l-.3.8.2.4 1.4-.2c.2-.3.3-.7.3-1.1h-1.4l-.2.1ZM60.3 36c0 .4-.2.9-.4 1.3l1.4.3c.3-.4.4-1 .6-1.6h-1.6Z" clip-rule="evenodd"/><path fill="#FAC18A" fill-rule="evenodd" d="m36.4 32.4-1.5.6c1.1 1.4 2.3 3.5 2.8 5.9.2.6.2 1.3.3 2l1.6-.6a15.7 15.7 0 0 0-3.2-8ZM33.8 44.3l-1.5.4a15.6 15.6 0 0 0-3-7.8l1-1a14.4 14.4 0 0 1 3.5 8.4ZM22.2 61.5l-1.5-.2a17 17 0 0 0 2.4-10.6c-.1-2.8-.8-5.3-1.7-7.3l1.2-1c1.1 2.1 2 5 2.2 8.3.2 4.5-.8 8.6-2.6 10.8ZM17.3 47.3l-1.5.8c.2.7.3 1.5.3 2.4.2 4.7-1 9-2.8 11l1.5.1c2-2.1 3.2-6.4 3-11.2l-.5-3.1ZM7.2 60 6 59.5c.9-1.9 1.4-4.3 1.4-7L9 52c0 3.2-.7 6-1.8 8Z" clip-rule="evenodd"/><path fill="#ED6A38" fill-rule="evenodd" d="m31 58.6-1.8.3a18 18 0 0 0 1.6-9.1c0-1.1-.2-2.2-.4-3.3l1.7-.2.5 3.4a21 21 0 0 1-1.6 8.9ZM38.1 49.2l-1.7 2.3v-2.3c0-2-.4-3.7-1-5.4l1.3-1.1a20.1 20.1 0 0 1 1.4 6.5Z" clip-rule="evenodd"/><path fill="#ED6C35" fill-rule="evenodd" d="M24.8 51.2v-.5l-.1-1h-.4c-.4.2-.6.3-.6.6 0 .1.1.3.4.5l.7.4Zm-1.7 2c-.1 3.4-1 6.3-2.4 8.2l1.5.2c1.7-2.1 2.7-5.7 2.6-9.8l-.2.2-1.5 1.3Zm-6 3.5h-.3c-.4.2-1 .4-1.4.4-.5 1.8-1.3 3.4-2.2 4.5h1.5c1.1-1 2-2.8 2.5-5Zm-10.5.7-.7 2 1.3.7c.4-.8.8-1.5 1-2.5a22.7 22.7 0 0 1-1.6-.2Z" clip-rule="evenodd"/><path fill="#FAC18A" fill-rule="evenodd" d="m71.3 38.7 1.1.6c.2.2.2.4.2.6 0 1-1.3 1.8-2.8 1.8h-.3V40h.3c.9 0 1.7-.5 1.7-1 0-.2 0-.4-.2-.4ZM65.7 37.9l-1 .7c0 .8 1 1.5 2 1.5.5 0 1.2-.2 1.5-.7l-.5-1.5c0 .4-.5.7-1 .7s-1-.3-1-.7ZM64 41.4l-.6.9c0 .9 1.1 1.7 2.5 1.7 1.3 0 2.4-.8 2.4-1.7l.5-1.5c0 .9-1.1 1.7-2.4 1.7-1.2 0-2-.4-2.4-1Z" clip-rule="evenodd"/><path fill="#ED6A38" fill-rule="evenodd" d="M70.7 41.5h-1.2V40h.3l.8-.1v1.3l.1.3Z" clip-rule="evenodd"/><path fill="#000" fill-rule="evenodd" d="m66 38.1.7-.7.3-.2v.1l.4.4.4.9.4 1V41c0 .4-.1.7-.3 1.1l-.5 1-.8.7-.9.5-.7.3h-.4l-.2-.9c-.1-.4-.2-.8-.1-1.5 0-.6.1-1.3.3-1.9.2-.5.2-.8.5-1.2l1-1Zm3.8 2.2-.1-1-.2-.7v-.2h.6l1 .3c.4.2.7.4 1 .8l.5 1.2v1.6c0 .5 0 .8-.2 1.1l-.2.6h-.1l-.5-.4-1-.8-.8-.8-.1-.3v-1.4Zm1.1-3.3.6.2h.2v-.1l-.1-.6a2 2 0 0 0-.4-.8l-.5-.4-.5-.3-.5-.1H69l-.7.1-.5.4-.2.3v.3s.2 0 .3.2l.4.4.3.3v.3c0 .1 0 .1.1 0l.4-.1h1.2c.3-.2.5 0 .6 0Zm5.1.8a12.7 12.7 0 0 1 6.3 2.7c.5.4.9.9 1 1.2l.6.8c.2.2.4.2.6.1.2 0 .5-.2.8-.5.3-.2.6-.6.8-1l.2-1.4c0-.6 0-1.3-.3-1.8-.2-.7-.5-1.1-.8-1.5-.2-.3-.4-.6-.8-.8a7.5 7.5 0 0 0-3-1.7l-1.6-.4-1.6-.3a11.8 11.8 0 0 0-3.5.5l-1.5.5-1 .5v.3l.6.7c.1.3.3.6.3 1v.8l.2.1h1.3l1.4.2Zm-38.5 4.9a30234 30234 0 0 0-5.7 4.1l-2.5 1.6-2.3 1.2a8 8 0 0 1-1.7.6h-1c-.3 0-.6-.2-.6-.3-.1-.2 0-.4.1-.7.2-.1.3-.3.7-.4l1.5-.6a105 105 0 0 0 5.9-3.5l2.6-1.8 3-2 4-2.2a53 53 0 0 1 8.9-2.4 38.3 38.3 0 0 1 8 0c1.4.2 2.5.6 3.5.8l2 .6c.5.2.5.2.6 0l.8-1 .9-.7v-.3l-1.4-1c-.7-.4-1.6-1-2.7-1.3a37.1 37.1 0 0 0-12.3-2.6h-3.4a45.8 45.8 0 0 0-8.3 1.5 29.7 29.7 0 0 0-8 4.4c-1.4 1-2.9 2.3-4.2 3.5a785 785 0 0 1-7 6.2 47.6 47.6 0 0 1-7.5 5c-1.3.7-2.6 1.2-3.7 1.4l-2.5.3-2-.2-1.1-.3c-.2 0-.2 0 0 .3 0 .3.3 1 .7 1.6l1.8 2.2c.6.6 1.3 1.2 2.3 1.8a20.9 20.9 0 0 0 12.6 2c1.4-.1 2.7-.3 4.7-.8a76.3 76.3 0 0 0 12-4.1c-.5-4 1-7.5 4-8.9a7.3 7.3 0 0 1-2.7-4Zm23.7 42c1.2 1.5 2.7 2 3.3 1.3.7-.8.3-2.6-.8-4l-1-1.1c2.1-.8 4.5-3.3 6-6.7l.9-3.3c1-.5 1.9-1.2 2.5-2.2a7.7 7.7 0 0 0 7.9-5.1c3-1.7 4.9-5.4 4.9-9.5 0-3.1-.9-5.8-2.6-7.8.6-.6 1-1.4 1.3-2.3 4-.4 5-3.8 3.6-7.2-.2-.7-.6-1.3-1.1-1.8a7.7 7.7 0 0 0-2.6-2 7 7 0 0 0 1.8-4.5L97 7.2l.2-.1h1.4a6 6 0 0 0 1-.6c.2-.3.5-.5.5-.8l.2-.8c0-.2 0-.6-.2-.9l-.6-1a3 3 0 0 0-.7-.7L98 2H97c-.3 0-.5.1-.8.3-.2.1-.3.4-.5.8l-.3 1.2-.2 1.2-10.5 20c-.3-1-.9-1.8-1.6-2.5 1-1.4 1.5-3.2 1.5-5 0-3-1.2-5.6-3.2-7.1.1-2.3-.9-4.4-3.1-5.8a10.7 10.7 0 0 0-6.9-1.5A7.9 7.9 0 0 0 65 0c-1.6 0-3 .5-4.3 1.3A7 7 0 0 0 57 .2a7.2 7.2 0 0 0-6 3.4c-3-.7-6.6.8-8.5 4-.5.8-1 1.6-1.1 2.4a8.5 8.5 0 0 0-4.2 3.5c-2.3 3.5-1.9 8 1 10.2l-.4.5a8.5 8.5 0 0 0-1.2 6.8l-2 .8c-.9.3-1.8.9-2.8 1.4a35.3 35.3 0 0 0-6 4.6l-3.3 3-4.5 4a36 36 0 0 1-4 3L11 49.5l-2 1-2 .7c-.6.2-1.2.2-1.9.2l-1.9-.1L2 51l-.5-.3-.4-.1H.4l-.4.8c0 .4 0 .8.2 1.4a12.7 12.7 0 0 0 5.6 6.7L9 61c1 .4 2.2.6 3.2.8 1 .1 1.9.3 3 .3s2.4 0 3.9-.2c1.5-.1 3.2-.4 5.6-1l7.2-2.3 3.3-1.3 1-.4a8.5 8.5 0 0 0 4.8 5.6c1.2 4.1 4.9 6.7 8.5 5.8.4-.1.8-.2 1-.4 1.1 2.2 2.9 3.8 4.8 4.3.2 2-.2 4.3-1.2 6.6-1 2.8-2.7 5-4.5 6.5-1.6 1.3-.8 3 .3 4.6 1.2 1.5 2.7 2 3.4 1.3.6-.8.1-2.6-1-4-.5-.5-.9-.9-1.3-1.1 1.7-1.4 3.4-3.7 4.5-6.5 1-2.7 1.4-5.2 1.1-7.2.6 0 1.3 0 2-.2 1.2-.3 2.2-1 3-1.8a8 8 0 0 0 5.8 1l.2-.1-.5 1.6c-1.5 3.4-3.8 6-6.1 6.8-1.9 1-.8 3.6.3 5Zm21-52.2-.9-.3-1.3-.3-1.5-.3h-2L75 32c-.4 0-1 .2-1.4.4l-1.4.5-1 .7c-.3.2-.3.2-.4.1l-.4-.2-.7-.2h-1a4 4 0 0 0-.9.1c-.3 0-.5.2-.8.4-.2.2-.4.3-.4.5l-.4-.1a14 14 0 0 0-1.6-1l-2.5-1.2c-1-.4-2.4-1-4-1.4-1.5-.4-3.4-.7-5.3-1-1.8-.1-3.6-.2-5.5-.1a28.7 28.7 0 0 0-9 1.2v-.1a6.7 6.7 0 0 1 1-5.4c0-.2.2-.3.3-.5l1.2-1.2-1-.5c-.2 0-.4-.3-.6-.4-2.4-1.9-2.8-5.5-.9-8.5a7.1 7.1 0 0 1 3.5-2.8l.8-.2c0-.3 0-.5.2-.8.1-.7.4-1.4.8-2a6.8 6.8 0 0 1 7-3.2c.4 0 .8.1 1.1.3l.5-.9c1.1-1.7 2.9-2.9 5-2.9 1 0 2.1.3 3 1 .3.1.5.3.6.5l.8-.6a6.5 6.5 0 0 1 9 1.9l.2.5h.8c2.1-.2 4.2.2 5.8 1.2 2 1.3 2.8 3 2.6 5v.6l1 .6a7 7 0 0 1 2.5 5.6 7.3 7.3 0 0 1-2.3 5.5c.4.1.9.5 1.3.8 1 1 1.6 2.3 1.6 4 0 1.4-.6 2.8-1.4 3.7-.2.4-.4.6-.7.7ZM38.4 42v.4l.2.1a7.2 7.2 0 0 0 3.5 4.3c-6 1.5-7.1 12.7.2 14.6l.1.8c1 3.3 4 5.3 6.9 4.6l.8-.3c.4-.1.7-.4 1-.6l.5 1.6c1.4 2.7 4 4.2 6.7 3.5a5.4 5.4 0 0 0 3.3-2.3c.2.3.5.4.8.6 1.4.8 3 1 4.6.8a6 6 0 0 0 4.2-3.2l.7.1a6.6 6.6 0 0 0 6.4-4.2l.2-.6c.3 0 .4-.2.6-.3a9.2 9.2 0 0 0 4.1-8c0-2.5-.9-4.8-2.3-6.5l-1.4-1.2a4 4 0 0 0 1.7-1 6 6 0 0 0 1.2-1.9l.1-.1-.9-1.2-1.2-1.2-1.5-.9-1.6-.5c-.5-.2-1.1-.3-1.7-.3l-1.4-.2h-.7v.2l.4.8.1 1.3v1.5l-.5 1.5-.3.8-.4.4-.4.1h-.4a3 3 0 0 1-.8-.5l-1-.7c-.4-.3-.6-.6-.9-.7-.1-.3-.3-.4-.4-.5H69l-.7 1a8.7 8.7 0 0 1-2.2 1.4l-1 .3a2 2 0 0 1-1 0c-.3-.1-.4-.2-.5-.5A4 4 0 0 1 63 44l-.2-1.6v-1.2l.3-1.3.2-.8V39l-.5-.3-1.6-.4-3.4-.7-4-.3c-1.4 0-2.5 0-3.4.2-1 0-1.8.2-2.2.3-.4 0-.4 0-.8.5-.4.4-1 1-1.5 1.8l-1.2 1.6a6 6 0 0 0-.6 2 8 8 0 0 0 0 2.7 9.4 9.4 0 0 0 2.9 5.2 33.9 33.9 0 0 0 4.2 3.5l.4.1.4-.2.6-.2h.8c.2 0 .5.2.6.4.2.1.3.4.3.5l.1.2.2.1.6.5c.3.2.5.6.7.9v1c0 .4-.2.7-.4.9l-.6.4H53.7l-.8-.3-.8-.6-.7-1-.3-.6-.2-.2-1.2-.8a22.4 22.4 0 0 1-3.9-3.4l-1.2-1.3-1-1.7c-.3-.6-.6-1.1-.7-1.7-.2-.7-.4-1.4-.4-2V44c0-.8.3-1.5.6-2.3l1-2 .7-.8c.2-.2.2-.2-.1 0-.3 0-.8.2-1.4.5-.7.2-1.5.6-2.2 1-.7.2-1.3.6-1.8.8-.4.6-.6.7-.8.8Z" clip-rule="evenodd"/><path fill="#000" fill-rule="evenodd" d="M63.8 29.2a8.1 8.1 0 0 0 1.5-4.7c0-3.3-1.5-6-3.5-6-2-.1-3.6 2.6-3.7 5.8 0 2.1.5 4 1.5 5a6 6 0 0 1-2.3-.8c1 1.3 2.5 2.1 4.2 2.1 2 0 3.7-1 4.8-2.8-.7.6-1.5 1-2.5 1.4Zm-.6-7.6c.6 0 1.2 1.4 1 3.2 0 1.7-.6 3.1-1.2 3.1s-1.2-1.4-1.1-3.1c0-1.8.6-3.2 1.3-3.2ZM79 28.4a8.1 8.1 0 0 0 1.5-4.6c.1-3.4-1.5-6-3.5-6.1-2-.1-3.6 2.6-3.7 5.8 0 2.1.6 4 1.5 5a6 6 0 0 1-2.3-.8c1 1.3 2.5 2.1 4.2 2.1 2 0 3.8-1 4.8-2.8-.6.6-1.4 1-2.5 1.4Zm-.5-7.6c.6 0 1.2 1.5 1 3.2 0 1.7-.5 3.1-1.2 3.1-.6 0-1.2-1.4-1-3.1 0-1.7.5-3.2 1.2-3.2ZM67.1 31l.7.8c.3.2.6.5 1 .6.2.2.6.3 1 .3.3 0 .6 0 .9-.2.3 0 .6-.2 1-.5.3-.2.6-.4.8-.8l.5-.7V30c0-.2-.2-.2-.2-.3l-.4-.1c-.2 0-.3 0-.4.2l-.4.6c-.2.2-.3.4-.6.5-.2.2-.5.3-.8.3h-.7c-.2 0-.5-.1-.7-.3l-.6-.6c-.1-.2-.2-.2-.4-.3h-.4c-.2.1-.3.2-.3.4v.5Z" clip-rule="evenodd"/></svg>