<svg xmlns="http://www.w3.org/2000/svg" width="42" height="53" fill="none"><path fill="#ECECED" fill-rule="evenodd" d="M41.6 24.6 35 17.7l-34.5 1 7.3 7.1 33.7-1.2Z" clip-rule="evenodd"/><path fill="#C5C6C6" fill-rule="evenodd" d="M6.8 18.8c-.1.3 0 .7.1 1.2l.2 1.3v1.1l-.4.7-.3.8v.7c0 .3.1.6.4.8.4.2 1 .3 1.7.2.6 0 1.2-.3 1.5-1 .4-.9.4-2.3.3-3.2-.1-1-.3-1.3-.7-1.6-.3-.4-.9-.7-1.2-1l-1-.4c-.2 0-.5 0-.6.4Z" clip-rule="evenodd"/><path fill="#ECECED" fill-rule="evenodd" d="m7.5 25.3-7-6.6V45l7 7V25.3Z" clip-rule="evenodd"/><path fill="#ED694A" fill-rule="evenodd" d="M9.5 9c-1.3-.2-1.7-.4-2-.6-.3-.1-.5 0-.7.1-.2.2-.4.6-.5 1.1 0 .5-.2 1-.1 1.7 0 .7 0 1.5.4 2.6l1.1 4c.3 1.2.3 2.5.2 3.4l-.2 2.4c0 .6.3 1.1.8 1.4.5.4 1.3.5 3 .5l6.9-.3 8.1-.3 7.4-.3c1.9 0 2.8 0 3.3-.2.6 0 .8-.3.9-.5v-.8c0-.3-.2-.6-.2-1.5a14.1 14.1 0 0 1 1-6.2l.8-2.2v-2c0-.6 0-1-.2-1.6 0-.5-.2-1-.4-1.3-.1-.3-.4-.3-.6-.2-.3.2-.4.4-1.3.6-.8.2-2.1.2-6 .3A1334.3 1334.3 0 0 1 9.6 9Z" clip-rule="evenodd"/><path fill="#fff" fill-rule="evenodd" d="M39.2 27.7c0-.2-.1-.3-.4-.3h-1.5a.4.4 0 0 1-.4-.5c0-.2.2-.4.4-.4h2.3c.3 0 .5.2.5.4V29c0 .2-.2.4-.4.4a.4.4 0 0 1-.5-.4v-1.4Z" clip-rule="evenodd"/><path fill="#B94107" fill-rule="evenodd" d="M37.6 9.9V9c.1-.1.3-.2.4 0 .2.2.3.6.4 1l.1 1.4-.3 1.5-.6 1.3c-.2.3-.2.4 0 .9l.6 1.6V19l-.3 2.6c0 .8.2 1.4 0 2 0 .4-.4.7-.7.7-.2 0-.4-.3-.6-.7l-.7-1.3-.5-.7.3-.6.9-1c.3-.6.6-1.2.7-1.8 0-.6 0-1.3-.2-1.8l-.6-1.2c-.2-.4-.2-.6-.1-.8.1-.3.6-.6.8-1 .3-.6.4-1.2.5-1.8V9.9Z" clip-rule="evenodd"/><path fill="#FAC18A" fill-rule="evenodd" d="M39.7 9.8v.7a3 3 0 0 1-1 .2h-1V10h1c.4 0 .7 0 1-.2ZM39.8 11.8v.7a4 4 0 0 1-2.1 0l.1-.7 1 .1 1-.1ZM39.5 13.7v.7l-1 .1c-.8 0-1.4-.2-1.8-.4l.3-.5c.3.1.9.3 1.4.3l1.1-.2ZM39 15.8l-.2.7h-.3c-.5 0-1 0-1.3-.2v-.7l1.3.2h.4Z" clip-rule="evenodd"/><path fill="#ED6C35" fill-rule="evenodd" d="m35.5 21-.3.6c.3.2.8.2 1.3.2l1.1-.1V21l-1.2.1-1-.1ZM38.5 10.7h-.7V10h.5v.2l.2.5Zm0 1.2c0 .2 0 .5-.2.7l-.6-.1.1-.7h.7Zm-1 2.5c-.3 0-.6-.1-.8-.3l.3-.5.8.2-.3.5v.1Zm.6 2-.8-.1v-.7l.5.1c0 .3.2.5.3.7Z" clip-rule="evenodd"/><path fill="#B94107" fill-rule="evenodd" d="M8.4 9.9V9C8.2 9 8 9 8 9.1a3 3 0 0 0-.4 1l-.1 1.4.3 1.5.6 1.3v.9l-.6 1.6V19l.3 2.6c0 .8-.2 1.4 0 2 0 .4.4.7.6.7.3 0 .5-.3.7-.7l.7-1.3c.3-.3.4-.5.4-.7l-.2-.6-.9-1c-.3-.6-.6-1.2-.7-1.8-.1-.6 0-1.3.2-1.8l.6-1.2c.2-.4.2-.6.1-.8-.1-.3-.6-.6-.8-1a4 4 0 0 1-.5-1.8V9.9Z" clip-rule="evenodd"/><path fill="#FAC18A" fill-rule="evenodd" d="M6.3 9.8v.7l1 .2h1V10h-1c-.4 0-.7 0-1-.2ZM6.2 11.8v.7l1.1.1 1-.1v-.7l-1 .1-1-.1ZM6.5 13.7l.1.7 1 .1c.7 0 1.4-.2 1.7-.4l-.2-.5a4 4 0 0 1-1.5.3l-1-.2ZM7.1 15.8l.1.7h.4c.4 0 .9 0 1.2-.2v-.7l-1.2.2H7Z" clip-rule="evenodd"/><path fill="#ED6C35" fill-rule="evenodd" d="m10.5 21 .4.6c-.4.2-.8.2-1.4.2a4 4 0 0 1-1-.1l-.1-.7 1.2.1 1-.1ZM7.6 10.7h.7V10h-.6v.2l-.1.5Zm0 1.2.1.7.7-.1-.2-.7h-.6Zm1 2.5c.3 0 .5-.1.7-.3l-.2-.5-.8.2.2.5v.1Zm-.6 2 .7-.1v-.7l-.5.1-.2.7Z" clip-rule="evenodd"/><path fill="#fff" fill-rule="evenodd" d="M10.8 27c-.3-.3-.8-.5-1.2-1-.3-.4-.5-1-.5-1.6 0-.5 0-1 .2-1.3l.5-.7.6-.7c.2-.2.4-.3.3-.5 0-.2-.3-.3-.7-.8-.4-.5-.9-1.3-1.1-2-.3-.6-.3-1.2-.3-1.8.1-.6.4-1.2.7-1.6l.3-.7c0-.2-.1-.4-.4-.7-.2-.2-.5-.6-.6-1-.2-.2-.3-.4-.3-.8-.1-.4-.2-1-.1-1.3 0-.5.3-1 .4-1.3.2-.4.3-.7.6-1 .3-.4.8-.7 1.2-1l.8-1.2c.1-.3 0-.7.2-1.2l.9-1c.4-.4.8-.7 1.2-.8l1.6-.2 1.6-.4c.5-.2.6-.5 1-.8.2-.3.6-.5 1-.7.4-.2.8-.4 1.4-.4.7 0 1.5.1 2 .3.4.2.6.3 1 .3l1.2-.3L26 .6c.6 0 1 0 1.5.3l1 1c.2.4.3.6.5.7h.7c.4 0 1 0 1.6.2.5.1 1 .4 1.5.8.5.3.8.8 1.1 1.3l.7 1.3c.2.3.5.4 1 .6L36.7 8c.4.5.6.9.7 1.3a6 6 0 0 1 .2 2.7c0 .4-.2.7-.4 1-.2.4-.6.8-.7 1.3 0 .5.2 1 .4 1.5l.3 1.5-.1 1.4c-.1.4-.3.8-.7 1.3-.3.4-.9.9-1 1.2 0 .4.3.8.6 1.2l1 1.8c.2.7.7 1.7.3 2.6-.3.8-1.5 1.4-5 1.8-3.6.3-9.5.4-13.4.2-3.9-.1-5.7-.4-6.7-.7-1-.3-1.1-.6-1.5-1Z" clip-rule="evenodd"/><path fill="#B1B2B3" fill-rule="evenodd" d="M32.1 20c.3.5 1 .9 1.6.9 1 0 1.8-.8 1.8-1.8 0-.5-.3-1-.8-1.4.2.3.3.6.3 1 0 .9-.8 1.6-1.8 1.6-.4 0-.8 0-1-.3ZM14 12a2 2 0 0 1-1.5.9c-1 0-1.9-.8-1.9-1.7 0-.6.3-1.1.8-1.5-.2.3-.3.6-.3 1 0 .9.9 1.7 1.9 1.7a2 2 0 0 0 1-.3Zm4.8 10c-.3.5-.8.8-1.4.8-1 0-1.6-.7-1.6-1.6 0-.5.3-1 .7-1.2-.2.2-.2.5-.2.8 0 .9.7 1.5 1.6 1.5.3 0 .6 0 .9-.3Zm2.5-2.7.2-.2c1-1.3 2.8-.8 2.6 1.4 2-.1 2.6-3.4 2.2-4.2-.5-1.1-3.8-1.1-5.1-.3-.6.3-.5.8-.4 1.6.1.7.3 1.3.5 1.7Zm0 0 .2-.2c1-1.3 2.8-.8 2.6 1.4a3 3 0 0 1-1.7-.2c-.5-.2-.8-.5-1-1ZM16 13.7c0-1.2 1-2.2 2.1-2.2 2 0 3 2.4 1.6 3.8a2.2 2.2 0 0 1-3.7-1.6Zm11.1 0c0 2 2.4 2.9 3.7 1.6 1.4-1.4.5-3.8-1.5-3.8-1.2 0-2.2 1-2.2 2.2ZM8.8 17l.8 1.6a8.9 8.9 0 0 0 1.8 2.1l.6.3c.1 0 .1 0 0 .2l-.8.8c-.4.3-.7.8-.8 1.2-.1.5-.1 1 .1 1.3.3.3.8.5 1.6.6l2.2.4c.6 0 .6 0-.1.1l-3.1.2c-1 0-1.7-.2-2-.5-.3-.2-.2-.6-.2-1l.4-1.2a14 14 0 0 1 1.2-1.8l-.2-.3c-.2-.2-.8-.6-1.1-1.1-.4-.6-.7-1.3-.8-1.8a3 3 0 0 1 0-1.2c.2 0 .2-.2.4.1Zm25.6 4.2v.2l.6.7.4.8c0 .2.2.6.1 1l-.2.9.8.1c.4 0 .9-.1 1-.4l-.6-1.1-.7-1.2-.5-.7-.4-.2h-.5Z" clip-rule="evenodd"/><path fill="#fff" fill-rule="evenodd" d="m7.7 51.8.2-26 33.7-1.2v25.9L7.8 51.8Z" clip-rule="evenodd"/><path fill="#A9D4E6" fill-rule="evenodd" d="M7.3 51.7.6 45 4 30.5l3.3 21.2ZM25.8 43a.9.9 0 1 0 1.8 0v-3.2a1.4 1.4 0 0 1 2.8 0V43a.9.9 0 1 0 1.8 0v-3.2a3.2 3.2 0 0 0-5.5-2.3 3.2 3.2 0 0 0-3.8-.6 1 1 0 0 0-.8-.5 1 1 0 0 0-1 1c0 .5.1.8.4 1-.3.4-.4.8-.4 1.4V43a.9.9 0 1 0 1.8 0v-3.2a1.4 1.4 0 0 1 2.8 0V43h.1ZM24.9 33.7c0 .3.5.1.7.1h.2c.2 0 .1-.3 0-.3h-.9v.2ZM31.7 33.4c0 .3.3.2.5.2s.5 0 .5-.2c0-.3-.3-.2-.4-.2-.3 0-.6 0-.6.2ZM30.7 45.1c0 .3.4.2.6.2.2 0 .5 0 .5-.2s-.3-.2-.5-.2h-.5v.2ZM25 45.4c0-.2 0-.2-.2-.2h-.3c-.3 0-.6 0-.6.2 0 0 0 .2.2.2H24.9v-.2ZM29 45.2c0 .3.5.1.8.1.3 0 .3-.3 0-.3h-.2c-.2 0-.6 0-.6.2ZM21.6 45.5c0-.3-.3-.2-.5-.2s-.5 0-.5.2c0 .3.4.2.4.2.1 0 .6 0 .6-.2ZM28.4 45.2c0-.2-.3-.2-.6-.2-.2 0-.5 0-.5.2 0 .3.4.2.5.2.3 0 .6 0 .6-.2ZM28.3 33.5c0 .1 0 .2.2.2h.8l-.1-.3h-.7l-.2.1ZM32.5 45c0 .3.2.2.5.2.2 0 .5 0 .5-.2s-.3-.1-.5-.1-.5-.1-.5.1ZM19.8 33.9c0 .3.3.2.5.2.3 0 .5 0 .5-.3 0-.2-.4 0-.5 0h-.5ZM26.6 33.6c0 .2.2.2.5.2h.5c.1-.1.1-.3 0-.4h-.5c-.2 0-.5 0-.5.2ZM25.7 45.3v.2H26.6c.1 0 .1-.4 0-.4H26c-.2 0-.3 0-.3.2ZM23.2 33.7c0 .3.2.2.5.2h.3c.2 0 .2 0 .2-.2s-.4 0-.5 0c-.2-.2-.5-.2-.5 0ZM30 33.4c0 .3.4.2.8.2.3 0 .2-.3 0-.3h-.4l-.4.1ZM18.9 45.6l.2.2h.7c.2 0 .2-.4 0-.4H19l-.1.2ZM34 40.8v.7c0 .3.4.2.4 0V41c0-.3-.3-.3-.3 0ZM18.7 34.5c0 .2.4.3.4 0V34c0-.2-.2-.2-.4-.2v.8ZM34 34v.7c0 .3.4.3.4 0V34c0-.2-.3-.2-.3 0ZM34 44.2v.7c0 .2.4.2.4 0v-.7c0-.2-.3-.2-.3 0ZM34 37.4v.8c0 .2.4.2.4 0v-.8c0-.2-.3-.2-.3 0ZM18.7 44v.8c0 .2.4.2.4 0V44c0-.2-.4-.2-.4 0ZM18.7 40.6v.7c0 .3.4.3.4 0v-.7c0-.2-.4-.1-.4 0ZM18.7 39v.7c0 .2.4.2.4 0V39c0-.3-.4-.3-.4 0ZM34 42.5v.7c0 .2.4.2.4 0v-.7c0-.2-.3-.2-.3 0ZM22.2 45.5c0 .2.2.2.3.2h.6c.2-.1.2-.4 0-.4h-.5c-.2 0-.4 0-.4.2ZM18.7 37.2v.7c0 .3.4.3.4 0v-.7c0-.2-.4-.1-.4 0ZM33.4 33.3c0 .2.1.2.5.2h.4l.1-.2c0-.1 0-.2-.2-.2h-.5s-.3 0-.3.2ZM18.7 35.5v.8s.4.1.4-.1v-.7c0-.2-.4-.2-.4 0ZM34 35.7v.7c0 .2.4.2.4 0v-.7c0-.2-.3-.2-.3 0ZM34 39.1v.7c0 .3.4.3.4 0v-.7c0-.2-.3-.2-.3 0ZM18.7 42.3v.7c0 .2.4.2.4 0v-.7c0-.2-.4-.2-.4 0ZM21.5 33.8c0 .3.5.2.7.2.5 0 .3-.4.2-.4h-.8l-.1.2Z" clip-rule="evenodd"/><path fill="#D9DADA" fill-rule="evenodd" d="M14.1 25.8c.5 0 2.2.1 3.3.4 1 .3 1.5.7 1.9 1.4.4.6.9 1.3 1.2 2L21 31v2c0 .3.1.8.3 1 .3.4.6.5.8.5.2 0 .3-.1.3-.6l-.2-1.7-.5-1.6-.8-1.9-1.2-1.8a3 3 0 0 0-1.6-1.1l-2.6-.3h-.8c-.3.1-1 .2-.6.3Zm9 7c.1.2.4.2.6.2.2 0 .4 0 .5-.2 0 0 .2-.3 0-.4H23c-.2 0-.2.3 0 .4Zm6.3-7.2.8 1 .8 1.1.6 1.5c.2.4.3.8.1 1.3 0 .4-.3 1-.5 1.1l-.3.4-.1.2.2.2h.4l.2.2.3.6c.2.2.4.2.6.2.2 0 .4-.2.5-.6v-1.2l-.5-1.5c-.1-.5-.2-1.1-.5-1.6a11 11 0 0 0-.8-1.7L30 25.4l-.8-.4.2.6Z" clip-rule="evenodd"/><path fill="#000" fill-rule="evenodd" d="M36.4 24.6c-.1-1.5-1-2.7-2.1-3.4 1.5-.3 2.6-2 2.6-3.8 0-1.3-.6-2.5-1.4-3.2l.3-.2.4-.3c1.4-1.1 1.6-3.3.5-5.1a4.5 4.5 0 0 0-2.2-1.8l-.4-.1-.1-.5-.6-1.2c-1-1.6-2.8-2.3-4.3-2l-.6.2c0-.2-.2-.3-.3-.5-.6-1-1.7-1.8-3-1.8-.6 0-1.3.2-1.8.6l-.4.3-.4-.3C22 1 21.2.8 20.5.8c-1.4 0-2.5.7-3.3 1.8l-.1.3h-.5c-1.3-.1-2.6 0-3.5.7a3.3 3.3 0 0 0-1.6 3v.1a5 5 0 0 0-2.2 1.9c-1.2 1.7-1 4 .5 5 0 .2.2.2.3.3l.4.2c-.9.7-1.4 2-1.4 3.2 0 2 1 3.5 2.5 3.9-1 .6-2 2-2 3.5l1.8.7 25-.8Zm-.9-3.3 1-.5.7-1c.1-.2.1-.2.1.2a12.8 12.8 0 0 0 0 2.4c0 .3.2.6.3.7.1.2.1.2 0 .2l-.4.3c-.2-1-.8-1.9-1.7-2.3ZM38 9.5c.1 0 .2 0 .3-.2l.3-.2.3-.3V9l.3.7.1 1.2v1.1l-.1 1.2-.2 1a24.4 24.4 0 0 1-.8 2.4l-.3 1c0-1.3-.5-2.3-1.1-3a4.5 4.5 0 0 0 1.2-5Zm1.2 15-.1-.7c-.2-.6-.4-.7-.6-.8V23l-.2-.7v-.8l3 3h-2ZM7.3 18l-.2-.8-.8-2.4a10.1 10.1 0 0 1-.4-5.6l.3-1 .5-.7h1L8 8l.4.4h.2v-.2c.6-.7 1.3-1.4 2-1.8.3-1.6.4-2.3 1.9-3.3 1.1-.8 2.7-1 4.1-1a4.6 4.6 0 0 1 4-2.1c.9 0 1.8.3 2.5.8.7-.5 1.4-.7 2.3-.7 1.4 0 2.8.9 3.6 2.1a5 5 0 0 1 5.2 2.4l.6 1.5c1 .4 2 1.1 2.6 2.1l.1.3.2-.1.4-.4.3-.4h1l.5.7c.2.3.2.6.3 1a12.5 12.5 0 0 1 .1 3.7c0 .7-.2 1.2-.4 2l-.8 2.3-.6 2.4-.2 1 3.7 3.7v26.4L7.3 52.2 0 45V18.3l7.3-.2Zm-.5 6.4.2-.7c.2-.6.4-.7.6-.8V23l.2-.7v-1c0-.4 0-1-.2-1.6l-.2-.9-6 .3 5.4 5.5Zm3.6-3.2c-.9.4-1.4 1.2-1.7 2.2l-.3-.2c-.1 0-.1 0 0-.2l.3-.7v-2.6l.8.9c.2.3.6.4.9.6ZM8.1 9.5a4.5 4.5 0 0 0 1.2 5c-.7.7-1 1.7-1 3a12 12 0 0 1-.4-1l-.4-1.3a24.3 24.3 0 0 1-.6-2.1l-.1-1.2v-1.1l.1-1.2.2-.7c0-.1 0-.1.1 0 0 0 .2 0 .3.2l.3.2.3.2Zm-.9 16.2L.8 19.3v25.4L7.2 51V25.7Zm11.9.1 10.6-.4 1 1.1a11.1 11.1 0 0 1 1.6 3.9l-1.2.9c-.4.3-.6.7-.3 1 .2 0 .6 0 1-.2 0 1 .6 1.7 1.1 1.6.5 0 .9-.8.7-1.7 0-.6-.3-1.2-.6-1.5l-.5-1.9a10 10 0 0 0-1.2-2.2l-.8-1 10.8-.4v25.2L7.9 51.5V26.3l10.4-.4a11 11 0 0 1 2.7 3.7l.6 2.1c-.2.4-.3 1-.2 1.5.2 1 .7 1.6 1.3 1.5.5-.1.8-1 .6-2 .4.1.7 0 .9-.1.2-.2 0-.6-.6-.8l-1.5-.5-.5-1.9a11 11 0 0 0-2.5-3.6Z" clip-rule="evenodd"/><path fill="#fff" fill-rule="evenodd" d="M11.5 47c0 .7.5 1.1 1 1h4.2c.6 0 1.2.6 1.2 1.2 0 .7-.6 1.2-1.2 1.2l-6.3.2c-.7 0-1.2-.5-1.2-1.2v-6c0-.7.4-1.2 1.1-1.2.7 0 1.2.5 1.2 1.2V47Z" clip-rule="evenodd"/><path fill="#A9D4E6" fill-rule="evenodd" d="M30 49.8c0 .4.5.4.7.3h.4c.3 0 .6 0 .6-.3 0-.2 0-.3-.2-.3h-1.3l-.2.3ZM24.4 50c0 .2 0 .4.3.4h1.2c.2-.2.3-.4.1-.6H24.6c-.1 0-.2.1-.2.3ZM39.3 32.1v1.1c0 .4.6.4.6 0v-1.1c0-.4-.6-.4-.6 0ZM39.3 40.6v1.1c0 .4.6.4.6 0v-1.1c0-.4-.6-.4-.6 0ZM39.3 49.1h-.5l-.2.1c-.2.2-.1.4.1.5H40V49c0-.4-.7-.4-.7 0ZM39.3 29.3v1.1c0 .4.6.4.6 0v-1.1c0-.4-.6-.4-.6 0ZM39.3 26.5v1c0 .5.6.4.6.1v-1.2c0-.1-.1-.2-.3-.2-.1 0-.3 0-.3.3ZM39.3 35v1c0 .5.6.4.6.1V35c0-.3-.6-.4-.6 0ZM39.3 46.3v1c0 .4.6.4.6.1v-1.2c0-.3-.6-.3-.6 0ZM39.3 37.8V39c0 .4.6.4.6 0v-1.1c0-.4-.6-.4-.6 0ZM39.3 43.5v1c0 .4.3.4.5.3l.1-.2v-1.2c0-.3-.6-.4-.6 0ZM32.8 49.6c0 .5.5.3.6.3h1c.2-.2.1-.5-.1-.6H34l-1 .1-.2.2ZM21.5 50.2c0 .4.3.3.6.3h.8l.2-.2c.2-.1 0-.5-.2-.5h-1.3v.4ZM27.2 50c0 .4.3.2.6.2h.8l.2-.1c.1-.2 0-.5-.2-.5h-1.1c-.1.1-.3.1-.3.3ZM37.4 49.6c0-.2 0-.4-.2-.4h-1c-.3 0-.3 0-.4.2v.3c.1.2.4.1.6.1h.8l.2-.2ZM18.8 50.3c0 .2 0 .3.3.3h1c.4 0 .4-.6 0-.6h-1l-.2.1-.1.2ZM9.6 37.6c.5 0 .3-.5.3-.8 0-.4 0-.9-.3-.9-.2 0-.3.2-.3.3V37.5l.3.1ZM9.5 30.3s-.2 0-.3.2v1.2c.2.4.6.3.6 0v-1.2c0-.1-.1-.2-.3-.2ZM9.2 27.7V29c0 .3.5.2.5-.1V27.6l-.2-.1c-.2 0-.3 0-.3.2ZM9.4 39v1.3c.2.3.5.1.5-.2v-1c0-.5-.5-.4-.5 0ZM9.3 33.4v1.2c.2.3.5.2.5 0v-1.4c-.2-.2-.5-.1-.5.2ZM6.4 36c0 .3 0 .7.2.7l.1-.2V36c0-.3-.3-.3-.3 0ZM6.4 38.8c0 .4 0 .7.2.7l.1-.2V39c0-.3-.3-.3-.3 0ZM6.4 34.6c0 .2 0 .7.2.7l.1-.2v-.5c0-.3-.3-.2-.3 0ZM6.4 37.4c0 .5 0 .7.2.7l.1-.2v-.5c0-.2-.3-.2-.3 0ZM6.4 33.4c0 .1 0 .4.2.4l.1-.1V33s-.3-.3-.3.3ZM5 25.2c0 .2.2.3.4.4l.2.2.1-.2-.3-.4-.2-.1-.2.1ZM3 23.2l.1.3.4.3c.1 0 .2 0 .2-.2l-.2-.3s-.3-.3-.4-.2l-.1.1ZM6 26.2l.3.3.1.2c.2.2.3 0 .3 0l-.2-.4-.3-.2H6ZM6.4 40.2v.6c0 .1.2.2.3 0v-.7s-.3-.1-.3.1ZM2 22.2l.5.6c.2 0 .3-.2 0-.5L2 22l-.1.2ZM1.2 22.7v.6c0 .2.3.2.3 0v-.7l-.3.1ZM1.2 26v.2h.3v-.6c0-.3-.3-.2-.3 0v.5ZM1.2 21.2v.7l.2.1.1-.2.2-.1c0-.1 0-.2-.2-.2l-.3-.3ZM1.2 31.2v.6c0 .2.3.2.3 0V31l-.3.1ZM4 24.2c0 .2.2.2.3.3l.3.3c.1 0 .2-.2 0-.4l-.1-.1-.3-.3-.2.2ZM6.4 41.6v.6c0 .2.3.2.3 0v-.6c0-.1-.3-.2-.3 0ZM1.2 32.6v.6c0 .2.3.2.3 0v-.6h-.3ZM1.2 41.1v.6c0 .2.3.2.3 0V41c0-.2-.3-.1-.3 0ZM1.2 24.1v.7h.3V24c0-.2-.3-.1-.3 0ZM1.2 39.7v.6c0 .1.3.2.3 0v-.6c0-.2-.3-.1-.3 0ZM1.2 27v.6h.3c0-.5 0-.8-.2-.8v.1ZM1.2 36.9v.5c0 .2.3.2.3 0v-.7s-.3 0-.3.2ZM6.4 43v.6c0 .2.3.2.3 0V43c0-.1-.3-.2-.3 0ZM6.4 31.7v.6c0 .2.3.2.3 0v-.6c0-.2-.3-.2-.3 0ZM6.4 44.4v.6c0 .2.3.2.3 0v-.6h-.3ZM6.4 27.5v.5c0 .2.3.2.3 0v-.6h-.3ZM1.2 34v.6c0 .2.3.2.3 0v-.5c0-.2-.3-.2-.3 0ZM6.4 47.3v.5l.1.2c.1 0 .2 0 .2-.2v-.5c0-.2-.3-.2-.3 0ZM6.4 28.8v.7h.3v-.7h-.3ZM1.2 29.8v.6c0 .1.3.2.3 0v-.6c0-.2-.3-.2-.3 0ZM1.2 38.3v.6c0 .2.3.2.3 0v-.6c0-.2-.3-.2-.3 0ZM1.2 35.5v.6c0 .2.3.1.3 0v-.6c0-.2-.3-.2-.3 0ZM6.4 45.8v.6c0 .2.3.2.3 0v-.6h-.3ZM1.2 28.4v.6c0 .2.3.1.3 0v-.6c0-.2-.3-.2-.3 0ZM6.4 30.3v.6c0 .2.3.2.3 0v-.6c0-.2-.3-.2-.3 0ZM1.2 42.5v.2c0 .2.3.2.3 0s0-.3-.2-.3v.1Z" clip-rule="evenodd"/><path fill="#000005" fill-rule="evenodd" d="m21.6 19 .2-.3c1-1.4 3-.9 2.8 1.5 2.1-.2 2.7-3.8 2.3-4.5-.5-1.2-4-1.3-5.5-.4-.6.4-.5 1-.4 1.8.1.8.3 1.3.6 1.8ZM16.3 13.4c0 2 2.4 2.9 3.7 1.6 1.3-1.3.4-3.7-1.6-3.7-1.2 0-2.1 1-2.1 2.1ZM27.4 13.4c0 2 2.3 3 3.7 1.6 1.3-1.3.4-3.7-1.6-3.7-1.1 0-2.1 1-2.1 2.1Z" clip-rule="evenodd"/><path fill="#E6340D" fill-rule="evenodd" d="m21.6 19 1 1c.5.2 1.3.4 2 .2.2-2.4-1.8-3-2.9-1.5l-.1.2Z" clip-rule="evenodd"/><path fill="#FAC18A" fill-rule="evenodd" d="M15.9 16.6c0 .6.3 1 .8 1 1.3.1 1.3-1.8 0-1.8-.4 0-.8.4-.8.8ZM32.1 16.8c0-.6-.5-1-.9-1-.8 0-1.2 1-.7 1.5.2.3.6.4 1 .3.3-.1.6-.5.6-.8Z" clip-rule="evenodd"/><path fill="#fff" fill-rule="evenodd" d="M30.5 12.5c-.4.1-.5.4-.3.8 0 .2.4.4.7.2.6-.2.3-1.3-.4-1ZM19.3 12.5c-.7.3-.2 1.3.5 1 .7-.2.2-1.3-.5-1Z" clip-rule="evenodd"/></svg>