<svg xmlns="http://www.w3.org/2000/svg" width="22" height="32" fill="none"><mask id="a" width="3" height="3" x="13.5" y="26" fill="#000" maskUnits="userSpaceOnUse"><path fill="#fff" d="M13.5 26h3v3h-3z"/><path d="M15 27a.5.5 0 1 0 0 1 .5.5 0 0 0 0-1Z"/></mask><path fill="#252525" d="M15 27a.5.5 0 1 0 0 1 .5.5 0 0 0 0-1Z"/><path stroke="#252525" stroke-width=".4" d="M15 27a.5.5 0 1 0 0 1 .5.5 0 0 0 0-1Z" mask="url(#a)"/><mask id="b" width="3" height="3" x="4.5" y="21.5" fill="#000" maskUnits="userSpaceOnUse"><path fill="#fff" d="M4.5 21.5h3v3h-3z"/><path d="M6 22.5a.5.5 0 1 0 0 1 .5.5 0 0 0 0-1Z"/></mask><path fill="#252525" d="M6 22.5a.5.5 0 1 0 0 1 .5.5 0 0 0 0-1Z"/><path stroke="#252525" stroke-width=".4" d="M6 22.5a.5.5 0 1 0 0 1 .5.5 0 0 0 0-1Z" mask="url(#b)"/><mask id="c" width="22" height="32" x="0" y="0" fill="#000" maskUnits="userSpaceOnUse"><path fill="#fff" d="M0 0h22v32H0z"/><path d="M21 9.5c0-.83-.67-1.5-1.5-1.5h-8V4.26l3.29-2.35a.5.5 0 0 0-.58-.82l-3.5 2.5-.01.01-.02.02-.02.01-.02.02-.02.02a.45.45 0 0 0-.09.15v.01a.56.56 0 0 0-.02.08v.07L10.5 4v4h-8a1.5 1.5 0 0 0-.46 2.93L3.83 28.8A2.44 2.44 0 0 0 6.26 31h9.48c1.26 0 2.3-.95 2.43-2.2l1.79-17.87A1.5 1.5 0 0 0 21 9.5ZM2.5 9h17a.5.5 0 0 1 0 1h-17a.5.5 0 0 1 0-1Zm16.1 5.55a3.13 3.13 0 0 0-3.95.48c-.96.95-2.34.95-3.3 0A3.33 3.33 0 0 0 9 14c-.86 0-1.7.36-2.35 1.03-.49.48-1.08.76-1.67.79a2.12 2.12 0 0 1-1.5-.56L3.05 11h15.9l-.36 3.55ZM17.17 28.7c-.08.74-.7 1.3-1.44 1.3H6.26c-.74 0-1.36-.56-1.44-1.3L3.61 16.53a3.03 3.03 0 0 0 1.41.29 3.54 3.54 0 0 0 2.33-1.09 2.24 2.24 0 0 1 3.3 0c.66.66 1.5 1.03 2.35 1.03.86 0 1.7-.37 2.35-1.03.47-.46 1.04-.7 1.63-.67.52.02 1.05.25 1.5.64l-1.3 13Z"/></mask><path fill="#252525" d="M21 9.5c0-.83-.67-1.5-1.5-1.5h-8V4.26l3.29-2.35a.5.5 0 0 0-.58-.82l-3.5 2.5-.01.01-.02.02-.02.01-.02.02-.02.02a.45.45 0 0 0-.09.15v.01a.56.56 0 0 0-.02.08v.07L10.5 4v4h-8a1.5 1.5 0 0 0-.46 2.93L3.83 28.8A2.44 2.44 0 0 0 6.26 31h9.48c1.26 0 2.3-.95 2.43-2.2l1.79-17.87A1.5 1.5 0 0 0 21 9.5ZM2.5 9h17a.5.5 0 0 1 0 1h-17a.5.5 0 0 1 0-1Zm16.1 5.55a3.13 3.13 0 0 0-3.95.48c-.96.95-2.34.95-3.3 0A3.33 3.33 0 0 0 9 14c-.86 0-1.7.36-2.35 1.03-.49.48-1.08.76-1.67.79a2.12 2.12 0 0 1-1.5-.56L3.05 11h15.9l-.36 3.55ZM17.17 28.7c-.08.74-.7 1.3-1.44 1.3H6.26c-.74 0-1.36-.56-1.44-1.3L3.61 16.53a3.03 3.03 0 0 0 1.41.29 3.54 3.54 0 0 0 2.33-1.09 2.24 2.24 0 0 1 3.3 0c.66.66 1.5 1.03 2.35 1.03.86 0 1.7-.37 2.35-1.03.47-.46 1.04-.7 1.63-.67.52.02 1.05.25 1.5.64l-1.3 13Z"/><path stroke="#252525" stroke-width=".4" d="M21 9.5c0-.83-.67-1.5-1.5-1.5h-8V4.26l3.29-2.35a.5.5 0 0 0-.58-.82l-3.5 2.5-.01.01-.02.02-.02.01-.02.02-.02.02a.45.45 0 0 0-.09.15v.01a.56.56 0 0 0-.02.08v.07L10.5 4v4h-8a1.5 1.5 0 0 0-.46 2.93L3.83 28.8A2.44 2.44 0 0 0 6.26 31h9.48c1.26 0 2.3-.95 2.43-2.2l1.79-17.87A1.5 1.5 0 0 0 21 9.5ZM2.5 9h17a.5.5 0 0 1 0 1h-17a.5.5 0 0 1 0-1Zm16.1 5.55a3.13 3.13 0 0 0-3.95.48c-.96.95-2.34.95-3.3 0A3.33 3.33 0 0 0 9 14c-.86 0-1.7.36-2.35 1.03-.49.48-1.08.76-1.67.79a2.12 2.12 0 0 1-1.5-.56L3.05 11h15.9l-.36 3.55ZM17.17 28.7c-.08.74-.7 1.3-1.44 1.3H6.26c-.74 0-1.36-.56-1.44-1.3L3.61 16.53a3.03 3.03 0 0 0 1.41.29 3.54 3.54 0 0 0 2.33-1.09 2.24 2.24 0 0 1 3.3 0c.66.66 1.5 1.03 2.35 1.03.86 0 1.7-.37 2.35-1.03.47-.46 1.04-.7 1.63-.67.52.02 1.05.25 1.5.64l-1.3 13Z" mask="url(#c)"/><mask id="d" width="7" height="7" x="6.5" y="22.38" fill="#000" maskUnits="userSpaceOnUse"><path fill="#fff" d="M6.5 22.38h7v7h-7z"/><path d="M11.2 23.86c-.28-.3-.65-.46-1.05-.48-.4-.02-.79.13-1.08.4l-1.1 1.03a1.5 1.5 0 0 0-.07 2.12l1.03 1.1c.27.29.64.46 1.04.47h.05c.39 0 .75-.14 1.03-.4l1.1-1.03c.6-.56.63-1.51.06-2.12l-1.02-1.1Zm.26 2.48-1.1 1.03a.5.5 0 0 1-.7-.03l-1.03-1.1a.5.5 0 0 1 .03-.7l1.1-1.02a.5.5 0 0 1 .7.02l1.02 1.1a.5.5 0 0 1-.02.7Z"/></mask><path fill="#252525" d="M11.2 23.86c-.28-.3-.65-.46-1.05-.48-.4-.02-.79.13-1.08.4l-1.1 1.03a1.5 1.5 0 0 0-.07 2.12l1.03 1.1c.27.29.64.46 1.04.47h.05c.39 0 .75-.14 1.03-.4l1.1-1.03c.6-.56.63-1.51.06-2.12l-1.02-1.1Zm.26 2.48-1.1 1.03a.5.5 0 0 1-.7-.03l-1.03-1.1a.5.5 0 0 1 .03-.7l1.1-1.02a.5.5 0 0 1 .7.02l1.02 1.1a.5.5 0 0 1-.02.7Z"/><path stroke="#252525" stroke-width=".4" d="M11.2 23.86c-.28-.3-.65-.46-1.05-.48-.4-.02-.79.13-1.08.4l-1.1 1.03a1.5 1.5 0 0 0-.07 2.12l1.03 1.1c.27.29.64.46 1.04.47h.05c.39 0 .75-.14 1.03-.4l1.1-1.03c.6-.56.63-1.51.06-2.12l-1.02-1.1Zm.26 2.48-1.1 1.03a.5.5 0 0 1-.7-.03l-1.03-1.1a.5.5 0 0 1 .03-.7l1.1-1.02a.5.5 0 0 1 .7.02l1.02 1.1a.5.5 0 0 1-.02.7Z" mask="url(#d)"/><mask id="e" width="7" height="7" x="9.5" y="18.5" fill="#000" maskUnits="userSpaceOnUse"><path fill="#fff" d="M9.5 18.5h7v7h-7z"/><path d="M14.2 19.98c-.28-.3-.65-.47-1.05-.48-.4-.02-.79.13-1.08.4l-1.1 1.03a1.5 1.5 0 0 0-.07 2.12l1.03 1.1a1.49 1.49 0 0 0 1.1.47c.38 0 .74-.14 1.02-.4l1.1-1.03c.6-.56.63-1.52.06-2.12l-1.02-1.1Zm.26 2.48-1.1 1.02a.5.5 0 0 1-.7-.02l-1.03-1.1a.5.5 0 0 1 .03-.7l1.1-1.03a.5.5 0 0 1 .7.03l1.02 1.1a.5.5 0 0 1-.02.7Z"/></mask><path fill="#252525" d="M14.2 19.98c-.28-.3-.65-.47-1.05-.48-.4-.02-.79.13-1.08.4l-1.1 1.03a1.5 1.5 0 0 0-.07 2.12l1.03 1.1a1.49 1.49 0 0 0 1.1.47c.38 0 .74-.14 1.02-.4l1.1-1.03c.6-.56.63-1.52.06-2.12l-1.02-1.1Zm.26 2.48-1.1 1.02a.5.5 0 0 1-.7-.02l-1.03-1.1a.5.5 0 0 1 .03-.7l1.1-1.03a.5.5 0 0 1 .7.03l1.02 1.1a.5.5 0 0 1-.02.7Z"/><path stroke="#252525" stroke-width=".4" d="M14.2 19.98c-.28-.3-.65-.47-1.05-.48-.4-.02-.79.13-1.08.4l-1.1 1.03a1.5 1.5 0 0 0-.07 2.12l1.03 1.1a1.49 1.49 0 0 0 1.1.47c.38 0 .74-.14 1.02-.4l1.1-1.03c.6-.56.63-1.52.06-2.12l-1.02-1.1Zm.26 2.48-1.1 1.02a.5.5 0 0 1-.7-.02l-1.03-1.1a.5.5 0 0 1 .03-.7l1.1-1.03a.5.5 0 0 1 .7.03l1.02 1.1a.5.5 0 0 1-.02.7Z" mask="url(#e)"/><mask id="f" width="7" height="7" x="5.5" y="16" fill="#000" maskUnits="userSpaceOnUse"><path fill="#fff" d="M5.5 16h7v7h-7z"/><path d="M8.97 22.12h.05c.39 0 .75-.14 1.03-.4l1.1-1.03c.6-.56.63-1.51.06-2.12l-1.02-1.1c-.27-.29-.64-.46-1.04-.47-.4-.02-.79.13-1.08.4l-1.1 1.03a1.5 1.5 0 0 0-.07 2.12l1.03 1.1c.27.29.64.45 1.04.47Zm-1.31-2.96 1.1-1.03a.5.5 0 0 1 .7.03l1.02 1.1a.5.5 0 0 1-.02.7l-1.1 1.02a.5.5 0 0 1-.7-.02l-1.03-1.1a.5.5 0 0 1 .03-.7Z"/></mask><path fill="#252525" d="M8.97 22.12h.05c.39 0 .75-.14 1.03-.4l1.1-1.03c.6-.56.63-1.51.06-2.12l-1.02-1.1c-.27-.29-.64-.46-1.04-.47-.4-.02-.79.13-1.08.4l-1.1 1.03a1.5 1.5 0 0 0-.07 2.12l1.03 1.1c.27.29.64.45 1.04.47Zm-1.31-2.96 1.1-1.03a.5.5 0 0 1 .7.03l1.02 1.1a.5.5 0 0 1-.02.7l-1.1 1.02a.5.5 0 0 1-.7-.02l-1.03-1.1a.5.5 0 0 1 .03-.7Z"/><path stroke="#252525" stroke-width=".4" d="M8.97 22.12h.05c.39 0 .75-.14 1.03-.4l1.1-1.03c.6-.56.63-1.51.06-2.12l-1.02-1.1c-.27-.29-.64-.46-1.04-.47-.4-.02-.79.13-1.08.4l-1.1 1.03a1.5 1.5 0 0 0-.07 2.12l1.03 1.1c.27.29.64.45 1.04.47Zm-1.31-2.96 1.1-1.03a.5.5 0 0 1 .7.03l1.02 1.1a.5.5 0 0 1-.02.7l-1.1 1.02a.5.5 0 0 1-.7-.02l-1.03-1.1a.5.5 0 0 1 .03-.7Z" mask="url(#f)"/></svg>