<svg xmlns="http://www.w3.org/2000/svg" width="30" height="30" fill="none"><path fill="#252525" d="M27.36 7.03h-1.82a4.4 4.4 0 1 0-7.42-4.66c-.33.65-.7 1.36-1.15 2.03a2.63 2.63 0 0 0-3.94 0c-.45-.67-.82-1.38-1.16-2.03a4.38 4.38 0 0 0-8.3 2.02c0 1 .33 1.9.89 2.64H2.64A2.64 2.64 0 0 0 0 9.67v1.76c0 1.14.73 2.12 1.76 2.48v13.45A2.68 2.68 0 0 0 4.46 30h21.09c1.45 0 2.7-1.18 2.7-2.64V13.91A2.64 2.64 0 0 0 30 11.43V9.67a2.64 2.64 0 0 0-2.64-2.64Zm-9.74-.55a17.95 17.95 0 0 0 2.07-3.3 2.63 2.63 0 0 1 4.98 1.21 2.64 2.64 0 0 1-2.64 2.64h-.8a6.56 6.56 0 0 0 1.4-1.87l.19-.37A.88.88 0 0 0 21.25 4l-.19.37a4.78 4.78 0 0 1-3.55 2.6c.05-.16.08-.32.1-.5Zm-3.5-.43a.88.88 0 0 1 1.75 0v.2a.88.88 0 0 1-1.74 0v-.2Zm-6.15-4.3c.99 0 1.89.55 2.34 1.43a17.96 17.96 0 0 0 2.07 3.3c.03.17.06.33.11.5a4.78 4.78 0 0 1-3.55-2.6L8.75 4a.88.88 0 0 0-1.57.79l.19.37c.35.7.83 1.34 1.4 1.87h-.8a2.64 2.64 0 0 1 0-5.27Zm2.64 26.5H4.45c-.5 0-.93-.42-.93-.89v-13.3h7.09v14.18Zm0-15.95H2.64a.88.88 0 0 1-.88-.87V9.67c0-.49.4-.88.88-.88h7.97v3.51Zm7.03 15.94h-1.76v-.88a.88.88 0 0 0-1.76 0v.88h-1.76V8.8h1.76v.88a.88.88 0 1 0 1.76 0v-.88h1.76v19.45Zm8.84-.88c0 .47-.43.88-.93.88h-6.16V14.06h7.1v13.3Zm1.76-15.93c0 .48-.4.87-.88.87H19.4V8.8h7.97c.49 0 .88.4.88.88v1.76Z"/><path fill="#252525" d="m6.98 26.31-.23-.12c-.14-.07-3.42-1.73-3.42-4.1 0-1.16.94-2.09 2.09-2.09.65 0 1.2.4 1.56.76.35-.36.9-.76 1.56-.76 1.15 0 2.08.93 2.08 2.08 0 2.38-3.27 4.05-3.4 4.11l-.24.12Z"/></svg>