<svg xmlns="http://www.w3.org/2000/svg" width="34" height="34" fill="none"><path fill="#252525" d="m16.7 24 .1.2a.8.8 0 1 1-1.1 1.2l-.1-.1a.8.8 0 1 1 1.1-1.2Zm-5-10.2V9.3a3 3 0 0 1 3-3.1h4.5a3 3 0 0 1 3.1 3v4.6a3 3 0 0 1-3 3h-4.5a3 3 0 0 1-3.1-3Zm1.6 0c0 .7.7 1.4 1.5 1.4h4.4c.8 0 1.5-.7 1.5-1.4V9.3c0-.8-.7-1.5-1.5-1.5h-4.4c-.8 0-1.5.7-1.5 1.5v4.5Zm4.9 10a.8.8 0 0 0 1.1 0c.4-.2.4-.8 0-1.1v-.1a.8.8 0 0 0-1.2 1.2Zm9-11.6c-.3.3-.3.9 0 1.2l.1.1a.8.8 0 0 0 1.2 0c.3-.3.3-.8 0-1.2a.8.8 0 0 0-1.3 0ZM30 12a.8.8 0 0 0 1.1 0c.4-.3.4-.8 0-1.2a.8.8 0 0 0-1.3 1.1l.2.1Zm-6.5-.5a5.3 5.3 0 1 1 10.6 0 5.3 5.3 0 0 1-10.6 0Zm1.6 0a3.7 3.7 0 1 0 7.3 0 3.7 3.7 0 0 0-7.3 0Zm2.6-.5.6-.3a.8.8 0 1 0-1.1-1.3l-.1.2a.8.8 0 0 0 .6 1.4Zm-13 .5a2.4 2.4 0 1 1 4.8 0 2.4 2.4 0 0 1-4.8 0Zm1.7 0a.7.7 0 1 0 1.4 0 .7.7 0 0 0-1.4 0Zm-9.4 5.3c.5 0 .8-.3.8-.8L8.5 1A.8.8 0 1 0 7 .8L6 16c0 .4.3.8.8.8ZM29 32.3h-4a.8.8 0 0 0 0 1.7h4a.8.8 0 0 0 0-1.7Zm4-2.3H.9a.8.8 0 0 0 0 1.6h32.4a.8.8 0 0 0 0-1.6ZM34 21v4.5a3 3 0 0 1-3 3.1h-4.6a3 3 0 0 1-3-3V21a3 3 0 0 1 3-3H31a3 3 0 0 1 3.1 3Zm-1.7 0c0-.7-.6-1.4-1.4-1.4h-4.5c-.8 0-1.4.7-1.4 1.4v4.5c0 .8.6 1.4 1.4 1.4H31c.8 0 1.4-.6 1.4-1.4v-4.5ZM16 22.8c.2 0 .4 0 .6-.2v-.1a.8.8 0 0 0-1-1.2l-.2.1a.8.8 0 0 0 .6 1.4Zm15.1.6a2.4 2.4 0 1 1-4.7 0 2.4 2.4 0 0 1 4.7 0Zm-1.6 0a.7.7 0 1 0-1.4 0 .7.7 0 0 0 1.4 0Zm-20.5 9H5a.8.8 0 0 0 0 1.6h4a.8.8 0 0 0 0-1.7ZM3 16a.8.8 0 1 0 1.7 0L3.8.8A.8.8 0 0 0 2 .8L3 16Zm8.8 7.4a5.3 5.3 0 1 1 10.6 0 5.3 5.3 0 0 1-10.6 0Zm1.6 0a3.7 3.7 0 1 0 7.4 0 3.7 3.7 0 0 0-7.4 0ZM0 25.6v-4.5a3 3 0 0 1 3-3h4.6a3 3 0 0 1 3 3v4.5a3 3 0 0 1-3 3.1H3a3 3 0 0 1-3.1-3Zm1.7 0c0 .8.6 1.4 1.4 1.4h4.5c.8 0 1.4-.6 1.4-1.4v-4.5c0-.7-.6-1.4-1.4-1.4H3c-.8 0-1.4.7-1.4 1.4v4.5ZM3 23.4a2.4 2.4 0 1 1 4.7 0 2.4 2.4 0 0 1-4.7 0Zm1.6 0a.7.7 0 1 0 1.4 0 .7.7 0 0 0-1.4 0Z"/></svg>